<svg width="245" height="78" viewBox="0 0 245 78" fill="none" xmlns="http://www.w3.org/2000/svg">
<path d="M13.124 18.658C17.6655 16.7379 22.7377 16.4766 27.4522 17.9207C32.1664 19.3647 36.2222 22.4215 38.9092 26.5554C41.5961 30.6897 42.7432 35.6383 42.1484 40.533C41.5537 45.4274 39.2557 49.9565 35.6572 53.3269C32.0584 56.6974 27.3879 58.6945 22.4649 58.9676C18.7902 59.1714 15.1491 58.4054 11.8965 56.7761L11.252 56.4383C9.79794 55.6457 9.53403 53.7452 10.5254 52.4187C11.5169 51.0926 13.388 50.8531 14.8848 51.5613C17.1307 52.624 19.6208 53.1186 22.1328 52.9793C25.6499 52.7841 28.9866 51.3579 31.5576 48.95C34.1286 46.5421 35.7704 43.3061 36.1953 39.8093C36.6202 36.3125 35.8005 32.7776 33.8809 29.824C31.9612 26.8705 29.0634 24.6867 25.6953 23.6551C22.3273 22.6235 18.7034 22.8097 15.459 24.1814C12.2146 25.5532 9.55664 28.0231 7.9502 31.158L7.74122 31.5799C6.73464 33.7059 6.2473 36.0285 6.30274 38.3572C6.31064 38.6895 6.27513 39.0195 6.20411 39.3386L6.29005 74.9851L6.28614 75.1394C6.20954 76.7247 4.90193 77.9891 3.29688 77.9929C1.6919 77.9967 0.378123 76.7389 0.293953 75.1541L0.290047 74.9998L0.20118 37.9998C0.200511 37.7072 0.242847 37.4245 0.32032 37.157C0.441752 34.1353 1.21335 31.1527 2.61231 28.4226C4.86095 24.0346 8.5826 20.5781 13.124 18.658ZM67.3018 15.9998C79.4519 15.9998 89.3015 25.8497 89.3018 37.9998C89.3017 50.15 79.452 59.9998 67.3018 59.9998C55.1516 59.9998 45.3019 50.15 45.3018 37.9998C45.302 25.8497 55.1516 15.9998 67.3018 15.9998ZM175.801 8.03298C178.854 1.26414 183.692 -0.617909 185.268 0.166771C180.941 4.04805 181.662 9.46551 182.563 11.6892C186.458 7.80828 190.678 10.072 192.301 11.6892C189.756 11.1857 185.171 11.9368 183.937 17.7605C191.794 21.1172 197.302 28.9149 197.302 37.9998C197.302 50.1498 187.452 59.9998 175.302 59.9998C163.152 59.9998 153.302 50.1498 153.302 37.9998C153.302 28.5661 159.24 20.5199 167.582 17.3933C166.236 11.9053 161.793 11.1965 159.302 11.6892C160.925 10.072 165.144 7.80818 169.039 11.6892C169.941 9.46539 170.661 4.04802 166.334 0.166771C167.91 -0.618193 172.748 1.26403 175.801 8.03298ZM223.302 16.9998C234.9 16.9998 244.302 26.4019 244.302 37.9998C244.302 49.5978 234.9 58.9998 223.302 58.9998C211.704 58.9998 202.302 49.5978 202.302 37.9998C202.302 26.4019 211.704 16.9998 223.302 16.9998ZM132.802 16.9998C140.81 16.9998 147.302 23.4918 147.302 31.4998V54.9998C147.302 56.6566 145.959 57.9998 144.302 57.9998C142.645 57.9998 141.302 56.6566 141.302 54.9998V31.4998C141.302 26.8055 137.496 22.9998 132.802 22.9998C128.107 22.9998 124.302 26.8055 124.302 31.4998V54.9998C124.302 56.6566 122.959 57.9998 121.302 57.9998C119.645 57.9998 118.302 56.6566 118.302 54.9998V31.4998C118.302 26.8055 114.496 22.9998 109.802 22.9998C105.107 22.9998 101.302 26.8055 101.302 31.4998V54.9998C101.302 56.6566 99.9586 57.9998 98.3018 57.9998C96.6449 57.9998 95.3018 56.6566 95.3018 54.9998V31.4998C95.3019 23.4918 101.794 16.9998 109.802 16.9998C114.486 16.9998 118.651 19.2213 121.302 22.6677C123.953 19.2213 128.118 16.9998 132.802 16.9998ZM68.3565 53.781C67.8239 55.6963 69.1311 56.0316 69.8516 55.9597C70.3604 56.422 70.9313 54.9415 71.1533 54.1433C71.9154 52.6543 70.7072 52.1002 70.0078 52.0095L68.3565 53.781ZM184.884 20.1551C184.54 19.9941 184.122 20.1169 183.923 20.45C183.724 20.7833 183.813 21.2093 184.118 21.4363L184.182 21.4783L184.678 21.7859C187.132 23.3565 189.201 25.4658 190.724 27.9558C192.348 30.6118 193.304 33.6227 193.51 36.7293C193.702 39.6417 193.23 42.5578 192.132 45.2566L191.903 45.7937C190.643 48.6406 188.71 51.1399 186.271 53.076C185.948 53.3336 185.894 53.8055 186.151 54.1297C186.409 54.4535 186.881 54.5071 187.205 54.2498C189.833 52.1629 191.917 49.4697 193.275 46.4011L193.521 45.822C194.705 42.913 195.214 39.77 195.007 36.6306C194.785 33.2818 193.754 30.0357 192.003 27.1726C190.361 24.4886 188.132 22.2152 185.486 20.5222L184.952 20.1912L184.884 20.1551ZM63.5 50.0633C62.9361 49.6703 62.56 51.2108 62.4424 52.031C61.8783 53.6055 63.1472 53.9997 63.8525 53.9998L65.2627 52.031C65.5445 50.0631 64.2052 49.8992 63.5 50.0633ZM223.302 22.9998C215.018 22.9998 208.302 29.7156 208.302 37.9998C208.302 46.2841 215.017 52.9998 223.302 52.9998C231.586 52.9998 238.302 46.2841 238.302 37.9998C238.302 29.7156 231.586 22.9998 223.302 22.9998ZM80.6045 49.2117C80.3458 48.5751 79.1901 49.6616 78.6445 50.2849C77.3135 51.2971 78.1627 52.3192 78.7539 52.7039L81.0098 51.823C82.3191 50.3269 81.2851 49.4587 80.6045 49.2117ZM74.9629 46.0467C74.5069 45.5321 73.7794 46.9421 73.4727 47.7117C72.5549 49.1097 73.6963 49.7902 74.3818 49.9558L76.2149 48.3738C76.9511 46.5267 75.6869 46.0528 74.9629 46.0467ZM67.5 45.0633C66.9361 44.6703 66.56 46.2108 66.4424 47.031C65.8783 48.6055 67.1472 48.9997 67.8525 48.9998L69.2627 47.031C69.5445 45.0631 68.2052 44.8992 67.5 45.0633ZM56.5 44.0633C55.9361 43.6703 55.56 45.2108 55.4424 46.031C54.8783 47.6055 56.1472 47.9997 56.8525 47.9998L58.2627 46.031C58.5445 44.0631 57.2052 43.8992 56.5 44.0633ZM63.8721 44.5672C62.8048 42.8897 61.6805 43.6369 61.252 44.2205C60.5687 44.2897 61.2858 45.704 61.7305 46.4031C62.3274 47.9656 63.5477 47.4384 64.083 46.9793L63.8721 44.5672ZM51.5 42.0633C50.9361 41.6703 50.56 43.2108 50.4424 44.031C49.8783 45.6055 51.1472 45.9997 51.8525 45.9998L53.2627 44.031C53.5445 42.0631 52.2052 41.8992 51.5 42.0633ZM73.0195 41.0515C72.5787 40.5252 71.8104 41.9125 71.4815 42.6726C70.5232 44.0433 71.6448 44.7576 72.3252 44.9431L74.2031 43.4148C74.9929 41.5899 73.7431 41.0787 73.0195 41.0515ZM65.5 38.0633C64.9361 37.6703 64.56 39.2108 64.4424 40.031C63.8783 41.6055 65.1472 41.9997 65.8525 41.9998L67.2627 40.031C67.5445 38.0631 66.2052 37.8992 65.5 38.0633ZM58.5 37.0633C57.9361 36.6703 57.56 38.2108 57.4424 39.031C56.8783 40.6055 58.1472 40.9997 58.8525 40.9998L60.2627 39.031C60.5445 37.0631 59.2052 36.8992 58.5 37.0633ZM52.5 36.0633C51.9361 35.6703 51.56 37.2108 51.4424 38.031C50.8783 39.6055 52.1472 39.9997 52.8525 39.9998L54.2627 38.031C54.5445 36.0631 53.2052 35.8992 52.5 36.0633ZM70.5 35.0633C69.9361 34.6703 69.56 36.2108 69.4424 37.031C68.8783 38.6055 70.1472 38.9997 70.8525 38.9998L72.2627 37.031C72.5445 35.0631 71.2052 34.8992 70.5 35.0633ZM63.5 31.0633C62.9361 30.6703 62.56 32.2108 62.4424 33.031C61.8783 34.6055 63.1472 34.9997 63.8525 34.9998L65.2627 33.031C65.5445 31.0631 64.2052 30.8992 63.5 31.0633ZM56.4131 31.9685C56.0601 33.925 57.3937 34.1381 58.1045 33.9998C58.6537 34.4125 59.0852 32.8864 59.2324 32.0711C59.8532 30.518 58.5993 30.0781 57.8945 30.0525L56.4131 31.9685ZM52.4473 29.1492C52.1347 28.5374 51.0778 29.7194 50.5879 30.3875C49.3492 31.5104 50.2822 32.4554 50.9043 32.7879L53.0762 31.7166C54.2521 30.113 53.1467 29.3366 52.4473 29.1492ZM60.5 24.0633C59.9361 23.6703 59.56 25.2108 59.4424 26.031C58.8783 27.6055 60.1472 27.9997 60.8525 27.9998L62.2627 26.031C62.5445 24.0631 61.2052 23.8992 60.5 24.0633ZM50.2725 10.8347C50.7822 9.7111 53.1095 9.66617 55.4707 10.7351L55.9043 10.9441C58.0132 12.0248 59.3031 13.6547 58.8262 14.7088L58.7734 14.8103C58.172 15.8344 55.9153 15.8436 53.627 14.8074L53.1953 14.5984C51.0863 13.5177 49.7956 11.8889 50.2725 10.8347ZM52.2061 11.4617C52.0028 11.4656 51.8581 11.4851 51.7578 11.5066C51.8077 11.5962 51.8882 11.7182 52.0195 11.8738C52.4532 12.3873 53.2227 12.9767 54.2461 13.4402C55.2699 13.9038 56.2214 14.0937 56.8936 14.0808C57.0967 14.0769 57.2406 14.0565 57.3408 14.0349C57.2909 13.9455 57.2108 13.8236 57.0801 13.6687C56.6463 13.1552 55.8761 12.5649 54.8525 12.1013C53.8291 11.638 52.8781 11.4489 52.2061 11.4617ZM62.5332 4.11892C63.7657 4.05334 64.8766 6.09855 65.0147 8.68728L65.0283 9.16775C65.0399 11.5378 64.1878 13.4334 63.0322 13.4949H62.918C61.7319 13.4326 60.6853 11.4331 60.5518 8.92458L60.5381 8.44509C60.5267 6.07562 61.378 4.18086 62.5332 4.11892ZM62.6211 5.74587C62.5646 5.83137 62.4927 5.95901 62.415 6.14724C62.1589 6.76859 61.9902 7.72363 62.0498 8.84548C62.1096 9.96748 62.3795 10.8993 62.7002 11.49C62.797 11.6682 62.8811 11.787 62.9463 11.866C63.0027 11.7805 63.0742 11.6537 63.1514 11.4666C63.4076 10.8451 63.5763 9.88936 63.5166 8.76736C63.4568 7.6454 63.1879 6.71346 62.8672 6.12283C62.7702 5.94434 62.6863 5.8249 62.6211 5.74587Z" fill="#345B77"/>
</svg>
