<svg width="245" height="80" viewBox="0 0 245 80" fill="none" xmlns="http://www.w3.org/2000/svg">
<path d="M163.321 66.2857C163.885 66.2257 164.438 66.2434 164.978 66.3394C165.53 66.4354 166.04 66.6089 166.508 66.8609C166.988 67.1129 167.366 67.4497 167.642 67.8697C167.834 68.1816 167.984 68.5596 168.092 69.0035C168.2 69.4472 168.217 69.873 168.146 70.2808C168.086 70.6408 167.96 70.8937 167.768 71.0377C167.576 71.1695 167.366 71.2228 167.138 71.1988C166.91 71.1628 166.688 71.0676 166.472 70.9117C166.268 70.7437 166.13 70.5328 166.058 70.2808C165.974 70.005 165.872 69.7529 165.752 69.525C165.632 69.285 165.445 69.0872 165.193 68.9312C164.905 68.7513 164.599 68.6495 164.275 68.6255C163.963 68.6016 163.657 68.637 163.357 68.733C163.069 68.829 162.793 68.9792 162.529 69.1832C162.277 69.3871 162.067 69.6214 161.899 69.8853C161.695 70.1853 161.54 70.5156 161.432 70.8755C161.324 71.2235 161.245 71.5893 161.197 71.9732C161.149 72.3451 161.132 72.7231 161.144 73.107C161.168 73.4789 161.215 73.8391 161.287 74.1871C161.419 74.7751 161.623 75.3273 161.899 75.8433C162.007 76.0353 162.152 76.2088 162.332 76.3648C162.524 76.5088 162.734 76.6292 162.962 76.7252C163.19 76.8091 163.43 76.8633 163.682 76.8873C163.934 76.9112 164.173 76.8935 164.401 76.8335C164.725 76.7496 164.989 76.6413 165.193 76.5093C165.397 76.3654 165.56 76.1974 165.68 76.0054C165.8 75.8135 165.878 75.6034 165.914 75.3755C165.962 75.1475 165.985 74.9068 165.985 74.6548V74.6373H165.571C165.452 74.6253 165.362 74.6197 165.302 74.6197C165.038 74.6197 164.779 74.5712 164.527 74.4752C164.312 74.4032 164.15 74.2892 164.042 74.1334C163.922 74.0014 163.861 73.839 163.861 73.647V73.4488C163.873 73.3769 163.885 73.3048 163.897 73.233C163.933 73.137 164.012 73.0175 164.132 72.8736C164.204 72.8136 164.318 72.7651 164.474 72.7291C164.546 72.7051 164.618 72.6873 164.689 72.6753C164.761 72.6514 164.846 72.6336 164.941 72.6216C165.013 72.6096 165.092 72.6031 165.176 72.6031H167.065C167.197 72.5911 167.348 72.6088 167.516 72.6568C167.696 72.6928 167.834 72.7535 167.93 72.8375C167.966 72.8853 168.001 72.9332 168.037 72.981C168.073 73.029 168.104 73.0831 168.128 73.1431C168.176 73.2751 168.206 73.4076 168.218 73.5396C168.23 73.6114 168.235 73.6892 168.235 73.773C168.247 73.845 168.254 73.9112 168.254 73.9712V74.7095C168.254 75.0694 168.235 75.4353 168.199 75.8072C168.163 76.1672 168.091 76.5217 167.983 76.8697C167.875 77.2055 167.714 77.5295 167.498 77.8414C167.282 78.1414 166.987 78.4054 166.615 78.6334C166.435 78.7532 166.22 78.8551 165.968 78.939C165.728 79.011 165.469 79.0717 165.193 79.1197C164.929 79.1796 164.665 79.2151 164.401 79.2271C164.138 79.2511 163.892 79.2576 163.664 79.2457C162.584 79.2097 161.707 78.9512 161.035 78.4712C160.375 77.9793 159.866 77.3728 159.506 76.6529C159.158 75.9329 158.929 75.153 158.821 74.313C158.725 73.4612 158.708 72.6513 158.768 71.8834C158.804 71.4274 158.882 70.9348 159.002 70.4068C159.134 69.879 159.32 69.3693 159.56 68.8775C159.812 68.3856 160.118 67.9414 160.478 67.5455C160.85 67.1495 161.288 66.8491 161.792 66.6451C162.26 66.4532 162.77 66.3337 163.321 66.2857ZM135.035 66.3033C135.119 66.3033 135.198 66.3089 135.27 66.3209C135.354 66.3209 135.432 66.3274 135.504 66.3394C135.576 66.3514 135.641 66.3758 135.701 66.4117C135.773 66.4477 135.846 66.4952 135.918 66.5552C135.99 66.6391 136.055 66.7412 136.115 66.8609C136.163 66.9929 136.193 67.1254 136.205 67.2574C136.217 67.3412 136.229 67.4189 136.241 67.4908C136.253 67.5628 136.26 67.6356 136.26 67.7076C136.236 67.7795 136.224 67.8515 136.224 67.9234V68.4449L136.151 76.9234L139.716 76.9595H140.562C140.634 76.9595 140.712 76.9651 140.796 76.9771C140.88 76.9771 140.964 76.9837 141.048 76.9957C141.144 77.0076 141.228 77.0188 141.3 77.0308C141.372 77.0428 141.444 77.0615 141.516 77.0855C141.648 77.1215 141.756 77.1812 141.84 77.2652C141.972 77.3851 142.056 77.5056 142.092 77.6255C142.116 77.6855 142.128 77.7754 142.128 77.8951V78.1656C142.128 78.2614 142.109 78.3512 142.073 78.4351C142.037 78.5191 141.99 78.5975 141.93 78.6695C141.822 78.8134 141.666 78.9217 141.462 78.9937C141.174 79.0897 140.903 79.1373 140.651 79.1373C140.519 79.1492 140.381 79.1548 140.237 79.1548C140.093 79.1549 139.95 79.167 139.806 79.191H139.733C138.809 79.203 137.855 79.203 136.871 79.191C136.631 79.179 136.361 79.179 136.062 79.191C135.762 79.215 135.468 79.2094 135.18 79.1734C134.892 79.1494 134.628 79.0831 134.388 78.9752C134.16 78.8552 133.997 78.6694 133.901 78.4175C133.877 78.3576 133.86 78.3034 133.848 78.2554C133.836 78.1954 133.829 78.1348 133.829 78.0748C133.781 77.6671 133.763 77.2654 133.775 76.8697C133.787 76.4737 133.794 76.0828 133.794 75.6988L133.829 73.0894V69.525C133.841 69.189 133.853 68.8166 133.865 68.4087V68.3189C133.877 68.1991 133.884 68.0793 133.884 67.9595C133.896 67.8395 133.901 67.7192 133.901 67.5992C133.925 67.3232 133.992 67.089 134.1 66.897C134.172 66.7171 134.298 66.5733 134.478 66.4654C134.633 66.3575 134.819 66.3033 135.035 66.3033ZM84.4219 66.1949C84.9018 66.2309 85.3516 66.3336 85.7715 66.5015C86.2035 66.6575 86.5701 66.873 86.8701 67.149C87.0621 67.317 87.2599 67.5512 87.4639 67.8511C87.6798 68.1511 87.8356 68.4571 87.9316 68.7691C88.0276 69.081 88.0276 69.375 87.9316 69.6509C87.8477 69.9149 87.6078 70.095 87.2119 70.191C87.0439 70.239 86.8937 70.2511 86.7617 70.2271C86.6297 70.1911 86.5094 70.137 86.4014 70.065C86.2935 69.981 86.1916 69.8848 86.0957 69.7769C85.9998 69.669 85.9092 69.5616 85.8252 69.4537C85.5372 69.1057 85.2014 68.8715 84.8174 68.7515C84.4335 68.6196 84.0499 68.5897 83.666 68.6617C83.294 68.7217 82.9395 68.8774 82.6035 69.1294C82.2797 69.3694 82.0276 69.6812 81.8477 70.065C81.6557 70.473 81.4999 70.9236 81.3799 71.4156C81.2719 71.8955 81.2112 72.3873 81.1992 72.8912C81.1872 73.3832 81.2292 73.8636 81.3252 74.3316C81.4332 74.7993 81.6135 75.213 81.8652 75.5728C82.0572 75.8607 82.2915 76.095 82.5674 76.275C82.8553 76.4549 83.1615 76.5809 83.4854 76.6529C83.8094 76.7249 84.134 76.737 84.458 76.689C84.7939 76.641 85.1178 76.5327 85.4297 76.3648C85.5255 76.3169 85.6276 76.2514 85.7354 76.1675C85.8553 76.0716 85.9757 75.9754 86.0957 75.8794C86.2157 75.7834 86.3361 75.6929 86.4561 75.6089C86.5879 75.5251 86.7263 75.4652 86.8701 75.4293C87.0859 75.3574 87.3196 75.363 87.5713 75.4468C87.8353 75.5308 88.034 75.7053 88.166 75.9693C88.3219 76.3172 88.3276 76.6597 88.1836 76.9957C88.0396 77.3194 87.8117 77.6192 87.5 77.8951C87.1881 78.171 86.8278 78.4108 86.4199 78.6148C86.0241 78.8187 85.646 78.9634 85.2861 79.0474C84.8901 79.1314 84.4694 79.1668 84.0254 79.1548C83.5936 79.1548 83.1557 79.1016 82.7119 78.9937C82.2799 78.8977 81.8536 78.7531 81.4336 78.5611C81.0256 78.3571 80.6478 78.1108 80.2998 77.8228C79.8799 77.4749 79.5495 77.0614 79.3096 76.5816C79.0816 76.0896 78.9137 75.5672 78.8057 75.0152C78.6977 74.4632 78.638 73.9109 78.626 73.3589C78.626 72.795 78.6437 72.2669 78.6797 71.775C78.7157 71.3311 78.8053 70.8691 78.9492 70.3892C79.0932 69.9092 79.292 69.4409 79.544 68.9849C79.8079 68.517 80.1196 68.0849 80.4795 67.689C80.8514 67.2931 81.2835 66.9572 81.7754 66.6812C82.1474 66.4652 82.5616 66.3216 83.0176 66.2496C83.4856 66.1656 83.9539 66.1469 84.4219 66.1949ZM114.113 66.0875C114.293 66.0515 114.473 66.0515 114.653 66.0875C114.833 66.1234 114.989 66.1953 115.121 66.3033C115.157 66.3393 115.193 66.3813 115.229 66.4293C115.265 66.4772 115.295 66.5314 115.319 66.5914C115.379 66.7473 115.416 66.8855 115.428 67.0054C115.464 67.1733 115.481 67.3237 115.481 67.4556V72.0455C115.493 73.6054 115.506 75.1354 115.518 76.6353C115.518 76.8033 115.523 76.9712 115.535 77.1392C115.547 77.2952 115.547 77.4575 115.535 77.6255C115.523 77.8294 115.493 78.0452 115.445 78.273C115.409 78.501 115.296 78.6876 115.104 78.8316C114.96 78.9515 114.797 79.0234 114.617 79.0474C114.437 79.0714 114.257 79.0593 114.077 79.0113C113.909 78.9753 113.748 78.9154 113.592 78.8316C113.436 78.7356 113.309 78.6208 113.213 78.4888C112.805 77.985 112.427 77.4688 112.079 76.941C111.743 76.4011 111.402 75.8608 111.054 75.3209L109.541 73.0357C109.337 72.7118 109.121 72.3515 108.894 71.9556C108.666 71.5476 108.431 71.1689 108.191 70.8209L108.138 77.6968V77.8589C108.138 78.0509 108.101 78.2431 108.029 78.4351C107.969 78.6151 107.861 78.7709 107.705 78.9029C107.585 78.9989 107.429 79.0651 107.237 79.1011C106.937 79.1611 106.685 79.1434 106.481 79.0474C106.289 78.9514 106.134 78.8189 106.014 78.6509C105.906 78.4829 105.827 78.2907 105.779 78.0748C105.743 77.8469 105.738 77.6246 105.762 77.4087V77.1031L105.798 75.6988L105.815 73.0894C105.827 72.7055 105.833 72.3154 105.833 71.9195V70.6773C105.821 70.1614 105.821 69.6155 105.833 69.0396C105.857 68.4637 105.881 67.9234 105.905 67.4195C105.929 67.1435 105.996 66.9093 106.104 66.7173C106.152 66.5494 106.278 66.4057 106.481 66.2857C106.613 66.2017 106.781 66.1476 106.985 66.1236C107.201 66.0996 107.387 66.1052 107.543 66.1412C107.603 66.1652 107.664 66.195 107.724 66.231C107.784 66.255 107.843 66.2849 107.903 66.3209C107.963 66.3689 108.017 66.4174 108.065 66.4654C108.125 66.5134 108.18 66.5675 108.228 66.6275C108.287 66.6874 108.342 66.7529 108.39 66.8248C108.438 66.8848 108.485 66.9454 108.533 67.0054C108.569 67.0774 108.606 67.1437 108.642 67.2037C108.678 67.2635 108.72 67.3235 108.768 67.3834L108.966 67.6714L113.123 74.2232V73.0357C113.123 72.6517 113.117 72.2608 113.105 71.8648C113.105 71.4569 113.099 71.0369 113.087 70.605V68.9849C113.099 68.409 113.118 67.8687 113.142 67.3648C113.142 67.161 113.201 66.9273 113.321 66.6636C113.381 66.5078 113.483 66.3817 113.627 66.2857C113.771 66.1897 113.933 66.1235 114.113 66.0875ZM100.553 66.1773C100.649 66.1773 100.733 66.1829 100.805 66.1949C100.889 66.1949 100.961 66.2014 101.021 66.2134C101.189 66.2374 101.327 66.3093 101.435 66.4293C101.531 66.4893 101.597 66.5853 101.633 66.7173C101.657 66.7893 101.675 66.8612 101.687 66.9332C101.711 66.9932 101.735 67.0594 101.759 67.1314C101.771 67.2152 101.776 67.293 101.776 67.3648V68.3189L101.669 77.6617V77.8414C101.669 77.9134 101.65 78.0217 101.614 78.1656C101.602 78.2254 101.584 78.2911 101.561 78.3628C101.537 78.4228 101.512 78.4891 101.488 78.5611C101.428 78.7051 101.344 78.8133 101.236 78.8853C101.14 78.9812 100.984 79.0476 100.769 79.0835C100.433 79.1555 100.127 79.1256 99.8506 78.9937C99.6946 78.8977 99.5864 78.7773 99.5264 78.6334C99.5024 78.6094 99.4791 78.5729 99.4551 78.525C99.455 78.501 99.4427 78.4652 99.419 78.4175C99.395 78.3575 99.3763 78.2969 99.3643 78.2369C99.3523 78.165 99.3411 78.0929 99.3291 78.021C99.3291 77.9611 99.3225 77.9013 99.3106 77.8414C99.3106 77.7815 99.3049 77.7215 99.293 77.6617C99.269 77.6017 99.2568 77.5531 99.2568 77.5171V77.355C99.2807 77.307 99.293 77.2171 99.293 77.0855L99.3106 75.6636L99.3291 73.3951H98.3565L94.7022 73.4136L94.667 77.6617V77.8414C94.667 77.9134 94.6483 78.0217 94.6123 78.1656C94.6003 78.2254 94.5825 78.2911 94.5586 78.3628C94.5346 78.4228 94.5103 78.4891 94.4863 78.5611C94.4263 78.7051 94.3424 78.8133 94.2344 78.8853C94.1384 78.9812 93.9825 79.0476 93.7666 79.0835C93.4307 79.1555 93.1246 79.1256 92.8486 78.9937C92.7287 78.9217 92.6148 78.8013 92.5068 78.6334C92.4828 78.5854 92.4707 78.549 92.4707 78.525L92.417 78.4175C92.393 78.3575 92.3743 78.2969 92.3623 78.2369C92.3503 78.165 92.3382 78.0929 92.3262 78.021C92.3262 77.9611 92.3206 77.9013 92.3086 77.8414C92.2966 77.7815 92.2844 77.7215 92.2725 77.6617C92.2605 77.5657 92.2605 77.463 92.2725 77.355V77.0855L92.291 75.6636L92.3262 73.0171C92.3382 72.6333 92.3447 72.2375 92.3447 71.8296V70.5689C92.3327 70.1372 92.3262 69.7534 92.3262 69.4175C92.3382 69.0815 92.3569 68.7028 92.3809 68.2828V68.2115C92.3929 68.0915 92.3984 67.9711 92.3984 67.8511C92.3984 67.7193 92.405 67.5875 92.417 67.4556C92.429 67.3356 92.4467 67.2208 92.4707 67.1128C92.5067 66.9931 92.5544 66.8732 92.6143 66.7535C92.6503 66.6575 92.6988 66.5791 92.7588 66.5191C92.8188 66.4472 92.8907 66.3808 92.9746 66.3209C93.1666 66.2249 93.3588 66.1773 93.5508 66.1773C93.6467 66.1773 93.7308 66.1829 93.8027 66.1949C93.8747 66.1949 93.9466 66.2014 94.0186 66.2134C94.1626 66.2254 94.3006 66.2973 94.4326 66.4293C94.5286 66.5132 94.5949 66.6093 94.6309 66.7173C94.6908 66.8733 94.7263 67.0114 94.7383 67.1314C94.7503 67.2152 94.7568 67.293 94.7568 67.3648V68.3189L94.7207 71.2896H95.0449C95.1767 71.2896 95.3265 71.283 95.4941 71.271C96.1181 71.271 96.7366 71.2776 97.3486 71.2896C97.9726 71.3016 98.6266 71.3072 99.3106 71.3072H99.3291V69.7593C99.3411 69.2674 99.3588 68.7514 99.3828 68.2115V67.8511C99.3948 67.7193 99.407 67.5875 99.419 67.4556C99.431 67.3356 99.4487 67.2208 99.4727 67.1128C99.5086 66.9931 99.5564 66.8732 99.6162 66.7535C99.6402 66.6576 99.6823 66.5791 99.7422 66.5191C99.8141 66.4471 99.8982 66.3808 99.9941 66.3209C100.162 66.2249 100.349 66.1773 100.553 66.1773ZM70.9609 66.2496C71.3929 66.2496 71.837 66.2551 72.293 66.2671H72.3652C72.497 66.2791 72.6347 66.2857 72.7783 66.2857C72.9222 66.2857 73.0605 66.2913 73.1924 66.3033C73.3244 66.3033 73.4569 66.321 73.5889 66.357C73.7208 66.381 73.8525 66.4174 73.9844 66.4654C74.1882 66.5253 74.3563 66.6272 74.4883 66.771C74.5962 66.939 74.6503 67.107 74.6504 67.275V67.4908C74.6504 67.5508 74.6392 67.6114 74.6152 67.6714C74.6032 67.7914 74.5304 67.9174 74.3984 68.0494C74.3505 68.0733 74.2962 68.1033 74.2363 68.1392C74.1884 68.1751 74.1285 68.2051 74.0566 68.2291C73.9848 68.253 73.907 68.2708 73.8232 68.2828C73.7512 68.2828 73.6785 68.2893 73.6065 68.3013C73.5106 68.3253 73.4208 68.3374 73.3369 68.3375H72.2744L68.6748 68.355V68.4087L68.6387 71.2349H69.3584C69.8504 71.2229 70.2889 71.2173 70.6729 71.2173C71.0568 71.2173 71.4832 71.2229 71.9512 71.2349H72.041C72.1849 71.2349 72.3232 71.2415 72.4551 71.2535H72.8691C73.013 71.2655 73.1513 71.2888 73.2832 71.3248C73.4151 71.3487 73.5468 71.3796 73.6787 71.4156C73.8826 71.4875 74.0507 71.595 74.1826 71.7388C74.3026 71.8948 74.3623 72.0693 74.3623 72.2613V72.4771C74.3623 72.5491 74.3511 72.6154 74.3272 72.6753C74.3031 72.8073 74.2248 72.9277 74.0928 73.0357C74.0327 73.1195 73.9187 73.1794 73.751 73.2154C73.5951 73.2633 73.4391 73.2932 73.2832 73.3052C73.1152 73.3412 72.9463 73.3589 72.7783 73.3589H71.9326L68.6025 73.3775L68.5664 76.9048L72.1484 76.941H73.2647C73.3487 76.941 73.427 76.9475 73.499 76.9595C73.5949 76.9835 73.6791 77.0012 73.751 77.0132C73.8348 77.0133 73.9125 77.0255 73.9844 77.0494C74.1284 77.0974 74.2487 77.1636 74.3447 77.2476C74.4646 77.3676 74.5431 77.4936 74.5791 77.6255C74.591 77.6853 74.5967 77.7511 74.5967 77.8228C74.6087 77.8828 74.6087 77.9491 74.5967 78.021C74.5967 78.213 74.537 78.3875 74.417 78.5435C74.2731 78.7114 74.1049 78.8187 73.9131 78.8668C73.6611 78.9747 73.3849 79.0288 73.085 79.0289C72.953 79.0409 72.8149 79.0474 72.6709 79.0474C72.5269 79.0474 72.3888 79.053 72.2568 79.065H72.1484C71.2125 79.089 70.2403 79.089 69.2324 79.065C68.9929 79.065 68.8011 79.0594 68.6572 79.0474H67.4512C67.1752 79.0714 66.9466 79.0229 66.7666 78.9029C66.6347 78.8189 66.5329 78.705 66.4609 78.5611C66.4251 78.5252 66.4074 78.4895 66.4072 78.4537C66.3952 78.4297 66.3831 78.411 66.3711 78.399C66.3591 78.387 66.3469 78.3692 66.335 78.3453C66.311 78.2854 66.2933 78.2254 66.2813 78.1656C66.2693 78.0936 66.2627 78.0273 66.2627 77.9673C66.2507 77.9075 66.2385 77.8475 66.2266 77.7877C66.2266 77.7276 66.221 77.667 66.209 77.607V77.1753C66.221 77.1273 66.2266 77.0788 66.2266 77.0308V75.6275L66.2627 73.0357V69.4888C66.2747 69.1529 66.2868 68.787 66.2988 68.3912V68.3013C66.3108 68.1693 66.3164 68.049 66.3164 67.941C66.3284 67.8212 66.335 67.7014 66.335 67.5816C66.347 67.3416 66.4132 67.1074 66.5332 66.8794C66.5812 66.7835 66.6288 66.6995 66.6768 66.6275C66.7368 66.5555 66.8151 66.4948 66.9111 66.4468C67.091 66.339 67.2769 66.2857 67.4688 66.2857C67.5646 66.2857 67.6366 66.2913 67.6846 66.3033V66.2857H68.999C69.143 66.2737 69.3409 66.2671 69.5928 66.2671C70.0728 66.2551 70.5289 66.2496 70.9609 66.2496ZM173.408 66.2134C173.54 66.2134 173.654 66.2377 173.75 66.2857C173.846 66.3336 173.942 66.3869 174.038 66.4468C174.146 66.5308 174.249 66.6213 174.345 66.7173C174.453 66.8133 174.549 66.9151 174.633 67.023C174.729 67.1429 174.818 67.2569 174.902 67.3648C174.986 67.4608 175.07 67.5756 175.154 67.7076L175.208 67.7789C175.496 68.1629 175.767 68.5351 176.019 68.8951C176.271 69.243 176.535 69.6209 176.811 70.0289C176.835 70.0529 176.87 70.1014 176.918 70.1734C176.966 70.2454 177.02 70.3294 177.08 70.4253C177.128 70.3415 177.17 70.2695 177.206 70.2095C177.254 70.1375 177.29 70.089 177.314 70.065C177.59 69.6572 177.855 69.2735 178.106 68.9136C178.358 68.5537 178.628 68.1813 178.916 67.7974L178.952 67.7252C179.048 67.6171 179.132 67.5089 179.204 67.4009C179.288 67.281 179.379 67.1615 179.475 67.0416C179.631 66.8256 179.84 66.639 180.104 66.483C180.296 66.3511 180.494 66.267 180.698 66.231C180.926 66.207 181.124 66.2556 181.292 66.3755C181.364 66.4235 181.43 66.4655 181.49 66.5015C181.562 66.5375 181.622 66.5795 181.67 66.6275C181.766 66.7354 181.844 66.8671 181.904 67.023C181.916 67.083 181.916 67.1437 181.904 67.2037C181.904 67.2635 181.886 67.3292 181.851 67.4009C181.803 67.5689 181.748 67.7192 181.688 67.8511C181.616 68.0191 181.526 68.1628 181.418 68.2828C181.37 68.3548 181.322 68.4276 181.274 68.4996C181.238 68.5595 181.202 68.6193 181.166 68.6793L180.933 68.9849L178.628 72.315L178.214 72.8375V77.6255C178.19 77.6854 178.179 77.7454 178.179 77.8052C178.179 77.8652 178.172 77.9315 178.16 78.0035C178.136 78.0634 178.118 78.1233 178.106 78.1832C178.094 78.2311 178.077 78.2853 178.053 78.3453C178.029 78.3933 178.017 78.4297 178.017 78.4537C178.005 78.4775 177.992 78.4954 177.98 78.5074C177.98 78.5194 177.974 78.5372 177.962 78.5611C177.89 78.6811 177.788 78.7893 177.656 78.8853C177.392 79.0173 177.092 79.0471 176.756 78.9752C176.564 78.9511 176.42 78.8913 176.324 78.7955C176.264 78.7595 176.217 78.7173 176.181 78.6695C176.145 78.6215 176.108 78.5673 176.072 78.5074C176.048 78.4354 176.024 78.3691 176 78.3091C175.976 78.2493 175.958 78.1893 175.946 78.1294C175.922 78.0695 175.91 78.0153 175.91 77.9673V72.8912L175.515 72.2789L173.175 68.9673L172.977 68.6431C172.905 68.5351 172.814 68.4092 172.706 68.2652C172.61 68.1333 172.526 67.9894 172.454 67.8335C172.406 67.7615 172.364 67.6888 172.328 67.6168C172.304 67.5329 172.28 67.4486 172.256 67.3648C172.22 67.245 172.214 67.1252 172.238 67.0054C172.274 66.8494 172.346 66.7169 172.454 66.6089C172.574 66.501 172.7 66.417 172.832 66.357C173 66.237 173.192 66.1895 173.408 66.2134ZM58.5664 66.2496C59.2624 66.2496 59.9527 66.2617 60.6367 66.2857C60.7924 66.2977 60.9422 66.3155 61.0859 66.3394C61.2299 66.3634 61.3746 66.4054 61.5186 66.4654C61.6264 66.5013 61.7284 66.549 61.8242 66.6089C61.9202 66.6569 61.9986 66.7232 62.0586 66.8072C62.1905 66.9632 62.2568 67.1255 62.2568 67.2935C62.2568 67.3653 62.2502 67.4431 62.2383 67.5269C62.2383 67.5989 62.2327 67.6652 62.2207 67.7252C62.1847 67.8571 62.1063 67.9831 61.9863 68.1031C61.8904 68.175 61.7586 68.2292 61.5908 68.2652C61.5068 68.2892 61.4219 68.3069 61.3379 68.3189C61.254 68.3309 61.1642 68.3496 61.0684 68.3736C60.9844 68.3856 60.9004 68.3912 60.8164 68.3912H59.6279C59.4121 68.4031 59.1963 68.4087 58.9805 68.4087H58.3682C58.3802 68.7806 58.3867 69.183 58.3867 69.6148C58.3867 70.0348 58.3802 70.5274 58.3682 71.0914C58.3682 71.6553 58.3626 72.3093 58.3506 73.0533V77.0132C58.3506 77.1329 58.3562 77.2228 58.3682 77.2828V77.4273C58.3682 77.4632 58.3625 77.5111 58.3506 77.5709C58.3266 77.6788 58.3079 77.8049 58.2959 77.9488C58.2959 78.0088 58.2903 78.0694 58.2783 78.1294C58.2663 78.1774 58.2486 78.2316 58.2246 78.2916C58.1768 78.3394 58.1525 78.375 58.1524 78.399L58.0986 78.5074C58.0387 78.6273 57.9246 78.7412 57.7568 78.8492C57.4928 78.9812 57.198 79.011 56.874 78.939C56.6702 78.915 56.5142 78.8609 56.4063 78.7769C56.2984 78.669 56.2199 78.5615 56.1719 78.4537C56.0999 78.3217 56.0579 78.1948 56.0459 78.0748C56.01 77.9669 55.9922 77.8528 55.9922 77.733V68.481H54.8047C54.5527 68.469 54.312 68.4569 54.084 68.4449C53.8562 68.4329 53.7002 68.4207 53.6162 68.4087C53.5442 68.3967 53.4302 68.379 53.2744 68.355C53.1304 68.331 53.0101 68.3068 52.9141 68.2828C52.6623 68.2108 52.4642 68.0969 52.3203 67.941C52.1885 67.7851 52.1221 67.6113 52.1221 67.4195V67.2037C52.1221 67.1318 52.1343 67.0654 52.1582 67.0054C52.1942 66.8614 52.2903 66.7411 52.4463 66.6451C52.4943 66.6091 52.5662 66.5671 52.6621 66.5191C52.7701 66.4591 52.8728 66.4171 52.9688 66.3931C53.1127 66.3452 53.293 66.3097 53.5088 66.2857C53.6045 66.2737 53.7002 66.2672 53.7959 66.2671H55.29C55.674 66.2671 56.0762 66.2616 56.4961 66.2496C57.1921 66.2376 57.8824 66.2376 58.5664 66.2496ZM124.877 66.2857C125.537 66.3217 126.126 66.4896 126.642 66.7896C127.157 67.0776 127.595 67.4676 127.955 67.9595C128.327 68.4514 128.627 69.003 128.855 69.6148C129.035 70.0708 129.174 70.5512 129.27 71.0552C129.366 71.5591 129.42 72.063 129.432 72.5669C129.456 73.0589 129.437 73.545 129.377 74.025C129.329 74.5049 129.245 74.949 129.125 75.357C129.053 75.6329 128.969 75.8849 128.873 76.1128C128.777 76.3408 128.663 76.5694 128.531 76.7974C128.231 77.3133 127.841 77.7332 127.361 78.0572C126.893 78.3811 126.377 78.6088 125.813 78.7408C125.429 78.8368 125.033 78.8853 124.625 78.8853C124.217 78.8733 123.815 78.8192 123.419 78.7232C123.023 78.6152 122.639 78.4649 122.268 78.273C121.908 78.069 121.577 77.8171 121.277 77.5171C120.905 77.1572 120.599 76.7429 120.359 76.275C120.119 75.795 119.934 75.2967 119.802 74.7808C119.67 74.2529 119.586 73.7247 119.55 73.1968C119.514 72.669 119.514 72.165 119.55 71.6851C119.586 71.2412 119.67 70.7672 119.802 70.2632C119.946 69.7593 120.149 69.2732 120.413 68.8052C120.677 68.3373 120.995 67.9174 121.367 67.5455C121.751 67.1615 122.195 66.8732 122.699 66.6812C123.503 66.3813 124.229 66.2498 124.877 66.2857ZM150.185 66.2857C150.845 66.3217 151.433 66.4896 151.949 66.7896C152.465 67.0776 152.903 67.4676 153.263 67.9595C153.635 68.4514 153.935 69.003 154.163 69.6148C154.343 70.0708 154.481 70.5512 154.577 71.0552C154.673 71.5591 154.727 72.0631 154.739 72.5669C154.763 73.0589 154.745 73.545 154.685 74.025C154.637 74.5049 154.553 74.949 154.433 75.357C154.361 75.6329 154.277 75.8849 154.181 76.1128C154.085 76.3408 153.971 76.5694 153.839 76.7974C153.539 77.3133 153.149 77.7332 152.669 78.0572C152.201 78.3811 151.685 78.6088 151.121 78.7408C150.737 78.8368 150.341 78.8853 149.933 78.8853C149.525 78.8733 149.122 78.8192 148.727 78.7232C148.331 78.6152 147.947 78.4649 147.575 78.273C147.215 78.069 146.885 77.8171 146.585 77.5171C146.213 77.1572 145.907 76.7429 145.667 76.275C145.427 75.795 145.241 75.2967 145.109 74.7808C144.977 74.2529 144.893 73.7247 144.857 73.1968C144.821 72.669 144.821 72.165 144.857 71.6851C144.893 71.2412 144.977 70.7672 145.109 70.2632C145.253 69.7593 145.457 69.2732 145.721 68.8052C145.985 68.3373 146.303 67.9174 146.675 67.5455C147.059 67.1615 147.503 66.8732 148.007 66.6812C148.811 66.3813 149.537 66.2498 150.185 66.2857ZM13.2246 18.6509C17.766 16.7309 22.8383 16.4696 27.5527 17.9136C32.2669 19.3576 36.3228 22.4145 39.0098 26.5484C41.6967 30.6826 42.8437 35.6313 42.249 40.5259C41.6543 45.4203 39.3563 49.9495 35.7578 53.3199C32.159 56.6903 27.4885 58.6874 22.5654 58.9605C18.8907 59.1643 15.2497 58.3983 11.9971 56.7691L11.3525 56.4312C9.89863 55.6386 9.63465 53.7381 10.626 52.4117C11.6175 51.0857 13.4887 50.8461 14.9854 51.5543C17.2313 52.6169 19.7214 53.1115 22.2334 52.9722C25.7505 52.7771 29.0872 51.3508 31.6582 48.9429C34.2291 46.535 35.871 43.299 36.2959 39.8023C36.7207 36.3055 35.901 32.7704 33.9815 29.8169C32.0618 26.8635 29.1639 24.6796 25.7959 23.648C22.4279 22.6165 18.804 22.8027 15.5596 24.1744C12.3153 25.5462 9.65723 28.0162 8.05079 31.1509L7.8418 31.5728C6.83526 33.6988 6.34793 36.0215 6.40333 38.3502C6.41123 38.6823 6.37568 39.0126 6.30469 39.3316L6.39063 74.9781L6.38673 75.1324C6.31012 76.7176 5.00252 77.9821 3.39747 77.9859C1.79249 77.9896 0.478708 76.7318 0.394538 75.147L0.390632 74.9927L0.301765 37.9927C0.301121 37.7003 0.343455 37.4174 0.420906 37.15C0.542369 34.1283 1.31398 31.1455 2.7129 28.4156C4.96154 24.0276 8.68325 20.571 13.2246 18.6509ZM124.607 68.5533C124.247 68.5533 123.845 68.6615 123.401 68.8775C123.137 69.0095 122.91 69.1896 122.718 69.4175C122.538 69.6455 122.388 69.9031 122.268 70.191C122.16 70.479 122.069 70.7794 121.997 71.0914C121.937 71.4031 121.902 71.703 121.89 71.9908C121.866 72.3027 121.859 72.6331 121.871 72.981C121.883 73.317 121.919 73.6594 121.979 74.0074C122.051 74.3433 122.148 74.6671 122.268 74.9791C122.388 75.2791 122.549 75.5496 122.753 75.7896C123.065 76.1495 123.425 76.4014 123.833 76.5455C124.253 76.6774 124.667 76.6951 125.075 76.5992C125.735 76.4552 126.239 76.0174 126.587 75.2857C126.731 75.0217 126.839 74.7213 126.911 74.3853C127.055 73.8213 127.116 73.1851 127.092 72.4771C127.068 71.7691 126.953 71.103 126.749 70.4791C126.617 70.0952 126.449 69.7592 126.245 69.4712C126.053 69.1713 125.819 68.9436 125.543 68.7877C125.279 68.6317 124.967 68.5533 124.607 68.5533ZM149.915 68.5533C149.555 68.5533 149.153 68.6615 148.709 68.8775C148.445 69.0095 148.217 69.1896 148.025 69.4175C147.845 69.6455 147.695 69.9031 147.575 70.191C147.467 70.479 147.377 70.7794 147.305 71.0914C147.245 71.4031 147.209 71.703 147.197 71.9908C147.173 72.3027 147.167 72.6331 147.179 72.981C147.191 73.317 147.227 73.6594 147.287 74.0074C147.359 74.3433 147.455 74.6671 147.575 74.9791C147.695 75.2791 147.857 75.5496 148.061 75.7896C148.372 76.1495 148.733 76.4015 149.141 76.5455C149.561 76.6774 149.975 76.6951 150.383 76.5992C151.043 76.4552 151.547 76.0174 151.895 75.2857C152.039 75.0217 152.147 74.7213 152.219 74.3853C152.363 73.8213 152.423 73.1851 152.399 72.4771C152.375 71.7691 152.261 71.103 152.057 70.4791C151.925 70.0952 151.757 69.7592 151.553 69.4712C151.361 69.1713 151.127 68.9436 150.851 68.7877C150.587 68.6317 150.275 68.5533 149.915 68.5533ZM67.4024 15.9927C79.5525 15.9927 89.4021 25.8427 89.4024 37.9927C89.4024 50.143 79.5526 59.9927 67.4024 59.9927C55.2521 59.9927 45.4024 50.143 45.4024 37.9927C45.4026 25.8427 55.2523 15.9927 67.4024 15.9927ZM175.901 8.02593C178.954 1.25714 183.792 -0.624928 185.368 0.15972C181.041 4.04099 181.763 9.45842 182.664 11.6822C186.559 7.80126 190.778 10.065 192.401 11.6822C189.856 11.1786 185.272 11.9298 184.037 17.7535C191.895 21.1102 197.402 28.9079 197.402 37.9927C197.402 50.1429 187.553 59.9927 175.402 59.9927C163.252 59.9927 153.402 50.1429 153.402 37.9927C153.402 28.5591 159.341 20.5129 167.683 17.3863C166.336 11.8982 161.893 11.1894 159.402 11.6822C161.025 10.065 165.245 7.80117 169.14 11.6822C170.041 9.45831 170.762 4.04096 166.435 0.15972C168.01 -0.625243 172.848 1.257 175.901 8.02593ZM223.402 16.9937C235 16.9937 244.402 26.3957 244.402 37.9937C244.402 49.5915 235 58.9937 223.402 58.9937C211.805 58.9937 202.403 49.5915 202.402 37.9937C202.402 26.3957 211.804 16.9937 223.402 16.9937ZM132.902 16.9937C140.91 16.9937 147.402 23.4856 147.402 31.4937V54.9937C147.402 56.6503 146.059 57.9937 144.402 57.9937C142.746 57.9937 141.403 56.6503 141.402 54.9937V31.4937C141.402 26.7993 137.597 22.9937 132.902 22.9937C128.208 22.9937 124.402 26.7993 124.402 31.4937V54.9937C124.402 56.6503 123.059 57.9937 121.402 57.9937C119.746 57.9937 118.403 56.6503 118.402 54.9937V31.4937C118.402 26.7993 114.597 22.9937 109.902 22.9937C105.208 22.9937 101.402 26.7993 101.402 31.4937V54.9937C101.402 56.6503 100.059 57.9937 98.4024 57.9937C96.7457 57.9937 95.4026 56.6503 95.4024 54.9937V31.4937C95.4024 23.4856 101.894 16.9937 109.902 16.9937C114.587 16.9937 118.751 19.2152 121.402 22.6617C124.053 19.2152 128.218 16.9937 132.902 16.9937ZM68.457 53.774C67.9243 55.6895 69.2317 56.0246 69.9522 55.9527C70.4609 56.4156 71.0327 54.9356 71.2549 54.1373C72.0169 52.6482 70.8078 52.0942 70.1084 52.0035L68.457 53.774ZM184.984 20.148C184.64 19.9871 184.223 20.1099 184.023 20.4429C183.824 20.7762 183.914 21.2022 184.219 21.4293L184.282 21.4712L184.778 21.7789C187.233 23.3495 189.301 25.4587 190.824 27.9488C192.449 30.6048 193.405 33.6156 193.61 36.7222C193.803 39.6348 193.331 42.5507 192.232 45.2496L192.004 45.7867C190.743 48.6336 188.81 51.1328 186.372 53.0689C186.048 53.3265 185.995 53.7984 186.252 54.1226C186.51 54.4466 186.981 54.5002 187.306 54.2427C189.934 52.1558 192.017 49.4627 193.376 46.3941L193.621 45.815C194.805 42.9059 195.315 39.763 195.107 36.6236C194.886 33.2747 193.855 30.0287 192.104 27.1656C190.462 24.4815 188.232 22.2082 185.587 20.5152L185.053 20.1841L184.984 20.148ZM63.6006 50.0562C63.0366 49.6632 62.6605 51.2049 62.543 52.025C61.979 53.5993 63.2479 53.9936 63.9531 53.9937L65.3643 52.025C65.6463 50.0566 64.3058 49.8922 63.6006 50.0562ZM223.402 22.9937C215.118 22.9937 208.402 29.7094 208.402 37.9937C208.403 46.2777 215.118 52.9937 223.402 52.9937C231.686 52.9937 238.402 46.2778 238.402 37.9937C238.402 29.7094 231.687 22.9937 223.402 22.9937ZM80.7051 49.2056C80.4467 48.5682 79.2908 49.6554 78.7451 50.2789C77.4144 51.2912 78.2634 52.3133 78.8545 52.6978L81.1104 51.8169C82.42 50.3207 81.3857 49.4526 80.7051 49.2056ZM75.0635 46.0396C74.6075 45.5254 73.88 46.9351 73.5732 47.7046C72.6554 49.1027 73.7969 49.7842 74.4824 49.9498L76.3154 48.3668C77.0515 46.5198 75.7875 46.0457 75.0635 46.0396ZM67.6006 45.0562C67.0366 44.6632 66.6605 46.2049 66.543 47.025C65.979 48.5993 67.2479 48.9936 67.9531 48.9937L69.3643 47.025C69.6463 45.0566 68.3058 44.8922 67.6006 45.0562ZM56.6006 44.0562C56.0366 43.6632 55.6605 45.2049 55.543 46.025C54.979 47.5993 56.2479 47.9936 56.9531 47.9937L58.3643 46.025C58.6463 44.0566 57.3058 43.8922 56.6006 44.0562ZM63.9727 44.5601C62.9054 42.8828 61.7821 43.6308 61.3535 44.2144C60.6693 44.2831 61.3873 45.698 61.832 46.397C62.4289 47.9588 63.6481 47.4322 64.1836 46.9732L63.9727 44.5601ZM51.6006 42.0562C51.0366 41.6632 50.6605 43.2049 50.543 44.025C49.979 45.5993 51.2479 45.9936 51.9531 45.9937L53.3643 44.025C53.6463 42.0566 52.3058 41.8922 51.6006 42.0562ZM73.1211 41.0455C72.6803 40.5174 71.9111 41.9062 71.582 42.6666C70.6243 44.0371 71.7454 44.7506 72.4258 44.9361L74.3037 43.4078C75.0931 41.5834 73.8447 41.0729 73.1211 41.0455ZM65.6006 38.0562C65.0366 37.6632 64.6605 39.2049 64.543 40.025C63.979 41.5993 65.2479 41.9936 65.9531 41.9937L67.3643 40.025C67.6463 38.0566 66.3058 37.8922 65.6006 38.0562ZM58.6006 37.0562C58.0366 36.6632 57.6605 38.2049 57.543 39.025C56.979 40.5993 58.2479 40.9936 58.9531 40.9937L60.3643 39.025C60.6463 37.0566 59.3058 36.8922 58.6006 37.0562ZM52.6006 36.0562C52.0366 35.6632 51.6605 37.2049 51.543 38.025C50.979 39.5993 52.2479 39.9936 52.9531 39.9937L54.3643 38.025C54.6463 36.0566 53.3058 35.8922 52.6006 36.0562ZM70.6006 35.0562C70.0366 34.6632 69.6605 36.2049 69.543 37.025C68.979 38.5993 70.2479 38.9936 70.9531 38.9937L72.3643 37.025C72.6463 35.0566 71.3058 34.8922 70.6006 35.0562ZM63.6006 31.0562C63.0366 30.6632 62.6605 32.2049 62.543 33.025C61.979 34.5993 63.2479 34.9936 63.9531 34.9937L65.3643 33.025C65.6463 31.0566 64.3058 30.8922 63.6006 31.0562ZM56.5147 31.9615C56.1616 33.9181 57.4943 34.131 58.2051 33.9927C58.7545 34.4062 59.1858 32.8794 59.333 32.064C59.9538 30.5108 58.6999 30.071 57.9951 30.0455L56.5147 31.9615ZM52.5488 29.1431C52.2365 28.5303 51.1784 29.7133 50.6885 30.3814C49.4497 31.5045 50.3828 32.4495 51.0049 32.7818L53.1768 31.7095C54.3523 30.1064 53.2482 29.3308 52.5488 29.1431ZM60.6006 24.0562C60.0366 23.6632 59.6605 25.2049 59.543 26.025C58.979 27.5993 60.2479 27.9936 60.9531 27.9937L62.3643 26.025C62.6463 24.0566 61.3058 23.8922 60.6006 24.0562ZM50.3731 10.8287C50.8825 9.70477 53.21 9.65907 55.5713 10.7281L56.0049 10.9371C58.1138 12.0178 59.4036 13.6476 58.9268 14.7017L58.874 14.8033C58.2727 15.8275 56.0159 15.8366 53.7275 14.8003L53.2959 14.5914C51.1872 13.5108 49.8966 11.8828 50.3731 10.8287ZM52.3066 11.4546C52.1034 11.4585 51.9587 11.478 51.8584 11.4996C51.9083 11.5891 51.9888 11.7111 52.1201 11.8668C52.5538 12.3803 53.3232 12.9706 54.3467 13.4341C55.3704 13.8977 56.3221 14.0866 56.9941 14.0738C57.1973 14.0699 57.3412 14.0494 57.4414 14.0279C57.3915 13.9385 57.3111 13.8172 57.1807 13.6627C56.7469 13.1491 55.9766 12.5588 54.9531 12.0953C53.9297 11.6319 52.9787 11.4419 52.3066 11.4546ZM62.6338 4.11187C63.8662 4.04629 64.9772 6.0916 65.1152 8.68023L65.1289 9.1607C65.1404 11.5307 64.2884 13.4263 63.1328 13.4878H63.0186C61.8326 13.4255 60.786 11.4268 60.6524 8.91851L60.6387 8.43902C60.6272 6.0694 61.4785 4.17381 62.6338 4.11187ZM62.7217 5.73882C62.6651 5.82431 62.5933 5.95198 62.5156 6.14019C62.2594 6.76153 62.0908 7.71652 62.1504 8.83843C62.2101 9.96045 62.4801 10.8922 62.8008 11.483C62.8976 11.6611 62.9817 11.7799 63.0469 11.8589C63.1033 11.7734 63.1748 11.6466 63.252 11.4595C63.5082 10.838 63.6769 9.88235 63.6172 8.76031C63.5574 7.63836 63.2885 6.7064 62.9678 6.11578C62.8708 5.93733 62.7869 5.81782 62.7217 5.73882Z" fill="black"/>
</svg>
