<svg width="245" height="78" viewBox="0 0 245 78" fill="none" xmlns="http://www.w3.org/2000/svg">
<path d="M13.2246 18.658C17.7661 16.7379 22.8383 16.4766 27.5527 17.9207C32.267 19.3647 36.3228 22.4215 39.0098 26.5554C41.6967 30.6897 42.8437 35.6383 42.249 40.533C41.6543 45.4274 39.3563 49.9565 35.7578 53.3269C32.159 56.6974 27.4885 58.6945 22.5654 58.9676C18.8907 59.1714 15.2497 58.4054 11.9971 56.7761L11.3525 56.4383C9.89852 55.6457 9.63462 53.7452 10.626 52.4187C11.6175 51.0926 13.4886 50.8531 14.9854 51.5613C17.2313 52.624 19.7214 53.1186 22.2334 52.9793C25.7505 52.7841 29.0872 51.3579 31.6582 48.95C34.2291 46.5421 35.871 43.3061 36.2959 39.8093C36.7208 36.3125 35.9011 32.7776 33.9815 29.824C32.0618 26.8705 29.164 24.6867 25.7959 23.6551C22.4278 22.6235 18.804 22.8097 15.5596 24.1814C12.3152 25.5532 9.65722 28.0231 8.05079 31.158L7.8418 31.5799C6.83522 33.7059 6.34789 36.0285 6.40333 38.3572C6.41123 38.6895 6.37571 39.0195 6.3047 39.3386L6.39063 74.9851L6.38673 75.1394C6.31012 76.7247 5.00252 77.9891 3.39747 77.9929C1.79249 77.9967 0.478709 76.7389 0.394539 75.1541L0.390633 74.9998L0.301766 37.9998C0.301097 37.7072 0.343433 37.4245 0.420906 37.157C0.542337 34.1353 1.31394 31.1527 2.7129 28.4226C4.96153 24.0346 8.68319 20.5781 13.2246 18.658ZM175.901 8.03298C178.954 1.26414 183.792 -0.617909 185.368 0.166771C181.041 4.04805 181.763 9.46551 182.664 11.6892C186.559 7.80828 190.778 10.072 192.401 11.6892C189.856 11.1857 185.272 11.9368 184.037 17.7605C191.895 21.1172 197.402 28.9149 197.402 37.9998C197.402 50.1498 187.552 59.9998 175.402 59.9998C163.252 59.9998 153.403 50.1498 153.402 37.9998C153.402 28.5661 159.341 20.5199 167.683 17.3933C166.336 11.9053 161.893 11.1965 159.402 11.6892C161.025 10.072 165.245 7.80818 169.14 11.6892C170.041 9.46539 170.762 4.04802 166.435 0.166771C168.01 -0.618193 172.848 1.26403 175.901 8.03298ZM67.4024 15.9988C79.5522 15.9988 89.4017 25.8491 89.4024 37.9988C89.4024 50.1491 79.5526 59.9988 67.4024 59.9988C55.2521 59.9988 45.4024 50.1491 45.4024 37.9988C45.403 25.8491 55.2525 15.9988 67.4024 15.9988ZM223.402 16.9998C235 16.9998 244.402 26.4019 244.402 37.9998C244.402 49.5978 235 58.9998 223.402 58.9998C211.804 58.9998 202.402 49.5978 202.402 37.9998C202.402 26.4019 211.804 16.9998 223.402 16.9998ZM132.902 16.9998C140.91 16.9998 147.402 23.4918 147.402 31.4998V54.9998C147.402 56.6566 146.059 57.9998 144.402 57.9998C142.745 57.9998 141.402 56.6566 141.402 54.9998V31.4998C141.402 26.8055 137.597 22.9998 132.902 22.9998C128.208 22.9998 124.402 26.8055 124.402 31.4998V54.9998C124.402 56.6566 123.059 57.9998 121.402 57.9998C119.745 57.9998 118.402 56.6566 118.402 54.9998V31.4998C118.402 26.8055 114.597 22.9998 109.902 22.9998C105.208 22.9998 101.402 26.8055 101.402 31.4998V54.9998C101.402 56.6566 100.059 57.9998 98.4024 57.9998C96.7455 57.9998 95.4024 56.6566 95.4024 54.9998V31.4998C95.4025 23.4918 101.894 16.9998 109.902 16.9998C114.586 16.9998 118.751 19.2213 121.402 22.6677C124.053 19.2213 128.218 16.9998 132.902 16.9998ZM68.457 53.7801C67.9242 55.6956 69.2316 56.0306 69.9522 55.9588C70.461 56.4217 71.0318 54.9417 71.2539 54.1433C72.0156 52.6545 70.8077 52.1002 70.1084 52.0095L68.457 53.7801ZM184.984 20.1551C184.64 19.9941 184.223 20.1169 184.023 20.45C183.824 20.7833 183.914 21.2093 184.219 21.4363L184.282 21.4783L184.778 21.7859C187.233 23.3565 189.301 25.4658 190.824 27.9558C192.449 30.6118 193.405 33.6227 193.61 36.7293C193.803 39.6417 193.331 42.5578 192.232 45.2566L192.004 45.7937C190.743 48.6406 188.81 51.1399 186.372 53.076C186.048 53.3336 185.995 53.8055 186.252 54.1297C186.51 54.4535 186.981 54.5071 187.306 54.2498C189.934 52.1629 192.017 49.4697 193.376 46.4011L193.621 45.822C194.805 42.913 195.315 39.77 195.107 36.6306C194.886 33.2818 193.855 30.0357 192.104 27.1726C190.462 24.4886 188.232 22.2152 185.587 20.5222L185.053 20.1912L184.984 20.1551ZM63.6006 50.0633C63.0367 49.6705 62.6606 51.2109 62.543 52.031C61.9789 53.6055 63.2478 53.9997 63.9531 53.9998L65.3633 52.031C65.6451 50.0632 64.3058 49.8993 63.6006 50.0633ZM223.402 22.9998C215.118 22.9998 208.402 29.7156 208.402 37.9998C208.402 46.2841 215.118 52.9998 223.402 52.9998C231.687 52.9998 238.402 46.2841 238.402 37.9998C238.402 29.7156 231.687 22.9998 223.402 22.9998ZM80.7051 49.2117C80.4465 48.575 79.2908 49.6616 78.7451 50.2849C77.4143 51.2971 78.2634 52.3192 78.8545 52.7039L81.1104 51.823C82.4196 50.3269 81.3857 49.4587 80.7051 49.2117ZM75.0635 46.0457C74.6075 45.5326 73.88 46.9423 73.5732 47.7117C72.6558 49.1095 73.7969 49.7902 74.4824 49.9558L76.3154 48.3738C77.0514 46.5269 75.7875 46.0518 75.0635 46.0457ZM67.6006 45.0633C67.0367 44.6705 66.6606 46.2109 66.543 47.031C65.9789 48.6055 67.2478 48.9997 67.9531 48.9998L69.3633 47.031C69.6451 45.0632 68.3058 44.8993 67.6006 45.0633ZM56.6006 44.0633C56.0367 43.6705 55.6606 45.2109 55.543 46.031C54.9789 47.6055 56.2478 47.9997 56.9531 47.9998L58.3633 46.031C58.6451 44.0632 57.3058 43.8993 56.6006 44.0633ZM63.9727 44.5672C62.9055 42.8901 61.7812 43.6369 61.3525 44.2205C60.6693 44.2898 61.3864 45.704 61.8311 46.4031C62.4279 47.9655 63.6482 47.4384 64.1836 46.9793L63.9727 44.5672ZM51.6006 42.0633C51.0367 41.6705 50.6606 43.2109 50.543 44.031C49.9789 45.6055 51.2478 45.9997 51.9531 45.9998L53.3633 44.031C53.6451 42.0632 52.3058 41.8993 51.6006 42.0633ZM73.1201 41.0515C72.6793 40.5252 71.9111 41.9125 71.582 42.6726C70.624 44.0432 71.7454 44.7576 72.4258 44.9431L74.3037 43.4148C75.0932 41.5901 73.8436 41.0787 73.1201 41.0515ZM65.6006 38.0633C65.0367 37.6705 64.6606 39.2109 64.543 40.031C63.9789 41.6055 65.2478 41.9997 65.9531 41.9998L67.3633 40.031C67.6451 38.0632 66.3058 37.8993 65.6006 38.0633ZM58.6006 37.0633C58.0367 36.6705 57.6606 38.2109 57.543 39.031C56.9789 40.6055 58.2478 40.9997 58.9531 40.9998L60.3633 39.031C60.6451 37.0632 59.3058 36.8993 58.6006 37.0633ZM52.6006 36.0633C52.0367 35.6705 51.6606 37.2109 51.543 38.031C50.9789 39.6055 52.2478 39.9997 52.9531 39.9998L54.3633 38.031C54.6451 36.0632 53.3058 35.8993 52.6006 36.0633ZM70.6006 35.0633C70.0367 34.6705 69.6606 36.2109 69.543 37.031C68.9789 38.6055 70.2478 38.9997 70.9531 38.9998L72.3633 37.031C72.6451 35.0632 71.3058 34.8993 70.6006 35.0633ZM63.6006 31.0633C63.0367 30.6705 62.6606 32.2109 62.543 33.031C61.9789 34.6055 63.2478 34.9997 63.9531 34.9998L65.3633 33.031C65.6451 31.0632 64.3058 30.8993 63.6006 31.0633ZM56.5137 31.9685C56.1608 33.9248 57.4944 34.1371 58.2051 33.9988C58.7546 34.4126 59.1858 32.8855 59.333 32.0701C59.9534 30.5173 58.6999 30.0781 57.9951 30.0525L56.5137 31.9685ZM52.5479 29.1492C52.2353 28.5373 51.1784 29.7194 50.6885 30.3875C49.4498 31.5104 50.3828 32.4554 51.0049 32.7879L53.1768 31.7156C54.3521 30.1123 53.2472 29.3366 52.5479 29.1492ZM60.6006 24.0633C60.0367 23.6705 59.6606 25.2109 59.543 26.031C58.9789 27.6055 60.2478 27.9997 60.9531 27.9998L62.3633 26.031C62.6451 24.0632 61.3058 23.8993 60.6006 24.0633ZM50.3731 10.8347C50.8828 9.71109 53.2101 9.66616 55.5713 10.7351L56.0049 10.9441C58.1132 12.0246 59.4028 13.6537 58.9268 14.7078L58.874 14.8093C58.2727 15.8336 56.016 15.8427 53.7275 14.8064L53.2959 14.5984C51.187 13.5177 49.8961 11.8889 50.3731 10.8347ZM52.3066 11.4617C52.1034 11.4656 51.9587 11.4851 51.8584 11.5066C51.9083 11.5961 51.989 11.7185 52.1201 11.8738C52.5538 12.3872 53.3235 12.9767 54.3467 13.4402C55.3705 13.9038 56.322 14.0937 56.9941 14.0808C57.1972 14.0769 57.3412 14.0565 57.4414 14.0349C57.3915 13.9455 57.3112 13.8233 57.1807 13.6687C56.7469 13.1552 55.9766 12.5648 54.9531 12.1013C53.9297 11.638 52.9786 11.4489 52.3066 11.4617ZM62.6338 4.11794C63.8662 4.05239 64.9771 6.09871 65.1152 8.68728L65.1289 9.16775C65.1403 11.5376 64.2883 13.4333 63.1328 13.4949H63.0186C61.8325 13.4325 60.7859 11.4331 60.6524 8.92458L60.6387 8.44509C60.6273 6.07559 61.4785 4.17985 62.6338 4.11794ZM62.7217 5.74587C62.6652 5.83128 62.5932 5.95843 62.5156 6.14626C62.2594 6.76749 62.0909 7.7228 62.1504 8.84451C62.2101 9.96646 62.4801 10.8992 62.8008 11.49C62.8975 11.668 62.9817 11.787 63.0469 11.866C63.1033 11.7805 63.1748 11.6528 63.252 11.4656C63.5081 10.8441 63.6769 9.88823 63.6172 8.76638C63.5573 7.64488 63.2884 6.71335 62.9678 6.12283C62.871 5.94465 62.7869 5.82486 62.7217 5.74587Z" fill="black"/>
</svg>
