<svg width="245" height="85" viewBox="0 0 245 85" fill="none" xmlns="http://www.w3.org/2000/svg">
<path d="M61.7566 66.8075C61.8886 66.9635 61.9546 67.1255 61.9546 67.2935C61.9546 67.3655 61.9486 67.4435 61.9366 67.5275C61.9366 67.5995 61.9306 67.6655 61.9186 67.7255C61.8826 67.8575 61.8046 67.9835 61.6846 68.1035C61.5886 68.1755 61.4566 68.2295 61.2886 68.2655C61.2046 68.2895 61.1206 68.3075 61.0366 68.3195C60.9526 68.3315 60.8626 68.3495 60.7666 68.3735C60.6826 68.3855 60.5986 68.3915 60.5146 68.3915C60.4306 68.3915 60.3406 68.3915 60.2446 68.3915H59.3266C59.1106 68.4035 58.8946 68.4095 58.6786 68.4095C58.4746 68.4095 58.2706 68.4095 58.0666 68.4095C58.0786 68.7815 58.0846 69.1835 58.0846 69.6155C58.0846 70.0355 58.0786 70.5275 58.0666 71.0915C58.0666 71.6555 58.0606 72.3095 58.0486 73.0535C58.0486 73.7975 58.0486 74.6615 58.0486 75.6455V77.0135C58.0486 77.1335 58.0546 77.2235 58.0666 77.2835C58.0666 77.3315 58.0666 77.3795 58.0666 77.4275C58.0666 77.4635 58.0606 77.5115 58.0486 77.5715C58.0246 77.6795 58.0066 77.8055 57.9946 77.9495C57.9946 78.0095 57.9886 78.0695 57.9766 78.1295C57.9646 78.1775 57.9466 78.2315 57.9226 78.2915C57.8746 78.3395 57.8506 78.3755 57.8506 78.3995L57.7966 78.5075C57.7366 78.6275 57.6226 78.7415 57.4546 78.8495C57.1906 78.9815 56.8966 79.0115 56.5726 78.9395C56.3686 78.9155 56.2126 78.8615 56.1046 78.7775C55.9966 78.6695 55.9186 78.5615 55.8706 78.4535C55.7986 78.3215 55.7566 78.1955 55.7446 78.0755C55.7086 77.9675 55.6906 77.8535 55.6906 77.7335V68.4815C55.6186 68.4815 55.4686 68.4815 55.2406 68.4815C55.0126 68.4815 54.7666 68.4815 54.5026 68.4815C54.2506 68.4695 54.0106 68.4575 53.7826 68.4455C53.5546 68.4335 53.3986 68.4215 53.3146 68.4095C53.2426 68.3975 53.1286 68.3795 52.9726 68.3555C52.8286 68.3315 52.7086 68.3075 52.6126 68.2835C52.3606 68.2115 52.1626 68.0975 52.0186 67.9415C51.8866 67.7855 51.8206 67.6115 51.8206 67.4195C51.8206 67.3475 51.8206 67.2755 51.8206 67.2035C51.8206 67.1315 51.8326 67.0655 51.8566 67.0055C51.8926 66.8615 51.9886 66.7415 52.1446 66.6455C52.1926 66.6095 52.2646 66.5675 52.3606 66.5195C52.4686 66.4595 52.5706 66.4175 52.6666 66.3935C52.8106 66.3455 52.9906 66.3095 53.2066 66.2855C53.3026 66.2735 53.3986 66.2675 53.4946 66.2675C53.5906 66.2675 53.6926 66.2675 53.8006 66.2675C54.2206 66.2675 54.6166 66.2675 54.9886 66.2675C55.3726 66.2675 55.7746 66.2615 56.1946 66.2495C56.8906 66.2375 57.5806 66.2375 58.2646 66.2495C58.9606 66.2495 59.6506 66.2615 60.3346 66.2855C60.4906 66.2975 60.6406 66.3155 60.7846 66.3395C60.9286 66.3635 61.0726 66.4055 61.2166 66.4655C61.3246 66.5015 61.4266 66.5495 61.5226 66.6095C61.6186 66.6575 61.6966 66.7235 61.7566 66.8075ZM68.373 68.4095L68.337 71.2355H69.057C69.549 71.2235 69.987 71.2175 70.371 71.2175C70.755 71.2175 71.181 71.2235 71.649 71.2355H71.739C71.883 71.2355 72.021 71.2415 72.153 71.2535C72.297 71.2535 72.435 71.2535 72.567 71.2535C72.711 71.2655 72.849 71.2895 72.981 71.3255C73.113 71.3495 73.245 71.3795 73.377 71.4155C73.581 71.4875 73.749 71.5955 73.881 71.7395C74.001 71.8955 74.061 72.0695 74.061 72.2615C74.061 72.3215 74.061 72.3935 74.061 72.4775C74.061 72.5495 74.049 72.6155 74.025 72.6755C74.001 72.8075 73.923 72.9275 73.791 73.0355C73.731 73.1195 73.617 73.1795 73.449 73.2155C73.293 73.2635 73.137 73.2935 72.981 73.3055C72.813 73.3415 72.645 73.3595 72.477 73.3595H71.631L68.301 73.3775L68.265 76.9055L71.847 76.9415H72.693C72.789 76.9415 72.879 76.9415 72.963 76.9415C73.047 76.9415 73.125 76.9475 73.197 76.9595C73.293 76.9835 73.377 77.0015 73.449 77.0135C73.533 77.0135 73.611 77.0255 73.683 77.0495C73.827 77.0975 73.947 77.1635 74.043 77.2475C74.163 77.3675 74.241 77.4935 74.277 77.6255C74.289 77.6855 74.295 77.7515 74.295 77.8235C74.307 77.8835 74.307 77.9495 74.295 78.0215C74.295 78.2135 74.235 78.3875 74.115 78.5435C73.971 78.7115 73.803 78.8195 73.611 78.8675C73.359 78.9755 73.083 79.0295 72.783 79.0295C72.651 79.0415 72.513 79.0475 72.369 79.0475C72.225 79.0475 72.087 79.0535 71.955 79.0655H71.847C70.911 79.0895 69.939 79.0895 68.931 79.0655C68.691 79.0655 68.499 79.0595 68.355 79.0475C68.211 79.0475 68.079 79.0475 67.959 79.0475C67.851 79.0475 67.737 79.0475 67.617 79.0475C67.497 79.0475 67.341 79.0475 67.149 79.0475C66.873 79.0715 66.645 79.0235 66.465 78.9035C66.333 78.8195 66.231 78.7055 66.159 78.5615C66.123 78.5255 66.105 78.4895 66.105 78.4535C66.093 78.4295 66.081 78.4115 66.069 78.3995C66.057 78.3875 66.045 78.3695 66.033 78.3455C66.009 78.2855 65.991 78.2255 65.979 78.1655C65.967 78.0935 65.961 78.0275 65.961 77.9675C65.949 77.9075 65.937 77.8475 65.925 77.7875C65.925 77.7275 65.919 77.6675 65.907 77.6075V77.3195C65.907 77.2715 65.907 77.2235 65.907 77.1755C65.919 77.1275 65.925 77.0795 65.925 77.0315V75.6275L65.961 73.0355V70.6415C65.961 70.2095 65.961 69.8255 65.961 69.4895C65.973 69.1535 65.985 68.7875 65.997 68.3915V68.3015C66.009 68.1695 66.015 68.0495 66.015 67.9415C66.027 67.8215 66.033 67.7015 66.033 67.5815C66.045 67.3415 66.111 67.1075 66.231 66.8795C66.279 66.7835 66.327 66.6995 66.375 66.6275C66.435 66.5555 66.513 66.4955 66.609 66.4475C66.789 66.3395 66.975 66.2855 67.167 66.2855C67.263 66.2855 67.335 66.2915 67.383 66.3035V66.2855C67.599 66.2855 67.773 66.2855 67.905 66.2855C68.037 66.2855 68.163 66.2855 68.283 66.2855C68.415 66.2855 68.553 66.2855 68.697 66.2855C68.841 66.2735 69.039 66.2675 69.291 66.2675C69.771 66.2555 70.227 66.2495 70.659 66.2495C71.091 66.2495 71.535 66.2555 71.991 66.2675H72.063C72.195 66.2795 72.333 66.2855 72.477 66.2855C72.621 66.2855 72.759 66.2915 72.891 66.3035C73.023 66.3035 73.155 66.3215 73.287 66.3575C73.419 66.3815 73.551 66.4175 73.683 66.4655C73.887 66.5255 74.055 66.6275 74.187 66.7715C74.295 66.9395 74.349 67.1075 74.349 67.2755C74.349 67.3475 74.349 67.4195 74.349 67.4915C74.349 67.5515 74.337 67.6115 74.313 67.6715C74.301 67.7915 74.229 67.9175 74.097 68.0495C74.049 68.0735 73.995 68.1035 73.935 68.1395C73.887 68.1755 73.827 68.2055 73.755 68.2295C73.683 68.2535 73.605 68.2715 73.521 68.2835C73.449 68.2835 73.377 68.2895 73.305 68.3015C73.209 68.3255 73.119 68.3375 73.035 68.3375C72.963 68.3375 72.879 68.3375 72.783 68.3375H71.973L68.373 68.3555V68.4095ZM87.8639 75.9695C88.0199 76.3175 88.0259 76.6595 87.8819 76.9955C87.7379 77.3195 87.5099 77.6195 87.1979 77.8955C86.8859 78.1715 86.5259 78.4115 86.1179 78.6155C85.7219 78.8195 85.3439 78.9635 84.9839 79.0475C84.5879 79.1315 84.1679 79.1675 83.7239 79.1555C83.2919 79.1555 82.8539 79.1015 82.4099 78.9935C81.9779 78.8975 81.5519 78.7535 81.1319 78.5615C80.7239 78.3575 80.3459 78.1115 79.9979 77.8235C79.5779 77.4755 79.2479 77.0615 79.0079 76.5815C78.7799 76.0895 78.6119 75.5675 78.5039 75.0155C78.3959 74.4635 78.3359 73.9115 78.3239 73.3595C78.3239 72.7955 78.3419 72.2675 78.3779 71.7755C78.4139 71.3315 78.5039 70.8695 78.6479 70.3895C78.7919 69.9095 78.9899 69.4415 79.2419 68.9855C79.5059 68.5175 79.8179 68.0855 80.1779 67.6895C80.5499 67.2935 80.9819 66.9575 81.4739 66.6815C81.8459 66.4655 82.2599 66.3215 82.7159 66.2495C83.1839 66.1655 83.6519 66.1475 84.1199 66.1955C84.5999 66.2315 85.0499 66.3335 85.4699 66.5015C85.9019 66.6575 86.2679 66.8735 86.5679 67.1495C86.7599 67.3175 86.9579 67.5515 87.1619 67.8515C87.3779 68.1515 87.5339 68.4575 87.6299 68.7695C87.7259 69.0815 87.7259 69.3755 87.6299 69.6515C87.5459 69.9155 87.3059 70.0955 86.9099 70.1915C86.7419 70.2395 86.5919 70.2515 86.4599 70.2275C86.3279 70.1915 86.2079 70.1375 86.0999 70.0655C85.9919 69.9815 85.8899 69.8855 85.7939 69.7775C85.6979 69.6695 85.6079 69.5615 85.5239 69.4535C85.2359 69.1055 84.8999 68.8715 84.5159 68.7515C84.1319 68.6195 83.7479 68.5895 83.3639 68.6615C82.9919 68.7215 82.6379 68.8775 82.3019 69.1295C81.9779 69.3695 81.7259 69.6815 81.5459 70.0655C81.3539 70.4735 81.1979 70.9235 81.0779 71.4155C80.9699 71.8955 80.9099 72.3875 80.8979 72.8915C80.8859 73.3835 80.9279 73.8635 81.0239 74.3315C81.1319 74.7995 81.3119 75.2135 81.5639 75.5735C81.7559 75.8615 81.9899 76.0955 82.2659 76.2755C82.5539 76.4555 82.8599 76.5815 83.1839 76.6535C83.5079 76.7255 83.8319 76.7375 84.1559 76.6895C84.4919 76.6415 84.8159 76.5335 85.1279 76.3655C85.2239 76.3175 85.3259 76.2515 85.4339 76.1675C85.5539 76.0715 85.6739 75.9755 85.7939 75.8795C85.9139 75.7835 86.0339 75.6935 86.1539 75.6095C86.2859 75.5255 86.4239 75.4655 86.5679 75.4295C86.7839 75.3575 87.0179 75.3635 87.2699 75.4475C87.5339 75.5315 87.7319 75.7055 87.8639 75.9695ZM101.457 67.1315C101.469 67.2155 101.475 67.2935 101.475 67.3655C101.475 67.4375 101.475 67.5095 101.475 67.5815V68.3195L101.367 77.6615V77.8415C101.367 77.9135 101.349 78.0215 101.313 78.1655C101.301 78.2255 101.283 78.2915 101.259 78.3635C101.235 78.4235 101.211 78.4895 101.187 78.5615C101.127 78.7055 101.043 78.8135 100.935 78.8855C100.839 78.9815 100.683 79.0475 100.467 79.0835C100.131 79.1555 99.8249 79.1255 99.5489 78.9935C99.3929 78.8975 99.2849 78.7775 99.2249 78.6335C99.2009 78.6095 99.1769 78.5735 99.1529 78.5255C99.1529 78.5015 99.1409 78.4655 99.1169 78.4175C99.0929 78.3575 99.0749 78.2975 99.0629 78.2375C99.0509 78.1655 99.0389 78.0935 99.0269 78.0215C99.0269 77.9615 99.0209 77.9015 99.0089 77.8415C99.0089 77.7815 99.0029 77.7215 98.9909 77.6615C98.9669 77.6015 98.9549 77.5535 98.9549 77.5175C98.9549 77.4695 98.9549 77.4155 98.9549 77.3555C98.9789 77.3075 98.9909 77.2175 98.9909 77.0855L99.0089 75.6635L99.0269 73.3955H98.0549L94.4009 73.4135L94.3649 77.6615V77.8415C94.3649 77.9135 94.3469 78.0215 94.3109 78.1655C94.2989 78.2255 94.2809 78.2915 94.2569 78.3635C94.2329 78.4235 94.2089 78.4895 94.1849 78.5615C94.1249 78.7055 94.0409 78.8135 93.9329 78.8855C93.8369 78.9815 93.6809 79.0475 93.4649 79.0835C93.1289 79.1555 92.8229 79.1255 92.5469 78.9935C92.4269 78.9215 92.3129 78.8015 92.2049 78.6335C92.1809 78.5855 92.1689 78.5495 92.1689 78.5255L92.1149 78.4175C92.0909 78.3575 92.0729 78.2975 92.0609 78.2375C92.0489 78.1655 92.0369 78.0935 92.0249 78.0215C92.0249 77.9615 92.0189 77.9015 92.0069 77.8415C91.9949 77.7815 91.9829 77.7215 91.9709 77.6615C91.9589 77.5655 91.9589 77.4635 91.9709 77.3555V77.0855L91.9889 75.6635L92.0249 73.0175C92.0369 72.6335 92.0429 72.2375 92.0429 71.8295C92.0429 71.4215 92.0429 71.0015 92.0429 70.5695C92.0309 70.1375 92.0249 69.7535 92.0249 69.4175C92.0369 69.0815 92.0549 68.7035 92.0789 68.2835V68.2115C92.0909 68.0915 92.0969 67.9715 92.0969 67.8515C92.0969 67.7195 92.1029 67.5875 92.1149 67.4555C92.1269 67.3355 92.1449 67.2215 92.1689 67.1135C92.2049 66.9935 92.2529 66.8735 92.3129 66.7535C92.3489 66.6575 92.3969 66.5795 92.4569 66.5195C92.5169 66.4475 92.5889 66.3815 92.6729 66.3215C92.8649 66.2255 93.0569 66.1775 93.2489 66.1775C93.3449 66.1775 93.4289 66.1835 93.5009 66.1955C93.5729 66.1955 93.6449 66.2015 93.7169 66.2135C93.8609 66.2255 93.9989 66.2975 94.1309 66.4295C94.2269 66.5135 94.2929 66.6095 94.3289 66.7175C94.3889 66.8735 94.4249 67.0115 94.4369 67.1315C94.4489 67.2155 94.4549 67.2935 94.4549 67.3655C94.4549 67.4375 94.4549 67.5095 94.4549 67.5815V68.3195L94.4189 71.2895C94.5149 71.2895 94.6229 71.2895 94.7429 71.2895C94.8749 71.2895 95.0249 71.2835 95.1929 71.2715C95.8169 71.2715 96.4349 71.2775 97.0469 71.2895C97.6709 71.3015 98.3249 71.3075 99.0089 71.3075H99.0269C99.0269 70.7675 99.0269 70.2515 99.0269 69.7595C99.0389 69.2675 99.0569 68.7515 99.0809 68.2115C99.0809 68.0915 99.0809 67.9715 99.0809 67.8515C99.0929 67.7195 99.1049 67.5875 99.1169 67.4555C99.1289 67.3355 99.1469 67.2215 99.1709 67.1135C99.2069 66.9935 99.2549 66.8735 99.3149 66.7535C99.3389 66.6575 99.3809 66.5795 99.4409 66.5195C99.5129 66.4475 99.5969 66.3815 99.6929 66.3215C99.8609 66.2255 100.047 66.1775 100.251 66.1775C100.347 66.1775 100.431 66.1835 100.503 66.1955C100.587 66.1955 100.659 66.2015 100.719 66.2135C100.887 66.2375 101.025 66.3095 101.133 66.4295C101.229 66.4895 101.295 66.5855 101.331 66.7175C101.355 66.7895 101.373 66.8615 101.385 66.9335C101.409 66.9935 101.433 67.0595 101.457 67.1315ZM115.234 77.6255C115.222 77.8295 115.192 78.0455 115.144 78.2735C115.108 78.5015 114.994 78.6875 114.802 78.8315C114.658 78.9515 114.496 79.0235 114.316 79.0475C114.136 79.0715 113.956 79.0595 113.776 79.0115C113.608 78.9755 113.446 78.9155 113.29 78.8315C113.134 78.7355 113.008 78.6215 112.912 78.4895C112.504 77.9855 112.126 77.4695 111.778 76.9415C111.442 76.4015 111.1 75.8615 110.752 75.3215L109.24 73.0355C109.036 72.7115 108.82 72.3515 108.592 71.9555C108.364 71.5475 108.13 71.1695 107.89 70.8215L107.836 77.6975V77.8595C107.836 78.0515 107.8 78.2435 107.728 78.4355C107.668 78.6155 107.56 78.7715 107.404 78.9035C107.284 78.9995 107.128 79.0655 106.936 79.1015C106.636 79.1615 106.384 79.1435 106.18 79.0475C105.988 78.9515 105.832 78.8195 105.712 78.6515C105.604 78.4835 105.526 78.2915 105.478 78.0755C105.442 77.8475 105.436 77.6255 105.46 77.4095V77.1035L105.496 75.6995L105.514 73.0895C105.526 72.7055 105.532 72.3155 105.532 71.9195C105.532 71.5115 105.532 71.0975 105.532 70.6775C105.52 70.1615 105.52 69.6155 105.532 69.0395C105.556 68.4635 105.58 67.9235 105.604 67.4195C105.628 67.1435 105.694 66.9095 105.802 66.7175C105.85 66.5495 105.976 66.4055 106.18 66.2855C106.312 66.2015 106.48 66.1475 106.684 66.1235C106.9 66.0995 107.086 66.1055 107.242 66.1415C107.302 66.1655 107.362 66.1955 107.422 66.2315C107.482 66.2555 107.542 66.2855 107.602 66.3215C107.662 66.3695 107.716 66.4175 107.764 66.4655C107.824 66.5135 107.878 66.5675 107.926 66.6275C107.986 66.6875 108.04 66.7535 108.088 66.8255C108.136 66.8855 108.184 66.9455 108.232 67.0055C108.268 67.0775 108.304 67.1435 108.34 67.2035C108.376 67.2635 108.418 67.3235 108.466 67.3835L108.664 67.6715L112.822 74.2235V73.0355C112.822 72.6515 112.816 72.2615 112.804 71.8655C112.804 71.4575 112.798 71.0375 112.786 70.6055C112.786 70.1015 112.786 69.5615 112.786 68.9855C112.798 68.4095 112.816 67.8695 112.84 67.3655C112.84 67.1615 112.9 66.9275 113.02 66.6635C113.08 66.5075 113.182 66.3815 113.326 66.2855C113.47 66.1895 113.632 66.1235 113.812 66.0875C113.992 66.0515 114.172 66.0515 114.352 66.0875C114.532 66.1235 114.688 66.1955 114.82 66.3035C114.856 66.3395 114.892 66.3815 114.928 66.4295C114.964 66.4775 114.994 66.5315 115.018 66.5915C115.078 66.7475 115.114 66.8855 115.126 67.0055C115.162 67.1735 115.18 67.3235 115.18 67.4555C115.18 68.9555 115.18 70.4855 115.18 72.0455C115.192 73.6055 115.204 75.1355 115.216 76.6355C115.216 76.8035 115.222 76.9715 115.234 77.1395C115.246 77.2955 115.246 77.4575 115.234 77.6255ZM122.398 66.6815C123.202 66.3815 123.928 66.2495 124.576 66.2855C125.236 66.3215 125.824 66.4895 126.34 66.7895C126.856 67.0775 127.294 67.4675 127.654 67.9595C128.026 68.4515 128.326 69.0035 128.554 69.6155C128.734 70.0715 128.872 70.5515 128.968 71.0555C129.064 71.5595 129.118 72.0635 129.13 72.5675C129.154 73.0595 129.136 73.5455 129.076 74.0255C129.028 74.5055 128.944 74.9495 128.824 75.3575C128.752 75.6335 128.668 75.8855 128.572 76.1135C128.476 76.3415 128.362 76.5695 128.23 76.7975C127.93 77.3135 127.54 77.7335 127.06 78.0575C126.592 78.3815 126.076 78.6095 125.512 78.7415C125.128 78.8375 124.732 78.8855 124.324 78.8855C123.916 78.8735 123.514 78.8195 123.118 78.7235C122.722 78.6155 122.338 78.4655 121.966 78.2735C121.606 78.0695 121.276 77.8175 120.976 77.5175C120.604 77.1575 120.298 76.7435 120.058 76.2755C119.818 75.7955 119.632 75.2975 119.5 74.7815C119.368 74.2535 119.284 73.7255 119.248 73.1975C119.212 72.6695 119.212 72.1655 119.248 71.6855C119.284 71.2415 119.368 70.7675 119.5 70.2635C119.644 69.7595 119.848 69.2735 120.112 68.8055C120.376 68.3375 120.694 67.9175 121.066 67.5455C121.45 67.1615 121.894 66.8735 122.398 66.6815ZM126.61 74.3855C126.754 73.8215 126.814 73.1855 126.79 72.4775C126.766 71.7695 126.652 71.1035 126.448 70.4795C126.316 70.0955 126.148 69.7595 125.944 69.4715C125.752 69.1715 125.518 68.9435 125.242 68.7875C124.978 68.6315 124.666 68.5535 124.306 68.5535C123.946 68.5535 123.544 68.6615 123.1 68.8775C122.836 69.0095 122.608 69.1895 122.416 69.4175C122.236 69.6455 122.086 69.9035 121.966 70.1915C121.858 70.4795 121.768 70.7795 121.696 71.0915C121.636 71.4035 121.6 71.7035 121.588 71.9915C121.564 72.3035 121.558 72.6335 121.57 72.9815C121.582 73.3175 121.618 73.6595 121.678 74.0075C121.75 74.3435 121.846 74.6675 121.966 74.9795C122.086 75.2795 122.248 75.5495 122.452 75.7895C122.764 76.1495 123.124 76.4015 123.532 76.5455C123.952 76.6775 124.366 76.6955 124.774 76.5995C125.434 76.4555 125.938 76.0175 126.286 75.2855C126.43 75.0215 126.538 74.7215 126.61 74.3855ZM141.79 77.6255C141.814 77.6855 141.826 77.7755 141.826 77.8955C141.826 78.0035 141.826 78.0935 141.826 78.1655C141.826 78.2615 141.808 78.3515 141.772 78.4355C141.736 78.5195 141.688 78.5975 141.628 78.6695C141.52 78.8135 141.364 78.9215 141.16 78.9935C140.872 79.0895 140.602 79.1375 140.35 79.1375C140.218 79.1495 140.08 79.1555 139.936 79.1555C139.792 79.1555 139.648 79.1675 139.504 79.1915H139.432C138.508 79.2035 137.554 79.2035 136.57 79.1915C136.33 79.1795 136.06 79.1795 135.76 79.1915C135.46 79.2155 135.166 79.2095 134.878 79.1735C134.59 79.1495 134.326 79.0835 134.086 78.9755C133.858 78.8555 133.696 78.6695 133.6 78.4175C133.576 78.3575 133.558 78.3035 133.546 78.2555C133.534 78.1955 133.528 78.1355 133.528 78.0755C133.48 77.6675 133.462 77.2655 133.474 76.8695C133.486 76.4735 133.492 76.0835 133.492 75.6995L133.528 73.0895V70.6775C133.528 70.2455 133.528 69.8615 133.528 69.5255C133.54 69.1895 133.552 68.8175 133.564 68.4095V68.3195C133.576 68.1995 133.582 68.0795 133.582 67.9595C133.594 67.8395 133.6 67.7195 133.6 67.5995C133.624 67.3235 133.69 67.0895 133.798 66.8975C133.87 66.7175 133.996 66.5735 134.176 66.4655C134.332 66.3575 134.518 66.3035 134.734 66.3035C134.818 66.3035 134.896 66.3095 134.968 66.3215C135.052 66.3215 135.13 66.3275 135.202 66.3395C135.274 66.3515 135.34 66.3755 135.4 66.4115C135.472 66.4475 135.544 66.4955 135.616 66.5555C135.688 66.6395 135.754 66.7415 135.814 66.8615C135.862 66.9935 135.892 67.1255 135.904 67.2575C135.916 67.3415 135.928 67.4195 135.94 67.4915C135.952 67.5635 135.958 67.6355 135.958 67.7075C135.934 67.7795 135.922 67.8515 135.922 67.9235C135.922 67.9955 135.922 68.0615 135.922 68.1215V68.4455L135.85 76.9235L139.414 76.9595H140.26C140.332 76.9595 140.41 76.9655 140.494 76.9775C140.578 76.9775 140.662 76.9835 140.746 76.9955C140.842 77.0075 140.926 77.0195 140.998 77.0315C141.07 77.0435 141.142 77.0615 141.214 77.0855C141.346 77.1215 141.454 77.1815 141.538 77.2655C141.67 77.3855 141.754 77.5055 141.79 77.6255ZM147.705 66.6815C148.509 66.3815 149.235 66.2495 149.883 66.2855C150.543 66.3215 151.131 66.4895 151.647 66.7895C152.163 67.0775 152.601 67.4675 152.961 67.9595C153.333 68.4515 153.633 69.0035 153.861 69.6155C154.041 70.0715 154.179 70.5515 154.275 71.0555C154.371 71.5595 154.425 72.0635 154.437 72.5675C154.461 73.0595 154.443 73.5455 154.383 74.0255C154.335 74.5055 154.251 74.9495 154.131 75.3575C154.059 75.6335 153.975 75.8855 153.879 76.1135C153.783 76.3415 153.669 76.5695 153.537 76.7975C153.237 77.3135 152.847 77.7335 152.367 78.0575C151.899 78.3815 151.383 78.6095 150.819 78.7415C150.435 78.8375 150.039 78.8855 149.631 78.8855C149.223 78.8735 148.821 78.8195 148.425 78.7235C148.029 78.6155 147.645 78.4655 147.273 78.2735C146.913 78.0695 146.583 77.8175 146.283 77.5175C145.911 77.1575 145.605 76.7435 145.365 76.2755C145.125 75.7955 144.939 75.2975 144.807 74.7815C144.675 74.2535 144.591 73.7255 144.555 73.1975C144.519 72.6695 144.519 72.1655 144.555 71.6855C144.591 71.2415 144.675 70.7675 144.807 70.2635C144.951 69.7595 145.155 69.2735 145.419 68.8055C145.683 68.3375 146.001 67.9175 146.373 67.5455C146.757 67.1615 147.201 66.8735 147.705 66.6815ZM151.917 74.3855C152.061 73.8215 152.121 73.1855 152.097 72.4775C152.073 71.7695 151.959 71.1035 151.755 70.4795C151.623 70.0955 151.455 69.7595 151.251 69.4715C151.059 69.1715 150.825 68.9435 150.549 68.7875C150.285 68.6315 149.973 68.5535 149.613 68.5535C149.253 68.5535 148.851 68.6615 148.407 68.8775C148.143 69.0095 147.915 69.1895 147.723 69.4175C147.543 69.6455 147.393 69.9035 147.273 70.1915C147.165 70.4795 147.075 70.7795 147.003 71.0915C146.943 71.4035 146.907 71.7035 146.895 71.9915C146.871 72.3035 146.865 72.6335 146.877 72.9815C146.889 73.3175 146.925 73.6595 146.985 74.0075C147.057 74.3435 147.153 74.6675 147.273 74.9795C147.393 75.2795 147.555 75.5495 147.759 75.7895C148.071 76.1495 148.431 76.4015 148.839 76.5455C149.259 76.6775 149.673 76.6955 150.081 76.5995C150.741 76.4555 151.245 76.0175 151.593 75.2855C151.737 75.0215 151.845 74.7215 151.917 74.3855ZM167.952 74.7095C167.952 75.0695 167.934 75.4355 167.898 75.8075C167.862 76.1675 167.79 76.5215 167.682 76.8695C167.574 77.2055 167.412 77.5295 167.196 77.8415C166.98 78.1415 166.686 78.4055 166.314 78.6335C166.134 78.7535 165.918 78.8555 165.666 78.9395C165.426 79.0115 165.168 79.0715 164.892 79.1195C164.628 79.1795 164.364 79.2155 164.1 79.2275C163.836 79.2515 163.59 79.2575 163.362 79.2455C162.282 79.2095 161.406 78.9515 160.734 78.4715C160.074 77.9795 159.564 77.3735 159.204 76.6535C158.856 75.9335 158.628 75.1535 158.52 74.3135C158.424 73.4615 158.406 72.6515 158.466 71.8835C158.502 71.4275 158.58 70.9355 158.7 70.4075C158.832 69.8795 159.018 69.3695 159.258 68.8775C159.51 68.3855 159.816 67.9415 160.176 67.5455C160.548 67.1495 160.986 66.8495 161.49 66.6455C161.958 66.4535 162.468 66.3335 163.02 66.2855C163.584 66.2255 164.136 66.2435 164.676 66.3395C165.228 66.4355 165.738 66.6095 166.206 66.8615C166.686 67.1135 167.064 67.4495 167.34 67.8695C167.532 68.1815 167.682 68.5595 167.79 69.0035C167.898 69.4475 167.916 69.8735 167.844 70.2815C167.784 70.6415 167.658 70.8935 167.466 71.0375C167.274 71.1695 167.064 71.2235 166.836 71.1995C166.608 71.1635 166.386 71.0675 166.17 70.9115C165.966 70.7435 165.828 70.5335 165.756 70.2815C165.672 70.0055 165.57 69.7535 165.45 69.5255C165.33 69.2855 165.144 69.0875 164.892 68.9315C164.604 68.7515 164.298 68.6495 163.974 68.6255C163.662 68.6015 163.356 68.6375 163.056 68.7335C162.768 68.8295 162.492 68.9795 162.228 69.1835C161.976 69.3875 161.766 69.6215 161.598 69.8855C161.394 70.1855 161.238 70.5155 161.13 70.8755C161.022 71.2235 160.944 71.5895 160.896 71.9735C160.848 72.3455 160.83 72.7235 160.842 73.1075C160.866 73.4795 160.914 73.8395 160.986 74.1875C161.118 74.7755 161.322 75.3275 161.598 75.8435C161.706 76.0355 161.85 76.2095 162.03 76.3655C162.222 76.5095 162.432 76.6295 162.66 76.7255C162.888 76.8095 163.128 76.8635 163.38 76.8875C163.632 76.9115 163.872 76.8935 164.1 76.8335C164.424 76.7495 164.688 76.6415 164.892 76.5095C165.096 76.3655 165.258 76.1975 165.378 76.0055C165.498 75.8135 165.576 75.6035 165.612 75.3755C165.66 75.1475 165.684 74.9075 165.684 74.6555V74.6375C165.528 74.6375 165.39 74.6375 165.27 74.6375C165.15 74.6255 165.06 74.6195 165 74.6195C164.736 74.6195 164.478 74.5715 164.226 74.4755C164.01 74.4035 163.848 74.2895 163.74 74.1335C163.62 74.0015 163.56 73.8395 163.56 73.6475C163.56 73.5755 163.56 73.5095 163.56 73.4495C163.572 73.3775 163.584 73.3055 163.596 73.2335C163.632 73.1375 163.71 73.0175 163.83 72.8735C163.902 72.8135 164.016 72.7655 164.172 72.7295C164.244 72.7055 164.316 72.6875 164.388 72.6755C164.46 72.6515 164.544 72.6335 164.64 72.6215C164.712 72.6095 164.79 72.6035 164.874 72.6035C164.958 72.6035 165.042 72.6035 165.126 72.6035H166.764C166.896 72.5915 167.046 72.6095 167.214 72.6575C167.394 72.6935 167.532 72.7535 167.628 72.8375C167.664 72.8855 167.7 72.9335 167.736 72.9815C167.772 73.0295 167.802 73.0835 167.826 73.1435C167.874 73.2755 167.904 73.4075 167.916 73.5395C167.928 73.6115 167.934 73.6895 167.934 73.7735C167.946 73.8455 167.952 73.9115 167.952 73.9715V74.7095ZM181.603 67.0235C181.615 67.0835 181.615 67.1435 181.603 67.2035C181.603 67.2635 181.585 67.3295 181.549 67.4015C181.501 67.5695 181.447 67.7195 181.387 67.8515C181.315 68.0195 181.225 68.1635 181.117 68.2835C181.069 68.3555 181.021 68.4275 180.973 68.4995C180.937 68.5595 180.901 68.6195 180.865 68.6795L180.631 68.9855L178.327 72.3155L177.913 72.8375V77.6255C177.889 77.6855 177.877 77.7455 177.877 77.8055C177.877 77.8655 177.871 77.9315 177.859 78.0035C177.835 78.0635 177.817 78.1235 177.805 78.1835C177.793 78.2315 177.775 78.2855 177.751 78.3455C177.727 78.3935 177.715 78.4295 177.715 78.4535C177.703 78.4775 177.691 78.4955 177.679 78.5075C177.679 78.5195 177.673 78.5375 177.661 78.5615C177.589 78.6815 177.487 78.7895 177.355 78.8855C177.091 79.0175 176.791 79.0475 176.455 78.9755C176.263 78.9515 176.119 78.8915 176.023 78.7955C175.963 78.7595 175.915 78.7175 175.879 78.6695C175.843 78.6215 175.807 78.5675 175.771 78.5075C175.747 78.4355 175.723 78.3695 175.699 78.3095C175.675 78.2495 175.657 78.1895 175.645 78.1295C175.621 78.0695 175.609 78.0155 175.609 77.9675C175.609 77.9075 175.609 77.8535 175.609 77.8055V72.8915L175.213 72.2795L172.873 68.9675L172.675 68.6435C172.603 68.5355 172.513 68.4095 172.405 68.2655C172.309 68.1335 172.225 67.9895 172.153 67.8335C172.105 67.7615 172.063 67.6895 172.027 67.6175C172.003 67.5335 171.979 67.4495 171.955 67.3655C171.919 67.2455 171.913 67.1255 171.937 67.0055C171.973 66.8495 172.045 66.7175 172.153 66.6095C172.273 66.5015 172.399 66.4175 172.531 66.3575C172.699 66.2375 172.891 66.1895 173.107 66.2135C173.239 66.2135 173.353 66.2375 173.449 66.2855C173.545 66.3335 173.641 66.3875 173.737 66.4475C173.845 66.5315 173.947 66.6215 174.043 66.7175C174.151 66.8135 174.247 66.9155 174.331 67.0235C174.427 67.1435 174.517 67.2575 174.601 67.3655C174.685 67.4615 174.769 67.5755 174.853 67.7075L174.907 67.7795C175.195 68.1635 175.465 68.5355 175.717 68.8955C175.969 69.2435 176.233 69.6215 176.509 70.0295C176.533 70.0535 176.569 70.1015 176.617 70.1735C176.665 70.2455 176.719 70.3295 176.779 70.4255C176.827 70.3415 176.869 70.2695 176.905 70.2095C176.953 70.1375 176.989 70.0895 177.013 70.0655C177.289 69.6575 177.553 69.2735 177.805 68.9135C178.057 68.5535 178.327 68.1815 178.615 67.7975L178.651 67.7255C178.747 67.6175 178.831 67.5095 178.903 67.4015C178.987 67.2815 179.077 67.1615 179.173 67.0415C179.329 66.8255 179.539 66.6395 179.803 66.4835C179.995 66.3515 180.193 66.2675 180.397 66.2315C180.625 66.2075 180.823 66.2555 180.991 66.3755C181.063 66.4235 181.129 66.4655 181.189 66.5015C181.261 66.5375 181.321 66.5795 181.369 66.6275C181.465 66.7355 181.543 66.8675 181.603 67.0235Z" fill="#345B77"/>
<circle cx="223.101" cy="37.9935" r="18" stroke="#345B77" stroke-width="6"/>
<path d="M175.6 8.02624C178.652 1.2574 183.491 -0.624653 185.066 0.160027C180.739 4.04131 181.461 9.45875 182.362 11.6825C186.257 7.80154 190.477 10.0653 192.1 11.6825C189.554 11.1789 184.97 11.9301 183.735 17.7538C191.593 21.1105 197.1 28.9082 197.101 37.993C197.1 50.1432 187.251 59.993 175.101 59.993C162.95 59.993 153.101 50.1432 153.101 37.993C153.101 28.5594 159.039 20.5132 167.381 17.3866C166.035 11.8985 161.591 11.1897 159.101 11.6825C160.724 10.0653 164.943 7.80144 168.838 11.6825C169.739 9.45863 170.46 4.04128 166.133 0.160027C167.708 -0.624938 172.547 1.25728 175.6 8.02624ZM184.683 20.1483C184.338 19.9874 183.921 20.1102 183.722 20.4432C183.522 20.7766 183.612 21.2025 183.917 21.4296L183.98 21.4716L184.477 21.7792C186.931 23.3498 188.999 25.459 190.522 27.9491C192.147 30.6051 193.103 33.6159 193.309 36.7225C193.501 39.6351 193.029 42.551 191.931 45.2499L191.702 45.787C190.442 48.6339 188.509 51.1331 186.07 53.0692C185.746 53.3268 185.693 53.7987 185.95 54.1229C186.208 54.4469 186.68 54.5005 187.004 54.243C189.632 52.1561 191.715 49.463 193.074 46.3944L193.319 45.8153C194.503 42.9062 195.013 39.7633 194.806 36.6239C194.584 33.275 193.553 30.029 191.802 27.1659C190.16 24.4818 187.931 22.2085 185.285 20.5155L184.751 20.1844L184.683 20.1483Z" fill="#EA465F"/>
<path d="M132.601 16.9935C140.609 16.9935 147.101 23.4854 147.101 31.4935V54.9935C147.101 56.6504 145.757 57.9935 144.101 57.9935C142.444 57.9935 141.101 56.6504 141.101 54.9935V31.4935C141.101 26.7991 137.295 22.9935 132.601 22.9935C127.906 22.9935 124.101 26.7991 124.101 31.4935V54.9935C124.101 56.6504 122.757 57.9935 121.101 57.9935C119.444 57.9935 118.101 56.6504 118.101 54.9935V31.4935C118.101 26.7991 114.295 22.9935 109.601 22.9935C104.906 22.9935 101.101 26.7991 101.101 31.4935V54.9935C101.101 56.6504 99.7574 57.9935 98.1006 57.9935C96.4437 57.9935 95.1006 56.6504 95.1006 54.9935V31.4935C95.1006 23.4854 101.592 16.9935 109.601 16.9935C114.285 16.9935 118.45 19.215 121.101 22.6615C123.751 19.215 127.916 16.9935 132.601 16.9935Z" fill="#345B77"/>
<path d="M67.1006 15.9928C79.2506 15.9928 89.1002 25.8429 89.1006 37.9928C89.1006 50.1431 79.2509 59.9928 67.1006 59.9928C54.9503 59.9928 45.1006 50.1431 45.1006 37.9928C45.101 25.8429 54.9506 15.9928 67.1006 15.9928ZM68.1553 53.7741C67.6224 55.6897 68.9299 56.0247 69.6504 55.9528C70.1592 56.4157 70.731 54.9357 70.9531 54.1373C71.7151 52.6483 70.506 52.0942 69.8066 52.0035L68.1553 53.7741ZM63.2988 50.0563C62.7349 49.6635 62.3587 51.205 62.2412 52.025C61.6771 53.5995 62.9461 53.9937 63.6514 53.9938L65.0625 52.025C65.3445 50.0567 64.0041 49.8923 63.2988 50.0563ZM80.4033 49.2057C80.1449 48.5684 78.989 49.6555 78.4434 50.2789C77.1125 51.2912 77.9616 52.3133 78.5527 52.6979L80.8086 51.817C82.1183 50.3207 81.084 49.4527 80.4033 49.2057ZM74.7617 46.0397C74.3057 45.5258 73.5782 46.9352 73.2715 47.7047C72.3535 49.1029 73.4951 49.7842 74.1807 49.9498L76.0137 48.3668C76.7497 46.5199 75.4857 46.0458 74.7617 46.0397ZM67.2988 45.0563C66.7349 44.6635 66.3587 46.205 66.2412 47.025C65.6771 48.5995 66.9461 48.9937 67.6514 48.9938L69.0625 47.025C69.3445 45.0567 68.0041 44.8923 67.2988 45.0563ZM56.2988 44.0563C55.7349 43.6635 55.3587 45.205 55.2412 46.025C54.6771 47.5995 55.9461 47.9937 56.6514 47.9938L58.0625 46.025C58.3445 44.0567 57.0041 43.8923 56.2988 44.0563ZM63.6709 44.5602C62.6037 42.883 61.4803 43.6309 61.0518 44.2145C60.3675 44.2831 61.0856 45.698 61.5303 46.3971C62.1271 47.9592 63.3464 47.4323 63.8818 46.9733L63.6709 44.5602ZM51.2988 42.0563C50.7349 41.6635 50.3587 43.205 50.2412 44.025C49.6771 45.5995 50.9461 45.9937 51.6514 45.9938L53.0625 44.025C53.3445 42.0567 52.0041 41.8923 51.2988 42.0563ZM72.8193 41.0455C72.3785 40.5178 71.6093 41.9063 71.2803 42.6666C70.3223 44.0372 71.4436 44.7506 72.124 44.9362L74.002 43.4078C74.7914 41.5835 73.5429 41.0729 72.8193 41.0455ZM65.2988 38.0563C64.7349 37.6635 64.3587 39.205 64.2412 40.025C63.6771 41.5995 64.9461 41.9937 65.6514 41.9938L67.0625 40.025C67.3445 38.0567 66.0041 37.8923 65.2988 38.0563ZM58.2988 37.0563C57.7349 36.6635 57.3587 38.205 57.2412 39.025C56.6771 40.5995 57.9461 40.9937 58.6514 40.9938L60.0625 39.025C60.3445 37.0567 59.0041 36.8923 58.2988 37.0563ZM52.2988 36.0563C51.7349 35.6635 51.3587 37.205 51.2412 38.025C50.6771 39.5995 51.9461 39.9937 52.6514 39.9938L54.0625 38.025C54.3445 36.0567 53.0041 35.8923 52.2988 36.0563ZM70.2988 35.0563C69.7349 34.6635 69.3587 36.205 69.2412 37.025C68.6771 38.5995 69.9461 38.9937 70.6514 38.9938L72.0625 37.025C72.3445 35.0567 71.0041 34.8923 70.2988 35.0563ZM63.2988 31.0563C62.7349 30.6635 62.3587 32.205 62.2412 33.025C61.6771 34.5995 62.9461 34.9937 63.6514 34.9938L65.0625 33.025C65.3445 31.0567 64.0041 30.8923 63.2988 31.0563ZM56.2129 31.9616C55.8597 33.9184 57.1926 34.1311 57.9033 33.9928C58.4528 34.4063 58.8841 32.8794 59.0312 32.0641C59.652 30.5109 58.3981 30.0711 57.6934 30.0455L56.2129 31.9616ZM52.2471 29.1432C51.9347 28.5306 50.8766 29.7134 50.3867 30.3815C49.1476 31.5048 50.082 32.4497 50.7041 32.7819L52.875 31.7096C54.0505 30.1065 52.9465 29.3309 52.2471 29.1432ZM60.2988 24.0563C59.7349 23.6635 59.3587 25.205 59.2412 26.025C58.6771 27.5995 59.9461 27.9937 60.6514 27.9938L62.0625 26.025C62.3445 24.0567 61.0041 23.8923 60.2988 24.0563ZM50.0713 10.8287C50.5807 9.70475 52.9081 9.65997 55.2695 10.7291L55.7031 10.9381C57.8117 12.0188 59.1016 13.6477 58.625 14.7018L58.5723 14.8034C57.9709 15.8276 55.7142 15.8367 53.4258 14.8004L52.9941 14.5924C50.8852 13.5117 49.5945 11.8829 50.0713 10.8287ZM52.0049 11.4557C51.8017 11.4596 51.6569 11.4781 51.5566 11.4996C51.6065 11.5892 51.687 11.7112 51.8184 11.8668C52.252 12.3804 53.0213 12.9706 54.0449 13.4342C55.0687 13.8978 56.0203 14.0877 56.6924 14.0748C56.8956 14.0709 57.0395 14.0495 57.1396 14.028C57.0897 13.9386 57.0094 13.8173 56.8789 13.6627C56.4452 13.1492 55.6749 12.5589 54.6514 12.0953C53.6279 11.632 52.6769 11.4429 52.0049 11.4557ZM62.332 4.11195C63.5644 4.04637 64.6753 6.09177 64.8135 8.68031L64.8271 9.16077C64.8387 11.5308 63.9866 13.4264 62.8311 13.4879L62.7168 13.4889C61.5307 13.4266 60.4842 11.427 60.3506 8.91859L60.3369 8.43909C60.3254 6.06942 61.1767 4.17386 62.332 4.11195ZM62.4199 5.73988C62.3634 5.82535 62.2915 5.95226 62.2139 6.14027C61.9576 6.76159 61.789 7.71657 61.8486 8.83851C61.9084 9.96065 62.1783 10.8932 62.499 11.484C62.5959 11.6622 62.6799 11.781 62.7451 11.86C62.8015 11.7745 62.8729 11.647 62.9502 11.4596C63.2064 10.8381 63.3752 9.88251 63.3154 8.76038C63.2556 7.63872 62.9867 6.70746 62.666 6.11683C62.5692 5.93855 62.4851 5.81891 62.4199 5.73988Z" fill="#EA465F"/>
<path d="M12.9229 18.6515C17.4643 16.7314 22.5365 16.4702 27.251 17.9142C31.9653 19.3582 36.021 22.415 38.708 26.549C41.395 30.6832 42.542 35.6318 41.9473 40.5265C41.3525 45.4209 39.0546 49.9501 35.4561 53.3205C31.8573 56.6909 27.1867 58.688 22.2637 58.9611C18.589 59.1649 14.9479 58.3989 11.6953 56.7697L11.0508 56.4318C9.59673 55.6392 9.33285 53.7388 10.3242 52.4123C11.3157 51.0861 13.1868 50.8466 14.6836 51.5548C16.9295 52.6175 19.4196 53.1121 21.9316 52.9728C25.4488 52.7777 28.7854 51.3514 31.3565 48.9435C33.9274 46.5356 35.5693 43.2997 35.9941 39.8029C36.419 36.306 35.5993 32.7711 33.6797 29.8175C31.7601 26.864 28.8622 24.6803 25.4941 23.6486C22.1261 22.617 18.5023 22.8032 15.2578 24.175C12.0134 25.5468 9.35546 28.0167 7.74903 31.1515L7.54005 31.5734C6.53345 33.6995 6.04612 36.022 6.10157 38.3507C6.10947 38.683 6.07397 39.0131 6.00294 39.3322L6.08888 74.9787L6.08497 75.133C6.00837 76.7182 4.70076 77.9827 3.09571 77.9865C1.49073 77.9902 0.176952 76.7325 0.0927814 75.1476L0.0888752 74.9933L7.98648e-06 37.9933C-0.000668634 37.7007 0.0416682 37.4181 0.119149 37.1505C0.240569 34.1288 1.01217 31.1462 2.41114 28.4162C4.65977 24.0281 8.38141 20.5717 12.9229 18.6515Z" fill="#345B77"/>
</svg>
