<svg width="245" height="78" viewBox="0 0 245 78" fill="none" xmlns="http://www.w3.org/2000/svg">
<path d="M13.0234 18.6582C17.5649 16.7381 22.6371 16.4768 27.3516 17.9209C32.0658 19.3649 36.1216 22.4217 38.8086 26.5557C41.4955 30.6899 42.6426 35.6385 42.0479 40.5332C41.4531 45.4276 39.1551 49.9568 35.5566 53.3271C31.9578 56.6976 27.2873 58.6947 22.3643 58.9678C18.6896 59.1716 15.0485 58.4056 11.7959 56.7764L11.1514 56.4385C9.69734 55.6459 9.43344 53.7454 10.4248 52.4189C11.4163 51.0928 13.2874 50.8533 14.7842 51.5615C17.0301 52.6242 19.5202 53.1188 22.0322 52.9795C25.5493 52.7844 28.886 51.3581 31.457 48.9502C34.028 46.5423 35.6698 43.3063 36.0947 39.8096C36.5196 36.3127 35.6999 32.7778 33.7803 29.8242C31.8606 26.8707 28.9628 24.6869 25.5947 23.6553C22.2267 22.6237 18.6028 22.8099 15.3584 24.1816C12.114 25.5535 9.45604 28.0234 7.84961 31.1582L7.64062 31.5801C6.63404 33.7062 6.14671 36.0287 6.20215 38.3574C6.21005 38.6897 6.17453 39.0198 6.10352 39.3389L6.18945 74.9854L6.18555 75.1396C6.10894 76.7249 4.80134 77.9893 3.19629 77.9932C1.59131 77.9969 0.27753 76.7391 0.193359 75.1543L0.189453 75L0.100586 38C0.0999174 37.7075 0.142253 37.4247 0.219727 37.1572C0.341158 34.1355 1.11276 31.1529 2.51172 28.4229C4.76036 24.0348 8.48201 20.5783 13.0234 18.6582ZM67.2012 16C79.3512 16 89.2008 25.8501 89.2012 38C89.2009 50.1501 79.3513 60 67.2012 60C55.0511 60 45.2014 50.1501 45.2012 38C45.2015 25.8501 55.0511 16 67.2012 16ZM175.7 8.0332C178.753 1.26436 183.591 -0.617688 185.167 0.166992C180.84 4.04827 181.561 9.46573 182.463 11.6895C186.358 7.8085 190.577 10.0722 192.2 11.6895C189.655 11.1859 185.071 11.937 183.836 17.7607C191.694 21.1175 197.201 28.9151 197.201 38C197.201 50.15 187.351 60 175.201 60C163.051 60 153.201 50.15 153.201 38C153.201 28.5664 159.139 20.5202 167.481 17.3936C166.135 11.9055 161.692 11.1967 159.201 11.6895C160.824 10.0722 165.044 7.8084 168.938 11.6895C169.84 9.46561 170.561 4.04824 166.233 0.166992C167.809 -0.617973 172.647 1.26425 175.7 8.0332ZM223.201 17C234.799 17 244.201 26.4021 244.201 38C244.201 49.598 234.799 59 223.201 59C211.603 59 202.201 49.598 202.201 38C202.201 26.4021 211.603 17 223.201 17ZM132.701 17C140.709 17 147.201 23.492 147.201 31.5V55C147.201 56.6569 145.858 58 144.201 58C142.544 58 141.201 56.6569 141.201 55V31.5C141.201 26.8057 137.396 23 132.701 23C128.007 23 124.201 26.8057 124.201 31.5V55C124.201 56.6569 122.858 58 121.201 58C119.544 58 118.201 56.6569 118.201 55V31.5C118.201 26.8057 114.396 23 109.701 23C105.007 23 101.201 26.8057 101.201 31.5V55C101.201 56.6569 99.858 58 98.2012 58C96.5443 58 95.2012 56.6569 95.2012 55V31.5C95.2013 23.492 101.693 17 109.701 17C114.385 17 118.55 19.2216 121.201 22.668C123.852 19.2216 128.017 17 132.701 17ZM68.2559 53.7812C67.7233 55.6965 69.0305 56.0319 69.751 55.96C70.2596 56.4222 70.8316 54.9428 71.0537 54.1445C71.8157 52.6555 70.6066 52.1015 69.9072 52.0107L68.2559 53.7812ZM184.783 20.1553C184.439 19.9943 184.022 20.1171 183.822 20.4502C183.623 20.7835 183.713 21.2095 184.018 21.4365L184.081 21.4785L184.577 21.7861C187.031 23.3568 189.1 25.466 190.623 27.9561C192.247 30.6121 193.204 33.6229 193.409 36.7295C193.602 39.642 193.13 42.558 192.031 45.2568L191.803 45.7939C190.542 48.6408 188.609 51.1401 186.171 53.0762C185.847 53.3338 185.794 53.8057 186.051 54.1299C186.308 54.4537 186.78 54.5073 187.104 54.25C189.733 52.1631 191.816 49.4699 193.175 46.4014L193.42 45.8223C194.604 42.9132 195.114 39.7702 194.906 36.6309C194.685 33.282 193.654 30.0359 191.902 27.1729C190.261 24.4888 188.031 22.2155 185.386 20.5225L184.852 20.1914L184.783 20.1553ZM63.3994 50.0635C62.8354 49.6707 62.4593 51.2122 62.3418 52.0322C61.7781 53.6064 63.0467 54.0009 63.752 54.001L65.1631 52.0322C65.4451 50.0639 64.1046 49.8994 63.3994 50.0635ZM223.201 23C214.917 23 208.201 29.7158 208.201 38C208.201 46.2843 214.917 53 223.201 53C231.485 53 238.201 46.2843 238.201 38C238.201 29.7158 231.485 23 223.201 23ZM80.5039 49.2129C80.2455 48.5756 79.0896 49.6627 78.5439 50.2861C77.2134 51.2984 78.0622 52.3205 78.6533 52.7051L80.9092 51.8242C82.2187 50.328 81.1845 49.46 80.5039 49.2129ZM74.8623 46.0469C74.4063 45.533 73.6788 46.9424 73.3721 47.7119C72.4544 49.1099 73.5957 49.7914 74.2812 49.957L76.1143 48.374C76.8503 46.5271 75.5863 46.053 74.8623 46.0469ZM67.3994 45.0635C66.8354 44.6707 66.4593 46.2122 66.3418 47.0322C65.7781 48.6064 67.0467 49.0009 67.752 49.001L69.1631 47.0322C69.4451 45.0639 68.1046 44.8994 67.3994 45.0635ZM56.3994 44.0635C55.8354 43.6707 55.4593 45.2122 55.3418 46.0322C54.7781 47.6064 56.0467 48.0009 56.752 48.001L58.1631 46.0322C58.4451 44.0639 57.1046 43.8994 56.3994 44.0635ZM63.7715 44.5674C62.7042 42.8902 61.5809 43.6381 61.1523 44.2217C60.4681 44.2904 61.1862 45.7052 61.6309 46.4043C62.2277 47.9657 63.4469 47.4394 63.9824 46.9805L63.7715 44.5674ZM51.3994 42.0635C50.8354 41.6707 50.4593 43.2122 50.3418 44.0322C49.7781 45.6064 51.0467 46.0009 51.752 46.001L53.1631 44.0322C53.4451 42.0639 52.1046 41.8994 51.3994 42.0635ZM72.9199 41.0527C72.4791 40.525 71.7099 41.9135 71.3809 42.6738C70.4233 44.0442 71.5443 44.7579 72.2246 44.9434L74.1025 43.415C74.8919 41.5907 73.6435 41.0801 72.9199 41.0527ZM65.3994 38.0635C64.8354 37.6707 64.4593 39.2122 64.3418 40.0322C63.7781 41.6064 65.0467 42.0009 65.752 42.001L67.1631 40.0322C67.4451 38.0639 66.1046 37.8994 65.3994 38.0635ZM58.3994 37.0635C57.8354 36.6707 57.4593 38.2122 57.3418 39.0322C56.7781 40.6064 58.0467 41.0009 58.752 41.001L60.1631 39.0322C60.4451 37.0639 59.1046 36.8994 58.3994 37.0635ZM52.3994 36.0635C51.8354 35.6707 51.4593 37.2122 51.3418 38.0322C50.7781 39.6064 52.0467 40.0009 52.752 40.001L54.1631 38.0322C54.4451 36.0639 53.1046 35.8994 52.3994 36.0635ZM70.3994 35.0635C69.8354 34.6707 69.4593 36.2122 69.3418 37.0322C68.7781 38.6064 70.0467 39.0009 70.752 39.001L72.1631 37.0322C72.4451 35.0639 71.1046 34.8994 70.3994 35.0635ZM63.3994 31.0635C62.8354 30.6707 62.4593 32.2122 62.3418 33.0322C61.7781 34.6064 63.0467 35.0009 63.752 35.001L65.1631 33.0322C65.4451 31.0639 64.1046 30.8994 63.3994 31.0635ZM56.3135 31.9688C55.9606 33.9251 57.2932 34.1383 58.0039 34C58.5532 34.4129 58.9846 32.8866 59.1318 32.0713C59.7526 30.5181 58.4987 30.0783 57.7939 30.0527L56.3135 31.9688ZM52.3477 29.1504C52.0353 28.5378 50.9772 29.7206 50.4873 30.3887C49.2485 31.5119 50.1826 32.4569 50.8047 32.7891L52.9756 31.7168C54.1511 30.1137 53.0471 29.3381 52.3477 29.1504ZM60.3994 24.0635C59.8354 23.6707 59.4593 25.2122 59.3418 26.0322C58.7781 27.6064 60.0467 28.0009 60.752 28.001L62.1631 26.0322C62.4451 24.0639 61.1046 23.8994 60.3994 24.0635ZM50.1719 10.8359C50.6813 9.71194 53.0086 9.66716 55.3701 10.7363L55.8037 10.9453C57.9122 12.026 59.2022 13.6549 58.7256 14.709L58.6729 14.8105C58.0712 15.8344 55.8145 15.8437 53.5264 14.8076L53.0947 14.5996C50.986 13.5191 49.6956 11.8901 50.1719 10.8359ZM52.1055 11.4629C51.9023 11.4668 51.7575 11.4853 51.6572 11.5068C51.7071 11.5964 51.7878 11.7186 51.9189 11.874C52.3527 12.3875 53.1221 12.9779 54.1455 13.4414C55.1692 13.9049 56.1209 14.0949 56.793 14.082C56.9961 14.0781 57.1401 14.0567 57.2402 14.0352C57.1903 13.9458 57.1098 13.8243 56.9795 13.6699C56.5458 13.1564 55.7754 12.5661 54.752 12.1025C53.7285 11.6391 52.7775 11.4501 52.1055 11.4629ZM62.4326 4.11914C63.665 4.05356 64.7759 6.09897 64.9141 8.6875L64.9277 9.16797C64.9392 11.5378 64.0871 13.4336 62.9316 13.4951L62.8174 13.4961C61.6314 13.4338 60.5849 11.434 60.4512 8.92578L60.4375 8.44629C60.426 6.07663 61.2773 4.18108 62.4326 4.11914ZM62.5205 5.74707C62.464 5.83254 62.3919 5.95968 62.3145 6.14746C62.0583 6.7688 61.8896 7.724 61.9492 8.8457C62.009 9.96764 62.2789 10.9005 62.5996 11.4912C62.6964 11.6692 62.7806 11.7883 62.8457 11.8672C62.9021 11.7817 62.9736 11.6539 63.0508 11.4668C63.307 10.8454 63.4757 9.88951 63.416 8.76758C63.3562 7.64613 63.0872 6.71467 62.7666 6.12402C62.6699 5.94594 62.5857 5.82611 62.5205 5.74707Z" fill="#EA465F"/>
</svg>
