<svg width="245" height="78" viewBox="0 0 245 78" fill="none" xmlns="http://www.w3.org/2000/svg">
<path d="M13.3252 18.658C17.8666 16.7379 22.9389 16.4766 27.6533 17.9207C32.3676 19.3647 36.4234 22.4215 39.1104 26.5554C41.7973 30.6897 42.9443 35.6383 42.3496 40.533C41.7549 45.4274 39.4569 49.9565 35.8584 53.3269C32.2596 56.6974 27.5891 58.6945 22.666 58.9676C18.9913 59.1714 15.3503 58.4054 12.0977 56.7761L11.4531 56.4383C9.99911 55.6457 9.73521 53.7452 10.7266 52.4187C11.7181 51.0926 13.5892 50.8531 15.0859 51.5613C17.3318 52.624 19.822 53.1186 22.334 52.9793C25.8511 52.7841 29.1878 51.3579 31.7588 48.95C34.3297 46.5421 35.9716 43.3061 36.3965 39.8093C36.8213 36.3125 36.0016 32.7776 34.082 29.824C32.1624 26.8705 29.2646 24.6867 25.8965 23.6551C22.5284 22.6235 18.9046 22.8097 15.6602 24.1814C12.4158 25.5532 9.75781 28.0231 8.15137 31.158L7.94239 31.5799C6.93581 33.7059 6.44847 36.0285 6.50391 38.3572C6.51182 38.6895 6.4763 39.0195 6.40528 39.3386L6.49122 74.9851L6.48731 75.1394C6.41071 76.7247 5.1031 77.9891 3.49805 77.9929C1.89307 77.9967 0.579295 76.7389 0.495125 75.1541L0.491219 74.9998L0.402352 37.9998C0.401683 37.7072 0.444019 37.4245 0.521492 37.157C0.642923 34.1353 1.41453 31.1527 2.81348 28.4226C5.06212 24.0346 8.78377 20.5781 13.3252 18.658ZM67.5029 15.9998C79.6531 15.9998 89.5027 25.8497 89.5029 37.9998C89.5028 50.15 79.6531 59.9998 67.5029 59.9998C55.3527 59.9998 45.503 50.15 45.5029 37.9998C45.5032 25.8497 55.3528 15.9998 67.5029 15.9998ZM176.002 8.03298C179.055 1.26414 183.893 -0.617909 185.469 0.166771C181.142 4.04805 181.863 9.46551 182.765 11.6892C186.659 7.80828 190.879 10.072 192.502 11.6892C189.957 11.1857 185.372 11.9368 184.138 17.7605C191.995 21.1172 197.503 28.9149 197.503 37.9998C197.503 50.1498 187.653 59.9998 175.503 59.9998C163.353 59.9998 153.503 50.1498 153.503 37.9998C153.503 28.5661 159.441 20.5199 167.783 17.3933C166.437 11.9053 161.994 11.1965 159.503 11.6892C161.126 10.072 165.345 7.80818 169.24 11.6892C170.142 9.46539 170.862 4.04802 166.535 0.166771C168.111 -0.618193 172.949 1.26403 176.002 8.03298ZM223.503 16.9998C235.101 16.9998 244.503 26.4019 244.503 37.9998C244.503 49.5978 235.101 58.9998 223.503 58.9998C211.905 58.9998 202.503 49.5978 202.503 37.9998C202.503 26.4019 211.905 16.9998 223.503 16.9998ZM133.003 16.9998C141.011 16.9998 147.503 23.4918 147.503 31.4998V54.9998C147.503 56.6566 146.16 57.9998 144.503 57.9998C142.846 57.9998 141.503 56.6566 141.503 54.9998V31.4998C141.503 26.8055 137.697 22.9998 133.003 22.9998C128.309 22.9998 124.503 26.8055 124.503 31.4998V54.9998C124.503 56.6566 123.16 57.9998 121.503 57.9998C119.846 57.9998 118.503 56.6566 118.503 54.9998V31.4998C118.503 26.8055 114.697 22.9998 110.003 22.9998C105.309 22.9998 101.503 26.8055 101.503 31.4998V54.9998C101.503 56.6566 100.16 57.9998 98.5029 57.9998C96.8461 57.9998 95.5029 56.6566 95.5029 54.9998V31.4998C95.5031 23.4918 101.995 16.9998 110.003 16.9998C114.687 16.9998 118.852 19.2213 121.503 22.6677C124.154 19.2213 128.319 16.9998 133.003 16.9998ZM68.5576 53.781C68.025 55.6964 69.3323 56.0316 70.0527 55.9597C70.5615 56.4223 71.1333 54.9427 71.3555 54.1443C72.1175 52.6552 70.9084 52.1012 70.209 52.0105L68.5576 53.781ZM185.085 20.1551C184.741 19.9941 184.323 20.1169 184.124 20.45C183.925 20.7833 184.014 21.2093 184.319 21.4363L184.383 21.4783L184.879 21.7859C187.333 23.3565 189.402 25.4658 190.925 27.9558C192.549 30.6118 193.505 33.6227 193.711 36.7293C193.904 39.6417 193.431 42.5578 192.333 45.2566L192.104 45.7937C190.844 48.6406 188.911 51.1399 186.473 53.076C186.149 53.3336 186.095 53.8055 186.353 54.1297C186.61 54.4535 187.082 54.5071 187.406 54.2498C190.034 52.1629 192.118 49.4697 193.477 46.4011L193.722 45.822C194.906 42.913 195.416 39.77 195.208 36.6306C194.986 33.2818 193.955 30.0357 192.204 27.1726C190.562 24.4886 188.333 22.2152 185.688 20.5222L185.153 20.1912L185.085 20.1551ZM63.7012 50.0633C63.1371 49.6701 62.7611 51.2119 62.6436 52.032C62.0798 53.6062 63.3485 54.0006 64.0537 54.0008L65.4649 52.032C65.7469 50.0636 64.4064 49.8992 63.7012 50.0633ZM223.503 22.9998C215.219 22.9998 208.503 29.7156 208.503 37.9998C208.503 46.2841 215.219 52.9998 223.503 52.9998C231.787 52.9998 238.503 46.2841 238.503 37.9998C238.503 29.7156 231.787 22.9998 223.503 22.9998ZM80.8057 49.2127C80.5473 48.575 79.3914 49.6625 78.8457 50.2859C77.515 51.2982 78.364 52.3204 78.9551 52.7049L81.2109 51.824C82.5206 50.3277 81.4863 49.4597 80.8057 49.2127ZM75.1641 46.0467C74.7081 45.5323 73.9806 46.9421 73.6738 47.7117C72.7561 49.1097 73.8975 49.7912 74.583 49.9568L76.416 48.3738C77.1521 46.5268 75.8881 46.0528 75.1641 46.0467ZM67.7012 45.0633C67.1371 44.6701 66.7611 46.2119 66.6436 47.032C66.0797 48.6062 67.3485 49.0006 68.0537 49.0008L69.4649 47.032C69.7469 45.0636 68.4064 44.8992 67.7012 45.0633ZM56.7012 44.0633C56.1371 43.6701 55.7611 45.2119 55.6436 46.032C55.0798 47.6062 56.3485 48.0006 57.0537 48.0008L58.4649 46.032C58.7469 44.0636 57.4064 43.8992 56.7012 44.0633ZM64.0732 44.5672C63.006 42.8898 61.8826 43.6379 61.4541 44.2215C60.7698 44.2902 61.4879 45.7051 61.9326 46.4041C62.5294 47.9656 63.7487 47.4392 64.2842 46.9802L64.0732 44.5672ZM51.7012 42.0633C51.1371 41.6701 50.7611 43.2119 50.6436 44.032C50.0798 45.6062 51.3485 46.0006 52.0537 46.0008L53.4649 44.032C53.7469 42.0636 52.4064 41.8992 51.7012 42.0633ZM73.2217 41.0525C72.7809 40.5243 72.0117 41.9132 71.6826 42.6736C70.725 44.0441 71.846 44.7577 72.5264 44.9431L74.4043 43.4148C75.1938 41.5904 73.9453 41.0799 73.2217 41.0525ZM65.7012 38.0633C65.1371 37.6701 64.7611 39.2119 64.6436 40.032C64.0798 41.6062 65.3485 42.0006 66.0537 42.0008L67.4649 40.032C67.7469 38.0636 66.4064 37.8992 65.7012 38.0633ZM58.7012 37.0633C58.1371 36.6701 57.7611 38.2119 57.6436 39.032C57.0798 40.6062 58.3485 41.0006 59.0537 41.0008L60.4649 39.032C60.7469 37.0636 59.4064 36.8992 58.7012 37.0633ZM52.7012 36.0633C52.1371 35.6701 51.7611 37.2119 51.6436 38.032C51.0798 39.6062 52.3485 40.0006 53.0537 40.0008L54.4649 38.032C54.7469 36.0636 53.4064 35.8992 52.7012 36.0633ZM70.7012 35.0633C70.1371 34.6701 69.7611 36.2119 69.6436 37.032C69.0798 38.6062 70.3485 39.0006 71.0537 39.0008L72.4649 37.032C72.7469 35.0636 71.4064 34.8992 70.7012 35.0633ZM63.7012 31.0633C63.1371 30.6701 62.7611 32.2119 62.6436 33.032C62.0798 34.6062 63.3485 35.0006 64.0537 35.0008L65.4649 33.032C65.7469 31.0636 64.4064 30.8992 63.7012 31.0633ZM56.6152 31.9685C56.2623 33.925 57.5949 34.1381 58.3057 33.9998C58.855 34.413 59.2864 32.8864 59.4336 32.0711C60.0545 30.5178 58.8005 30.0781 58.0957 30.0525L56.6152 31.9685ZM52.6494 29.1502C52.3371 28.5372 51.279 29.7203 50.7891 30.3885C49.5504 31.5116 50.4834 32.4566 51.1055 32.7888L53.2774 31.7166C54.4529 30.1134 53.3488 29.3379 52.6494 29.1502ZM60.7012 24.0633C60.1371 23.6701 59.7611 25.2119 59.6436 26.032C59.0798 27.6062 60.3485 28.0006 61.0537 28.0008L62.4649 26.032C62.7469 24.0636 61.4064 23.8992 60.7012 24.0633ZM50.4736 10.8357C50.9831 9.71176 53.3105 9.66608 55.6719 10.7351L56.1055 10.9441C58.2144 12.0248 59.5043 13.6547 59.0274 14.7088L58.9746 14.8103C58.3731 15.8344 56.1164 15.8436 53.8281 14.8074L53.3965 14.5984C51.2878 13.5179 49.9973 11.8899 50.4736 10.8357ZM52.4072 11.4617C52.204 11.4656 52.0592 11.4851 51.959 11.5066C52.0089 11.5962 52.0894 11.7182 52.2207 11.8738C52.6544 12.3873 53.4238 12.9776 54.4473 13.4412C55.471 13.9047 56.4227 14.0937 57.0947 14.0808C57.2979 14.0769 57.4418 14.0565 57.542 14.0349C57.4921 13.9456 57.4117 13.8243 57.2813 13.6697C56.8475 13.1562 56.0772 12.5659 55.0537 12.1023C54.0302 11.6389 53.0792 11.4489 52.4072 11.4617ZM62.7344 4.11892C63.9668 4.05334 65.0778 6.09861 65.2158 8.68728L65.2295 9.16775C65.241 11.5377 64.3889 13.4334 63.2334 13.4949H63.1191C61.9332 13.4326 60.8866 11.4338 60.7529 8.92556L60.7393 8.44607C60.7278 6.07641 61.5791 4.18086 62.7344 4.11892ZM62.8223 5.74587C62.7657 5.83137 62.6939 5.95908 62.6162 6.14724C62.36 6.7686 62.1914 7.72362 62.251 8.84548C62.3108 9.96746 62.5807 10.8993 62.9014 11.49C62.9981 11.6681 63.0823 11.787 63.1475 11.866C63.2038 11.7805 63.2754 11.6537 63.3525 11.4666C63.6087 10.8451 63.7775 9.88937 63.7178 8.76736C63.658 7.64546 63.3891 6.71347 63.0684 6.12283C62.9714 5.94442 62.8875 5.82488 62.8223 5.74587Z" fill="white"/>
</svg>
