<svg width="245" height="78" viewBox="0 0 245 78" fill="none" xmlns="http://www.w3.org/2000/svg">
<circle cx="223.101" cy="38.0002" r="18" stroke="#345B77" stroke-width="6"/>
<path d="M175.6 8.03298C178.652 1.26414 183.491 -0.617909 185.066 0.166771C180.739 4.04806 181.461 9.46549 182.362 11.6892C186.257 7.80828 190.477 10.072 192.1 11.6892C189.554 11.1857 184.97 11.9368 183.735 17.7605C191.593 21.1172 197.1 28.9149 197.101 37.9998C197.1 50.1499 187.251 59.9998 175.101 59.9998C162.95 59.9998 153.101 50.1499 153.101 37.9998C153.101 28.5661 159.039 20.5199 167.381 17.3933C166.035 11.9053 161.591 11.1965 159.101 11.6892C160.724 10.072 164.943 7.80818 168.838 11.6892C169.739 9.46537 170.46 4.04802 166.133 0.166771C167.708 -0.618193 172.547 1.26403 175.6 8.03298ZM184.683 20.1551C184.338 19.9941 183.921 20.1169 183.722 20.45C183.522 20.7833 183.612 21.2093 183.917 21.4363L183.98 21.4783L184.477 21.7859C186.931 23.3565 188.999 25.4658 190.522 27.9558C192.147 30.6119 193.103 33.6226 193.309 36.7293C193.501 39.6418 193.029 42.5577 191.931 45.2566L191.702 45.7937C190.442 48.6406 188.509 51.1399 186.07 53.076C185.746 53.3336 185.693 53.8054 185.95 54.1297C186.208 54.4536 186.68 54.5072 187.004 54.2498C189.632 52.1628 191.715 49.4698 193.074 46.4011L193.319 45.822C194.503 42.9129 195.013 39.7701 194.806 36.6306C194.584 33.2817 193.553 30.0357 191.802 27.1726C190.16 24.4886 187.931 22.2152 185.285 20.5222L184.751 20.1912L184.683 20.1551Z" fill="#EA465F"/>
<path d="M132.601 17.0002C140.609 17.0002 147.101 23.4921 147.101 31.5002V55.0002C147.101 56.6571 145.757 58.0002 144.101 58.0002C142.444 58.0002 141.101 56.6571 141.101 55.0002V31.5002C141.101 26.8058 137.295 23.0002 132.601 23.0002C127.906 23.0002 124.101 26.8058 124.101 31.5002V55.0002C124.101 56.6571 122.757 58.0002 121.101 58.0002C119.444 58.0002 118.101 56.6571 118.101 55.0002V31.5002C118.101 26.8058 114.295 23.0002 109.601 23.0002C104.906 23.0002 101.101 26.8058 101.101 31.5002V55.0002C101.101 56.6571 99.7574 58.0002 98.1006 58.0002C96.4437 58.0002 95.1006 56.6571 95.1006 55.0002V31.5002C95.1006 23.4921 101.592 17.0002 109.601 17.0002C114.285 17.0002 118.45 19.2217 121.101 22.6682C123.751 19.2217 127.916 17.0002 132.601 17.0002Z" fill="#345B77"/>
<path d="M67.1006 16.0001C79.2507 16.0001 89.1004 25.8501 89.1006 38.0001C89.1004 50.1503 79.2508 60.0001 67.1006 60.0001C54.9504 60.0001 45.1007 50.1503 45.1006 38.0001C45.1008 25.8501 54.9505 16.0001 67.1006 16.0001ZM68.1553 53.7804C67.6224 55.696 68.9299 56.031 69.6504 55.9591C70.1592 56.422 70.73 54.942 70.9521 54.1437C71.714 52.6547 70.506 52.1006 69.8066 52.0099L68.1553 53.7804ZM63.2988 50.0636C62.7349 49.6707 62.3588 51.2112 62.2412 52.0314C61.6771 53.6059 62.9461 54 63.6514 54.0001L65.0615 52.0314C65.3434 50.0633 64.004 49.8996 63.2988 50.0636ZM80.4033 49.212C80.1447 48.5751 78.989 49.6619 78.4434 50.2853C77.1123 51.2975 77.9616 52.3195 78.5527 52.7042L80.8086 51.8234C82.1181 50.3272 81.0839 49.459 80.4033 49.212ZM74.7617 46.046C74.3057 45.5328 73.5782 46.9427 73.2715 47.712C72.3539 49.1099 73.4952 49.7905 74.1807 49.9562L76.0137 48.3742C76.7498 46.5271 75.4857 46.0521 74.7617 46.046ZM67.2988 45.0636C66.7349 44.6707 66.3588 46.2112 66.2412 47.0314C65.6771 48.6059 66.9461 49 67.6514 49.0001L69.0615 47.0314C69.3434 45.0633 68.004 44.8996 67.2988 45.0636ZM56.2988 44.0636C55.7349 43.6707 55.3588 45.2112 55.2412 46.0314C54.6771 47.6059 55.9461 48 56.6514 48.0001L58.0615 46.0314C58.3434 44.0633 57.004 43.8996 56.2988 44.0636ZM63.6709 44.5675C62.6036 42.8902 61.4793 43.6372 61.0508 44.2208C60.3675 44.2901 61.0847 45.7044 61.5293 46.4034C62.1262 47.966 63.3465 47.4387 63.8818 46.9796L63.6709 44.5675ZM51.2988 42.0636C50.7349 41.6707 50.3588 43.2112 50.2412 44.0314C49.6771 45.6059 50.9461 46 51.6514 46.0001L53.0615 44.0314C53.3434 42.0633 52.004 41.8996 51.2988 42.0636ZM72.8184 41.0519C72.3775 40.5253 71.6093 41.9128 71.2803 42.673C70.3221 44.0436 71.4436 44.7579 72.124 44.9435L74.002 43.4152C74.7916 41.5904 73.5419 41.0791 72.8184 41.0519ZM65.2988 38.0636C64.7349 37.6707 64.3588 39.2112 64.2412 40.0314C63.6771 41.6059 64.9461 42 65.6514 42.0001L67.0615 40.0314C67.3434 38.0633 66.004 37.8996 65.2988 38.0636ZM58.2988 37.0636C57.7349 36.6707 57.3588 38.2112 57.2412 39.0314C56.6771 40.6059 57.9461 41 58.6514 41.0001L60.0615 39.0314C60.3434 37.0633 59.004 36.8996 58.2988 37.0636ZM52.2988 36.0636C51.7349 35.6707 51.3588 37.2112 51.2412 38.0314C50.6771 39.6059 51.9461 40 52.6514 40.0001L54.0615 38.0314C54.3434 36.0633 53.004 35.8996 52.2988 36.0636ZM70.2988 35.0636C69.7349 34.6707 69.3588 36.2112 69.2412 37.0314C68.6771 38.6059 69.9461 39 70.6514 39.0001L72.0615 37.0314C72.3434 35.0633 71.004 34.8996 70.2988 35.0636ZM63.2988 31.0636C62.7349 30.6707 62.3588 32.2112 62.2412 33.0314C61.6771 34.6059 62.9461 35 63.6514 35.0001L65.0615 33.0314C65.3434 31.0633 64.004 30.8996 63.2988 31.0636ZM56.2119 31.9689C55.859 33.9252 57.1926 34.1375 57.9033 33.9992C58.4529 34.4129 58.8841 32.8858 59.0312 32.0704C59.6518 30.5175 58.3981 30.0785 57.6934 30.0529L56.2119 31.9689ZM52.2461 29.1495C51.9336 28.5375 50.8766 29.7198 50.3867 30.3878C49.1478 31.5109 50.081 32.4558 50.7031 32.7882L52.875 31.7159C54.0505 30.1126 52.9454 29.337 52.2461 29.1495ZM60.2988 24.0636C59.7349 23.6707 59.3588 25.2112 59.2412 26.0314C58.6771 27.6059 59.9461 28 60.6514 28.0001L62.0615 26.0314C62.3434 24.0633 61.004 23.8996 60.2988 24.0636ZM50.0713 10.8351C50.5809 9.71133 52.9083 9.66646 55.2695 10.7355L55.7031 10.9445C57.812 12.0252 59.1019 13.655 58.625 14.7091L58.5723 14.8107C57.9707 15.8347 55.714 15.844 53.4258 14.8077L52.9941 14.5988C50.8851 13.518 49.5943 11.8892 50.0713 10.8351ZM52.0049 11.462C51.8016 11.4659 51.6569 11.4854 51.5566 11.507C51.6065 11.5965 51.687 11.7186 51.8184 11.8742C52.2521 12.3876 53.0215 12.977 54.0449 13.4406C55.0688 13.9042 56.0202 14.094 56.6924 14.0812C56.8955 14.0773 57.0395 14.0568 57.1396 14.0353C57.0897 13.9458 57.0096 13.8239 56.8789 13.6691C56.4451 13.1555 55.675 12.5652 54.6514 12.1017C53.6279 11.6383 52.6769 11.4493 52.0049 11.462ZM62.332 4.11829C63.5645 4.05271 64.6755 6.09886 64.8135 8.68763L64.8271 9.1681C64.8386 11.5381 63.9866 13.4337 62.8311 13.4952H62.7168C61.5307 13.4329 60.4841 11.4335 60.3506 8.92493L60.3369 8.44544C60.3255 6.07588 61.1767 4.18018 62.332 4.11829ZM62.4199 5.74622C62.3634 5.83172 62.2915 5.95935 62.2139 6.14759C61.9577 6.76895 61.789 7.72403 61.8486 8.84583C61.9084 9.96778 62.1783 10.8996 62.499 11.4904C62.5958 11.6686 62.6799 11.7873 62.7451 11.8663C62.8015 11.7808 62.8729 11.6533 62.9502 11.4659C63.2063 10.8445 63.3751 9.88944 63.3154 8.76771C63.2556 7.64577 62.9868 6.71381 62.666 6.12318C62.5691 5.94471 62.4852 5.82526 62.4199 5.74622Z" fill="#EA465F"/>
<path d="M12.9229 18.6583C17.4643 16.7382 22.5365 16.4769 27.251 17.921C31.9653 19.365 36.021 22.4218 38.708 26.5558C41.395 30.69 42.542 35.6386 41.9473 40.5333C41.3525 45.4277 39.0546 49.9569 35.4561 53.3272C31.8573 56.6977 27.1867 58.6948 22.2637 58.9679C18.589 59.1717 14.9479 58.4057 11.6953 56.7765L11.0508 56.4386C9.59673 55.646 9.33285 53.7455 10.3242 52.419C11.3157 51.0929 13.1868 50.8534 14.6836 51.5616C16.9295 52.6243 19.4196 53.1189 21.9316 52.9796C25.4488 52.7845 28.7854 51.3582 31.3565 48.9503C33.9274 46.5424 35.5693 43.3064 35.9941 39.8097C36.419 36.3128 35.5993 32.7779 33.6797 29.8243C31.7601 26.8708 28.8622 24.687 25.4941 23.6554C22.1261 22.6238 18.5023 22.81 15.2578 24.1817C12.0134 25.5536 9.35546 28.0234 7.74903 31.1583L7.54005 31.5802C6.53345 33.7063 6.04612 36.0288 6.10157 38.3575C6.10947 38.6898 6.07397 39.0198 6.00294 39.339L6.08888 74.9854L6.08497 75.1397C6.00837 76.725 4.70076 77.9894 3.09571 77.9933C1.49073 77.997 0.176952 76.7392 0.0927814 75.1544L0.0888752 75.0001L7.98648e-06 38.0001C-0.000668634 37.7075 0.0416682 37.4249 0.119149 37.1573C0.240569 34.1355 1.01217 31.153 2.41114 28.4229C4.65977 24.0349 8.38141 20.5785 12.9229 18.6583Z" fill="#345B77"/>
</svg>
