<svg width="245" height="80" viewBox="0 0 245 80" fill="none" xmlns="http://www.w3.org/2000/svg">
<path d="M163.12 66.2849C163.684 66.2249 164.236 66.2427 164.776 66.3387C165.328 66.4347 165.839 66.6091 166.307 66.8611C166.786 67.1131 167.164 67.449 167.44 67.8689C167.632 68.1809 167.783 68.5588 167.891 69.0027C167.999 69.4467 168.016 69.873 167.944 70.281C167.884 70.6409 167.758 70.8929 167.566 71.0369C167.374 71.1688 167.164 71.223 166.937 71.199C166.709 71.163 166.486 71.0669 166.271 70.9109C166.067 70.743 165.928 70.5329 165.856 70.281C165.773 70.0052 165.671 69.753 165.551 69.5252C165.431 69.2852 165.244 69.0865 164.992 68.9305C164.704 68.7506 164.398 68.6488 164.074 68.6248C163.762 68.6008 163.456 68.6372 163.156 68.7332C162.868 68.8292 162.592 68.9785 162.328 69.1824C162.076 69.3864 161.866 69.6206 161.698 69.8846C161.494 70.1846 161.338 70.5148 161.23 70.8748C161.122 71.2227 161.044 71.5885 160.996 71.9724C160.948 72.3444 160.93 72.7232 160.942 73.1072C160.966 73.4789 161.014 73.8386 161.086 74.1863C161.218 74.7742 161.422 75.3266 161.698 75.8426C161.806 76.0346 161.951 76.209 162.131 76.365C162.323 76.5089 162.533 76.6285 162.761 76.7244C162.989 76.8084 163.229 76.8625 163.48 76.8865C163.732 76.9105 163.972 76.8927 164.2 76.8328C164.524 76.7488 164.788 76.6406 164.992 76.5086C165.196 76.3646 165.359 76.1967 165.479 76.0047C165.598 75.8127 165.676 75.6027 165.712 75.3748C165.76 75.1469 165.784 74.907 165.784 74.6551V74.6365H165.37C165.25 74.6245 165.161 74.6189 165.101 74.6189C164.837 74.6189 164.578 74.5704 164.326 74.4744C164.11 74.4024 163.949 74.2885 163.841 74.1326C163.721 74.0007 163.66 73.839 163.66 73.6472V73.449C163.672 73.3771 163.684 73.305 163.696 73.2332C163.732 73.1372 163.811 73.0168 163.931 72.8728C164.003 72.8129 164.117 72.7643 164.272 72.7283C164.344 72.7043 164.416 72.6866 164.488 72.6746C164.56 72.6506 164.644 72.6329 164.74 72.6209C164.812 72.6089 164.891 72.6023 164.975 72.6023H166.864C166.996 72.5903 167.146 72.609 167.314 72.657C167.494 72.693 167.633 72.7527 167.729 72.8367C167.765 72.8847 167.8 72.9332 167.836 72.9812C167.872 73.0292 167.903 73.0825 167.927 73.1424C167.975 73.2744 168.005 73.4068 168.017 73.5388C168.029 73.6108 168.034 73.6893 168.034 73.7732C168.046 73.845 168.053 73.9107 168.053 73.9705V74.7088C168.053 75.0687 168.034 75.4345 167.998 75.8064C167.962 76.1664 167.89 76.5209 167.782 76.8689C167.674 77.2047 167.513 77.5288 167.297 77.8406C167.081 78.1406 166.786 78.4046 166.414 78.6326C166.234 78.7525 166.019 78.8553 165.767 78.9392C165.527 79.0112 165.268 79.0709 164.992 79.1189C164.728 79.1789 164.464 79.2144 164.2 79.2263C163.936 79.2503 163.69 79.2569 163.462 79.2449C162.382 79.2088 161.506 78.9504 160.834 78.4705C160.174 77.9786 159.665 77.3728 159.305 76.6531C158.957 75.9331 158.728 75.1523 158.62 74.3123C158.524 73.4605 158.506 72.6504 158.566 71.8826C158.602 71.4267 158.681 70.9349 158.801 70.407C158.933 69.879 159.118 69.3687 159.358 68.8767C159.61 68.3847 159.916 67.9407 160.276 67.5447C160.648 67.1487 161.087 66.8483 161.591 66.6443C162.059 66.4525 162.568 66.3329 163.12 66.2849ZM134.834 66.3025C134.918 66.3025 134.996 66.3091 135.068 66.3211C135.152 66.3211 135.231 66.3267 135.303 66.3387C135.375 66.3507 135.44 66.375 135.5 66.4109C135.572 66.4469 135.645 66.4945 135.717 66.5545C135.789 66.6385 135.854 66.7411 135.914 66.8611C135.962 66.993 135.992 67.1248 136.004 67.2566C136.016 67.3406 136.028 67.419 136.04 67.491C136.052 67.5629 136.059 67.6349 136.059 67.7068C136.035 67.7788 136.022 67.8507 136.022 67.9226V68.4451L135.95 76.9226L139.515 76.9588H140.36C140.432 76.9588 140.511 76.9643 140.595 76.9763C140.679 76.9764 140.763 76.9829 140.847 76.9949C140.943 77.0069 141.027 77.019 141.099 77.031C141.171 77.043 141.243 77.0608 141.314 77.0847C141.446 77.1207 141.555 77.1805 141.639 77.2644C141.771 77.3844 141.855 77.5048 141.891 77.6248C141.915 77.6847 141.927 77.7746 141.927 77.8943V78.1648C141.927 78.2607 141.908 78.3504 141.872 78.4344C141.836 78.5183 141.788 78.5968 141.729 78.6687C141.621 78.8127 141.465 78.921 141.261 78.993C140.973 79.089 140.702 79.1365 140.45 79.1365C140.318 79.1485 140.18 79.1551 140.036 79.1551C139.892 79.1551 139.748 79.1672 139.604 79.1912H139.532C138.608 79.2032 137.654 79.2032 136.67 79.1912C136.43 79.1792 136.16 79.1792 135.86 79.1912C135.56 79.2152 135.266 79.2086 134.979 79.1726C134.691 79.1486 134.427 79.0824 134.187 78.9744C133.959 78.8544 133.796 78.6688 133.7 78.4168C133.676 78.3568 133.658 78.3027 133.646 78.2547C133.635 78.1948 133.628 78.1349 133.628 78.075C133.58 77.667 133.562 77.2649 133.574 76.8689C133.586 76.473 133.593 76.0829 133.593 75.699L133.628 73.0887V69.5252C133.64 69.1892 133.652 68.8169 133.664 68.409V68.3191C133.676 68.1991 133.683 68.0788 133.683 67.9588C133.695 67.8388 133.7 67.7184 133.7 67.5984C133.724 67.3226 133.79 67.0882 133.898 66.8963C133.97 66.7165 134.097 66.5725 134.276 66.4646C134.432 66.3567 134.618 66.3026 134.834 66.3025ZM84.2207 66.1951C84.7006 66.2311 85.1504 66.3328 85.5703 66.5008C86.0023 66.6568 86.3689 66.8732 86.6689 67.1492C86.8608 67.3171 87.0589 67.5507 87.2627 67.8504C87.4786 68.1502 87.6345 68.4565 87.7305 68.7683C87.8265 69.0803 87.8265 69.3752 87.7305 69.6512C87.6464 69.9149 87.4065 70.0952 87.0107 70.1912C86.8427 70.2392 86.6925 70.2503 86.5605 70.2263C86.4286 70.1903 86.3082 70.1372 86.2002 70.0652C86.0923 69.9813 85.9905 69.885 85.8945 69.7771C85.7985 69.6691 85.708 69.5609 85.624 69.4529C85.336 69.105 85.0002 68.8707 84.6162 68.7508C84.2324 68.6189 83.8487 68.589 83.4648 68.6609C83.0928 68.7209 82.7383 68.8767 82.4023 69.1287C82.0784 69.3687 81.8265 69.6812 81.6465 70.0652C81.4546 70.4731 81.2987 70.923 81.1787 71.4148C81.0707 71.8947 81.0101 72.3865 80.998 72.8904C80.986 73.3824 81.028 73.8628 81.124 74.3308C81.232 74.7988 81.4121 75.213 81.6641 75.573C81.8561 75.861 82.0902 76.0952 82.3662 76.2752C82.6541 76.4551 82.9603 76.5811 83.2842 76.6531C83.6082 76.7251 83.9328 76.7372 84.2568 76.6892C84.5927 76.6412 84.9166 76.5329 85.2285 76.365C85.3245 76.3171 85.4263 76.2507 85.5342 76.1668C85.6542 76.0708 85.7745 75.9747 85.8945 75.8787C86.0145 75.7827 86.1349 75.6931 86.2549 75.6092C86.3869 75.5252 86.525 75.4645 86.6689 75.4285C86.8847 75.3567 87.1184 75.3632 87.3701 75.4471C87.6341 75.531 87.8328 75.7046 87.9648 75.9685C88.1208 76.3165 88.1264 76.6589 87.9824 76.9949C87.8385 77.3187 87.6106 77.6185 87.2988 77.8943C86.9869 78.1703 86.6267 78.411 86.2188 78.615C85.8229 78.8189 85.4448 78.9626 85.085 79.0467C84.689 79.1307 84.2682 79.1671 83.8242 79.1551C83.3924 79.155 82.9546 79.1009 82.5107 78.993C82.0787 78.897 81.6524 78.7523 81.2324 78.5603C80.8246 78.3564 80.4465 78.1109 80.0986 77.823C79.6786 77.475 79.3484 77.0608 79.1084 76.5808C78.8804 76.0888 78.7125 75.5664 78.6045 75.0144C78.4966 74.4627 78.4368 73.9109 78.4248 73.3592C78.4248 72.7953 78.4425 72.2671 78.4785 71.7752C78.5145 71.3312 78.604 70.8685 78.748 70.3885C78.892 69.9086 79.0908 69.441 79.3428 68.9851C79.6067 68.5173 79.9185 68.0851 80.2783 67.6892C80.6503 67.2933 81.0823 66.9564 81.5742 66.6805C81.9462 66.4645 82.3604 66.3208 82.8164 66.2488C83.2844 66.1648 83.7527 66.1471 84.2207 66.1951ZM113.912 66.0867C114.092 66.0507 114.272 66.0507 114.452 66.0867C114.632 66.1227 114.788 66.1946 114.92 66.3025C114.956 66.3385 114.992 66.3805 115.028 66.4285C115.064 66.4765 115.094 66.5307 115.118 66.5906C115.178 66.7466 115.215 66.8847 115.227 67.0047C115.263 67.1727 115.28 67.3229 115.28 67.4549V72.0447C115.292 73.6046 115.304 75.1346 115.316 76.6346C115.316 76.8024 115.322 76.9706 115.334 77.1385C115.346 77.2945 115.346 77.4568 115.334 77.6248C115.322 77.8288 115.292 78.0452 115.244 78.2732C115.208 78.501 115.094 78.6869 114.902 78.8308C114.758 78.9508 114.596 79.0227 114.416 79.0467C114.236 79.0706 114.056 79.0585 113.876 79.0105C113.708 78.9746 113.546 78.9147 113.391 78.8308C113.235 78.7348 113.108 78.621 113.012 78.489C112.604 77.9851 112.226 77.4691 111.878 76.9412C111.542 76.4013 111.2 75.8609 110.853 75.3211L109.34 73.0349C109.136 72.711 108.92 72.3508 108.692 71.9549C108.464 71.547 108.23 71.169 107.99 70.8211L107.937 77.6971V77.8592C107.936 78.0509 107.9 78.2426 107.828 78.4344C107.768 78.6144 107.66 78.7711 107.504 78.9031C107.384 78.999 107.228 79.0644 107.036 79.1004C106.736 79.1604 106.484 79.1427 106.28 79.0467C106.088 78.9507 105.932 78.819 105.812 78.6512C105.705 78.4832 105.626 78.2909 105.578 78.075C105.542 77.847 105.537 77.6249 105.561 77.409V77.1023L105.597 75.699L105.614 73.0887C105.626 72.7047 105.632 72.3147 105.632 71.9187V70.6765C105.62 70.1606 105.62 69.6147 105.632 69.0388C105.656 68.4628 105.68 67.9227 105.704 67.4187C105.728 67.1427 105.794 66.9086 105.902 66.7166C105.95 66.5487 106.076 66.4049 106.28 66.2849C106.412 66.2009 106.58 66.1468 106.784 66.1228C107 66.0989 107.186 66.1045 107.342 66.1404C107.402 66.1644 107.462 66.1952 107.522 66.2312C107.582 66.2552 107.642 66.2852 107.702 66.3211C107.762 66.369 107.816 66.4167 107.864 66.4646C107.924 66.5126 107.978 66.5667 108.026 66.6267C108.086 66.6867 108.14 66.753 108.188 66.825C108.236 66.8848 108.284 66.9448 108.332 67.0047C108.368 67.0767 108.404 67.1429 108.44 67.2029C108.476 67.2628 108.518 67.3227 108.566 67.3826L108.765 67.6707L112.922 74.2224V73.0349C112.922 72.651 112.916 72.2609 112.904 71.865C112.904 71.457 112.898 71.0363 112.886 70.6043V68.9851C112.898 68.4092 112.916 67.8689 112.94 67.365C112.94 67.1611 113 66.9268 113.12 66.6629C113.18 66.507 113.282 66.3809 113.426 66.2849C113.57 66.189 113.732 66.1227 113.912 66.0867ZM100.352 66.1765C100.448 66.1765 100.532 66.1831 100.604 66.1951C100.687 66.1951 100.759 66.2007 100.819 66.2127C100.987 66.2367 101.125 66.3086 101.233 66.4285C101.329 66.4885 101.396 66.5846 101.432 66.7166C101.456 66.7885 101.473 66.8605 101.485 66.9324C101.509 66.9924 101.534 67.0587 101.558 67.1306C101.57 67.2146 101.575 67.293 101.575 67.365V68.3191L101.468 77.6609V77.8406C101.468 77.9126 101.449 78.0208 101.413 78.1648C101.401 78.2248 101.383 78.2911 101.359 78.3631C101.335 78.4229 101.311 78.4886 101.287 78.5603C101.227 78.7043 101.143 78.8126 101.035 78.8846C100.939 78.9805 100.783 79.0468 100.567 79.0828C100.231 79.1548 99.9254 79.1249 99.6494 78.993C99.4934 78.897 99.3852 78.7766 99.3252 78.6326C99.3014 78.6087 99.2778 78.5728 99.2539 78.5252C99.2539 78.5012 99.2417 78.4647 99.2178 78.4168C99.1938 78.3569 99.1751 78.297 99.1631 78.2371C99.1511 78.1651 99.1399 78.0923 99.1279 78.0203C99.1279 77.9604 99.1213 77.9005 99.1094 77.8406C99.1094 77.7807 99.1038 77.7208 99.0918 77.6609C99.0678 77.6009 99.0557 77.5524 99.0557 77.5164V77.3543C99.0795 77.3062 99.0918 77.2163 99.0918 77.0847L99.1094 75.6629L99.1279 73.3943H98.1553L94.501 73.4129L94.4658 77.6609V77.8406C94.4658 77.9126 94.4471 78.0208 94.4111 78.1648C94.3991 78.2248 94.3814 78.2911 94.3574 78.3631C94.3335 78.4229 94.3091 78.4886 94.2852 78.5603C94.2252 78.7043 94.1412 78.8126 94.0332 78.8846C93.9372 78.9805 93.7814 79.0468 93.5654 79.0828C93.2295 79.1548 92.9234 79.1249 92.6475 78.993C92.5275 78.921 92.4137 78.8006 92.3057 78.6326C92.2818 78.5849 92.2697 78.5492 92.2695 78.5252L92.2158 78.4168C92.1919 78.3569 92.1731 78.297 92.1611 78.2371L92.125 78.0203C92.125 77.9604 92.1194 77.9005 92.1074 77.8406C92.0954 77.7807 92.0833 77.7208 92.0713 77.6609C92.0593 77.5649 92.0593 77.4623 92.0713 77.3543V77.0847L92.0898 75.6629L92.125 73.0164C92.137 72.6325 92.1436 72.2367 92.1436 71.8289V70.5691C92.1316 70.1371 92.125 69.7528 92.125 69.4168C92.137 69.0808 92.1557 68.7029 92.1797 68.283V68.2107C92.1917 68.0907 92.1973 67.9704 92.1973 67.8504C92.1973 67.7185 92.2038 67.5867 92.2158 67.4549C92.2278 67.335 92.2456 67.221 92.2695 67.1131C92.3055 66.9931 92.3531 66.8727 92.4131 66.7527C92.4491 66.6567 92.4976 66.5783 92.5576 66.5183C92.6175 66.4465 92.6896 66.381 92.7734 66.3211C92.9654 66.2251 93.1576 66.1765 93.3496 66.1765C93.4455 66.1766 93.5296 66.1831 93.6016 66.1951C93.6735 66.1951 93.7454 66.2007 93.8174 66.2127C93.9613 66.2247 94.0995 66.2966 94.2314 66.4285C94.3274 66.5125 94.3937 66.6086 94.4297 66.7166C94.4897 66.8725 94.5251 67.0107 94.5371 67.1306C94.5491 67.2146 94.5557 67.293 94.5557 67.365V68.3191L94.5195 71.2888H94.8438C94.9756 71.2888 95.1253 71.2823 95.293 71.2703C95.917 71.2703 96.5355 71.2768 97.1475 71.2888C97.7714 71.3008 98.4254 71.3064 99.1094 71.3064H99.1279V69.7586C99.1399 69.2666 99.1576 68.7507 99.1816 68.2107V67.8504C99.1936 67.7185 99.2058 67.5867 99.2178 67.4549C99.2298 67.335 99.2475 67.221 99.2715 67.1131C99.3075 66.9931 99.3551 66.8727 99.415 66.7527C99.439 66.6567 99.481 66.5783 99.541 66.5183C99.6129 66.4465 99.6972 66.381 99.793 66.3211C99.961 66.2251 100.148 66.1765 100.352 66.1765ZM70.7598 66.2488C71.1917 66.2488 71.6359 66.2544 72.0918 66.2664H72.1641C72.2958 66.2783 72.4335 66.2849 72.5771 66.2849C72.721 66.2849 72.8593 66.2905 72.9912 66.3025C73.1232 66.3025 73.2557 66.3212 73.3877 66.3572C73.5195 66.3812 73.6514 66.4167 73.7832 66.4646C73.987 66.5246 74.1552 66.6266 74.2871 66.7703C74.3951 66.9383 74.4492 67.1072 74.4492 67.2752V67.491C74.4492 67.5508 74.438 67.6108 74.4141 67.6707C74.4021 67.7907 74.3293 67.9166 74.1973 68.0486C74.1493 68.0726 74.0951 68.1025 74.0352 68.1385C73.9872 68.1744 73.9274 68.2043 73.8555 68.2283C73.7836 68.2523 73.7059 68.271 73.6221 68.283C73.5501 68.283 73.4773 68.2886 73.4053 68.3006C73.3094 68.3245 73.2196 68.3367 73.1357 68.3367H72.0732L68.4736 68.3543V68.409L68.4375 71.2351H69.1572C69.6492 71.2231 70.0877 71.2166 70.4717 71.2166C70.8557 71.2166 71.282 71.2231 71.75 71.2351H71.8398C71.9838 71.2351 72.122 71.2407 72.2539 71.2527H72.668C72.8118 71.2647 72.9501 71.289 73.082 71.325C73.2139 71.349 73.3457 71.3789 73.4775 71.4148C73.6815 71.4868 73.8494 71.595 73.9814 71.739C74.1013 71.895 74.1611 72.0687 74.1611 72.2605V72.4763C74.1611 72.5482 74.1499 72.6147 74.126 72.6746C74.102 72.8066 74.0236 72.9269 73.8916 73.0349C73.8316 73.1188 73.7176 73.1786 73.5498 73.2146C73.394 73.2626 73.2379 73.2925 73.082 73.3045C72.914 73.3405 72.7451 73.3592 72.5771 73.3592H71.7314L68.4014 73.3767L68.3652 76.9051L71.9473 76.9412H73.0635C73.1475 76.9412 73.2259 76.9468 73.2979 76.9588C73.3937 76.9827 73.4779 77.0005 73.5498 77.0125C73.6336 77.0125 73.7114 77.0247 73.7832 77.0486C73.9272 77.0966 74.0476 77.1629 74.1436 77.2469C74.2635 77.3668 74.3419 77.4928 74.3779 77.6248C74.3899 77.6848 74.3955 77.7511 74.3955 77.823C74.4074 77.8828 74.4074 77.9486 74.3955 78.0203C74.3955 78.2122 74.3358 78.3868 74.2158 78.5428C74.0719 78.7107 73.9038 78.8189 73.7119 78.867C73.46 78.9749 73.1837 79.0291 72.8838 79.0291C72.7518 79.0411 72.6137 79.0467 72.4697 79.0467C72.3257 79.0467 72.1877 79.0532 72.0557 79.0652H71.9473C71.0114 79.0892 70.0391 79.0892 69.0312 79.0652C68.7917 79.0652 68.5999 79.0586 68.4561 79.0467H67.25C66.974 79.0707 66.7454 79.0231 66.5654 78.9031C66.4334 78.8191 66.3318 78.7043 66.2598 78.5603C66.2239 78.5244 66.2061 78.4888 66.2061 78.4529C66.1942 78.4292 66.1818 78.4112 66.1699 78.3992C66.1579 78.3872 66.1458 78.3685 66.1338 78.3445C66.1098 78.2846 66.0911 78.2248 66.0791 78.1648C66.0671 78.0928 66.0615 78.0266 66.0615 77.9666C66.0495 77.9067 66.0374 77.8468 66.0254 77.7869C66.0254 77.7271 66.0197 77.667 66.0078 77.6072V77.1746C66.0198 77.1268 66.0254 77.0789 66.0254 77.031V75.6267L66.0615 73.0349V69.489C66.0735 69.153 66.0857 68.7864 66.0977 68.3904V68.3006C66.1096 68.1688 66.1152 68.049 66.1152 67.9412C66.1272 67.8212 66.1338 67.7008 66.1338 67.5808C66.1458 67.3408 66.212 67.1067 66.332 66.8787C66.38 66.7828 66.4276 66.6987 66.4756 66.6267C66.5356 66.5547 66.614 66.495 66.71 66.4471C66.8899 66.3391 67.0756 66.2849 67.2676 66.2849C67.3634 66.2849 67.4354 66.2906 67.4834 66.3025V66.2849H68.7979C68.9418 66.273 69.1397 66.2664 69.3916 66.2664C69.8716 66.2544 70.3278 66.2488 70.7598 66.2488ZM173.207 66.2127C173.339 66.2127 173.453 66.237 173.549 66.2849C173.645 66.3329 173.741 66.3871 173.837 66.4471C173.945 66.5311 174.048 66.6206 174.144 66.7166C174.251 66.8125 174.347 66.9153 174.431 67.0232C174.527 67.1432 174.617 67.257 174.701 67.365C174.785 67.461 174.869 67.5749 174.953 67.7068L175.007 67.7791C175.295 68.163 175.565 68.5344 175.817 68.8943C176.069 69.2423 176.333 69.6211 176.609 70.0291C176.633 70.0531 176.669 70.101 176.717 70.1726C176.765 70.2446 176.819 70.3287 176.879 70.4246C176.927 70.3407 176.969 70.2687 177.005 70.2088C177.053 70.1369 177.089 70.0893 177.113 70.0652C177.389 69.6572 177.653 69.2729 177.905 68.9129C178.157 68.5529 178.427 68.1806 178.715 67.7967L178.751 67.7244C178.847 67.6166 178.931 67.509 179.003 67.4012C179.087 67.2812 179.177 67.1608 179.273 67.0408C179.429 66.8249 179.639 66.6392 179.903 66.4832C180.095 66.3512 180.293 66.2672 180.497 66.2312C180.725 66.2072 180.923 66.2549 181.091 66.3748C181.163 66.4228 181.229 66.4648 181.289 66.5008C181.361 66.5367 181.421 66.5788 181.469 66.6267C181.565 66.7347 181.643 66.8672 181.703 67.0232C181.715 67.0831 181.715 67.1431 181.703 67.2029C181.703 67.2629 181.685 67.3292 181.649 67.4012C181.601 67.5689 181.547 67.7185 181.487 67.8504C181.415 68.0184 181.325 68.163 181.217 68.283C181.169 68.3549 181.121 68.4269 181.073 68.4988C181.037 68.5588 181.001 68.6185 180.965 68.6785L180.731 68.9851L178.427 72.3152L178.013 72.8367V77.6248C177.989 77.6846 177.978 77.7446 177.978 77.8045C177.978 77.8645 177.971 77.9307 177.959 78.0027C177.935 78.0626 177.917 78.1225 177.905 78.1824C177.893 78.2303 177.875 78.2847 177.852 78.3445C177.828 78.3925 177.815 78.4289 177.815 78.4529C177.803 78.4768 177.791 78.4946 177.779 78.5066C177.779 78.5186 177.773 78.5364 177.761 78.5603C177.689 78.6803 177.587 78.7886 177.455 78.8846C177.191 79.0166 176.891 79.0464 176.555 78.9744C176.363 78.9504 176.219 78.8906 176.123 78.7947C176.063 78.7588 176.015 78.7166 175.979 78.6687C175.943 78.6207 175.907 78.5666 175.871 78.5066C175.847 78.4347 175.823 78.3683 175.799 78.3084C175.775 78.2485 175.757 78.1885 175.745 78.1287C175.721 78.0687 175.709 78.0146 175.709 77.9666V72.8904L175.313 72.2791L172.974 68.9666L172.775 68.6424C172.703 68.5344 172.613 68.4084 172.505 68.2644C172.409 68.1325 172.325 67.9887 172.253 67.8328C172.205 67.7609 172.163 67.6889 172.127 67.617C172.103 67.533 172.079 67.449 172.055 67.365C172.019 67.245 172.013 67.1247 172.037 67.0047C172.073 66.8489 172.145 66.7171 172.253 66.6092C172.373 66.5013 172.499 66.4172 172.631 66.3572C172.799 66.2372 172.991 66.1887 173.207 66.2127ZM58.3652 66.2488C59.0612 66.2488 59.7516 66.2609 60.4355 66.2849C60.5913 66.2969 60.741 66.3147 60.8848 66.3387C61.0288 66.3627 61.1734 66.4046 61.3174 66.4646C61.4253 66.5006 61.5271 66.5492 61.623 66.6092C61.719 66.6571 61.7974 66.7225 61.8574 66.8064C61.9894 66.9624 62.0557 67.1248 62.0557 67.2928C62.0557 67.3648 62.0491 67.4431 62.0371 67.5271C62.0371 67.5988 62.0315 67.6646 62.0195 67.7244C61.9836 67.8563 61.905 67.9824 61.7852 68.1023C61.6893 68.1743 61.5574 68.2284 61.3896 68.2644C61.3056 68.2884 61.2207 68.3071 61.1367 68.3191C61.0529 68.3311 60.963 68.3489 60.8672 68.3728C60.7832 68.3848 60.6992 68.3904 60.6152 68.3904H59.4268C59.2109 68.4024 58.9951 68.409 58.7793 68.409H58.167C58.179 68.7809 58.1855 69.1831 58.1855 69.615C58.1855 70.0349 58.179 70.5268 58.167 71.0906C58.167 71.6545 58.1614 72.3086 58.1494 73.0525V77.0125C58.1494 77.1325 58.155 77.223 58.167 77.283V77.4265C58.167 77.4625 58.1614 77.5111 58.1494 77.5711C58.1254 77.679 58.1067 77.8051 58.0947 77.949C58.0947 78.0089 58.0891 78.0688 58.0771 78.1287C58.0652 78.1767 58.0474 78.2308 58.0234 78.2908C57.9754 78.3388 57.9512 78.3752 57.9512 78.3992L57.8975 78.5066C57.8375 78.6265 57.7234 78.7405 57.5557 78.8484C57.2917 78.9804 56.9969 79.0112 56.6729 78.9392C56.4691 78.9152 56.313 78.861 56.2051 78.7771C56.0971 78.6691 56.0187 78.5609 55.9707 78.4529C55.8988 78.321 55.8567 78.1949 55.8447 78.075C55.8088 77.9671 55.7911 77.853 55.791 77.7332V68.4812H54.6035C54.3515 68.4692 54.1108 68.4571 53.8828 68.4451C53.655 68.4331 53.499 68.421 53.415 68.409C53.343 68.397 53.2292 68.3783 53.0732 68.3543C52.9292 68.3303 52.8089 68.307 52.7129 68.283C52.4611 68.211 52.2631 68.097 52.1191 67.9412C51.9871 67.7852 51.9209 67.6107 51.9209 67.4187V67.2029C51.9209 67.1309 51.933 67.0647 51.957 67.0047C51.993 66.8607 52.0891 66.7403 52.2451 66.6443C52.2931 66.6084 52.3651 66.5663 52.4609 66.5183C52.5689 66.4583 52.6716 66.4164 52.7676 66.3924C52.9115 66.3444 53.0919 66.3089 53.3076 66.2849C53.4033 66.273 53.499 66.2664 53.5947 66.2664H55.0889C55.4728 66.2664 55.875 66.2608 56.2949 66.2488C56.9909 66.2368 57.6812 66.2368 58.3652 66.2488ZM124.676 66.2849C125.336 66.3209 125.924 66.4888 126.44 66.7888C126.956 67.0768 127.394 67.4669 127.754 67.9588C128.126 68.4508 128.426 69.003 128.654 69.615C128.834 70.0709 128.972 70.5507 129.068 71.0545C129.164 71.5585 129.218 72.0632 129.23 72.5672C129.254 73.059 129.236 73.5453 129.176 74.0252C129.128 74.505 129.044 74.9493 128.924 75.3572C128.852 75.633 128.768 75.8852 128.672 76.1131C128.576 76.3409 128.462 76.5688 128.33 76.7967C128.03 77.3126 127.64 77.7324 127.16 78.0564C126.692 78.3804 126.176 78.609 125.612 78.741C125.228 78.837 124.832 78.8846 124.424 78.8846C124.016 78.8725 123.614 78.8184 123.218 78.7224C122.822 78.6145 122.438 78.4651 122.066 78.2732C121.706 78.0692 121.376 77.8164 121.076 77.5164C120.704 77.1565 120.398 76.743 120.158 76.2752C119.918 75.7953 119.733 75.2969 119.601 74.781C119.469 74.2531 119.385 73.7249 119.349 73.1971C119.313 72.6691 119.313 72.1644 119.349 71.6844C119.385 71.2405 119.469 70.7663 119.601 70.2625C119.745 69.7586 119.948 69.2724 120.212 68.8045C120.476 68.3365 120.794 67.9167 121.166 67.5447C121.55 67.1607 121.994 66.8725 122.498 66.6805C123.302 66.3805 124.028 66.249 124.676 66.2849ZM149.983 66.2849C150.643 66.3209 151.232 66.4888 151.748 66.7888C152.264 67.0768 152.702 67.4669 153.062 67.9588C153.434 68.4508 153.734 69.003 153.962 69.615C154.142 70.0709 154.28 70.5507 154.376 71.0545C154.472 71.5585 154.526 72.0632 154.538 72.5672C154.562 73.059 154.543 73.5453 154.483 74.0252C154.435 74.505 154.351 74.9493 154.231 75.3572C154.159 75.633 154.075 75.8852 153.979 76.1131C153.884 76.3409 153.77 76.5688 153.638 76.7967C153.338 77.3126 152.948 77.7324 152.468 78.0564C152 78.3804 151.484 78.609 150.92 78.741C150.536 78.837 150.139 78.8846 149.731 78.8846C149.324 78.8725 148.921 78.8184 148.525 78.7224C148.13 78.6145 147.746 78.4651 147.374 78.2732C147.014 78.0692 146.684 77.8164 146.384 77.5164C146.012 77.1565 145.706 76.743 145.466 76.2752C145.226 75.7953 145.04 75.2969 144.908 74.781C144.776 74.2531 144.692 73.7249 144.656 73.1971C144.62 72.6691 144.62 72.1644 144.656 71.6844C144.692 71.2405 144.776 70.7663 144.908 70.2625C145.052 69.7586 145.256 69.2724 145.52 68.8045C145.784 68.3365 146.102 67.9167 146.474 67.5447C146.858 67.1607 147.302 66.8725 147.806 66.6805C148.61 66.3805 149.335 66.249 149.983 66.2849ZM13.0234 18.6512C17.5649 16.731 22.6371 16.4698 27.3516 17.9138C32.0658 19.3579 36.1216 22.4147 38.8086 26.5486C41.4955 30.6828 42.6426 35.6315 42.0479 40.5262C41.453 45.4204 39.1551 49.9498 35.5566 53.3201C31.9579 56.6904 27.2872 58.6876 22.3643 58.9607C18.6896 59.1645 15.0485 58.3985 11.7959 56.7693L11.1514 56.4314C9.69739 55.6389 9.43364 53.7384 10.4248 52.4119C11.4163 51.0857 13.2874 50.8462 14.7842 51.5545C17.03 52.6171 19.5203 53.1117 22.0322 52.9724C25.5492 52.7773 28.886 51.3509 31.457 48.9431C34.0279 46.5353 35.6698 43.2992 36.0947 39.8025C36.5196 36.3057 35.6998 32.7707 33.7803 29.8172C31.8606 26.8637 28.9628 24.6799 25.5947 23.6482C22.2267 22.6166 18.6028 22.8028 15.3584 24.1746C12.1141 25.5464 9.45602 28.0163 7.84961 31.1512L7.64062 31.573C6.63413 33.6991 6.1467 36.0217 6.20215 38.3504C6.21002 38.6825 6.17452 39.0128 6.10352 39.3318L6.18945 74.9783L6.18555 75.1326C6.10877 76.7177 4.80122 77.9823 3.19629 77.9861C1.59143 77.9899 0.277705 76.7319 0.193359 75.1472L0.189453 74.993L0.100586 37.993C0.0999096 37.7005 0.142307 37.4176 0.219727 37.1502C0.341143 34.1285 1.11284 31.1458 2.51172 28.4158C4.76033 24.0277 8.48205 20.5713 13.0234 18.6512ZM124.406 68.5525C124.046 68.5525 123.644 68.6607 123.2 68.8767C122.936 69.0087 122.709 69.1889 122.517 69.4168C122.337 69.6448 122.186 69.9032 122.066 70.1912C121.958 70.4791 121.868 70.7787 121.796 71.0906C121.736 71.4026 121.7 71.703 121.688 71.991C121.664 72.3029 121.658 72.6333 121.67 72.9812C121.682 73.317 121.718 73.6588 121.778 74.0066C121.85 74.3425 121.946 74.6664 122.066 74.9783C122.186 75.2782 122.348 75.5489 122.552 75.7888C122.864 76.1488 123.224 76.4007 123.632 76.5447C124.052 76.6767 124.466 76.6944 124.874 76.5984C125.534 76.4544 126.038 76.0167 126.386 75.2849C126.53 75.0209 126.638 74.7206 126.71 74.3846C126.854 73.8206 126.915 73.1843 126.891 72.4763C126.867 71.7685 126.752 71.1022 126.548 70.4783C126.416 70.0945 126.248 69.7584 126.044 69.4705C125.852 69.1706 125.618 68.9428 125.342 68.7869C125.078 68.631 124.766 68.5525 124.406 68.5525ZM149.714 68.5525C149.354 68.5525 148.952 68.6608 148.508 68.8767C148.244 69.0087 148.016 69.1889 147.824 69.4168C147.644 69.6448 147.494 69.9032 147.374 70.1912C147.266 70.4791 147.175 70.7787 147.104 71.0906C147.044 71.4026 147.008 71.703 146.996 71.991C146.972 72.3029 146.966 72.6333 146.978 72.9812C146.99 73.317 147.026 73.6588 147.086 74.0066C147.158 74.3425 147.254 74.6664 147.374 74.9783C147.494 75.2782 147.655 75.5489 147.859 75.7888C148.171 76.1488 148.532 76.4007 148.939 76.5447C149.359 76.6767 149.774 76.6944 150.182 76.5984C150.842 76.4544 151.345 76.0168 151.693 75.2849C151.837 75.0209 151.946 74.7206 152.018 74.3846C152.162 73.8206 152.222 73.1843 152.198 72.4763C152.174 71.7685 152.059 71.1022 151.855 70.4783C151.723 70.0945 151.555 69.7584 151.352 69.4705C151.16 69.1706 150.925 68.9428 150.649 68.7869C150.385 68.631 150.074 68.5525 149.714 68.5525ZM67.2012 15.993C79.3513 15.993 89.2009 25.8429 89.2012 37.993C89.2008 50.1429 79.3512 59.993 67.2012 59.993C55.0511 59.9929 45.2015 50.1429 45.2012 37.993C45.2014 25.8429 55.051 15.993 67.2012 15.993ZM175.7 8.02518C178.753 1.25674 183.591 -0.62553 185.167 0.158966C180.84 4.04009 181.561 9.45751 182.463 11.6814C186.358 7.80083 190.577 10.0643 192.2 11.6814C189.655 11.1779 185.071 11.9293 183.836 17.7527C191.694 21.1094 197.201 28.9072 197.201 37.992C197.201 50.1421 187.351 59.992 175.201 59.992C163.051 59.992 153.201 50.1421 153.201 37.992C153.201 28.5584 159.139 20.5121 167.481 17.3855C166.135 11.8978 161.692 11.1887 159.201 11.6814C160.824 10.0642 165.044 7.80073 168.938 11.6814C169.84 9.4574 170.561 4.04006 166.233 0.158966C167.809 -0.625831 172.647 1.25662 175.7 8.02518ZM223.201 16.993C234.799 16.993 244.201 26.395 244.201 37.993C244.201 49.5908 234.799 58.993 223.201 58.993C211.603 58.9929 202.201 49.5908 202.201 37.993C202.201 26.395 211.603 16.993 223.201 16.993ZM132.701 16.993C140.709 16.993 147.201 23.4848 147.201 31.493V54.993C147.201 56.6497 145.858 57.993 144.201 57.993C142.544 57.9929 141.201 56.6497 141.201 54.993V31.493C141.201 26.7985 137.396 22.993 132.701 22.993C128.007 22.993 124.201 26.7985 124.201 31.493V54.993C124.201 56.6497 122.858 57.993 121.201 57.993C119.544 57.9929 118.201 56.6497 118.201 54.993V31.493C118.201 26.7985 114.396 22.993 109.701 22.993C105.007 22.993 101.201 26.7985 101.201 31.493V54.993C101.201 56.6497 99.858 57.993 98.2012 57.993C96.5444 57.9929 95.2013 56.6497 95.2012 54.993V31.493C95.2012 23.4848 101.693 16.993 109.701 16.993C114.385 16.993 118.55 19.2144 121.201 22.6609C123.852 19.2144 128.017 16.993 132.701 16.993ZM68.2559 53.7742C67.7236 55.689 69.0305 56.0247 69.751 55.9529C70.2596 56.4145 70.8307 54.9346 71.0527 54.1365C71.8147 52.6475 70.6066 52.0934 69.9072 52.0027L68.2559 53.7742ZM184.783 20.1472C184.439 19.9864 184.022 20.1093 183.822 20.4422C183.623 20.7754 183.713 21.2014 184.018 21.4285L184.081 21.4705L184.577 21.7781C187.031 23.3487 189.1 25.4581 190.623 27.948C192.247 30.604 193.204 33.6149 193.409 36.7215C193.602 39.6339 193.13 42.55 192.031 45.2488L191.803 45.7859C190.542 48.6328 188.609 51.1321 186.171 53.0681C185.847 53.3257 185.794 53.7976 186.051 54.1219C186.308 54.4458 186.78 54.4994 187.104 54.242C189.733 52.1551 191.816 49.4619 193.175 46.3933L193.42 45.8142C194.604 42.9052 195.114 39.7622 194.906 36.6228C194.685 33.2741 193.654 30.0278 191.902 27.1648C190.261 24.4809 188.031 22.2074 185.386 20.5144L184.852 20.1834L184.783 20.1472ZM63.3994 50.0564C62.8355 49.6635 62.4594 51.204 62.3418 52.0242C61.7781 53.5983 63.0467 53.9928 63.752 53.993L65.1621 52.0242C65.4439 50.0563 64.1046 49.8924 63.3994 50.0564ZM223.201 22.993C214.917 22.993 208.201 29.7087 208.201 37.993C208.201 46.2771 214.917 52.9929 223.201 52.993C231.485 52.993 238.201 46.2771 238.201 37.993C238.201 29.7087 231.485 22.993 223.201 22.993ZM80.5039 49.2049C80.2452 48.5682 79.0895 49.6548 78.5439 50.2781C77.2132 51.2902 78.0622 52.3123 78.6533 52.6971L80.9092 51.8162C82.2184 50.3202 81.1845 49.4519 80.5039 49.2049ZM74.8623 46.0398C74.4063 45.5253 73.6788 46.9353 73.3721 47.7049C72.4547 49.1026 73.5958 49.7833 74.2812 49.949L76.1143 48.367C76.8505 46.5198 75.5863 46.0459 74.8623 46.0398ZM67.3994 45.0564C66.8355 44.6635 66.4594 46.204 66.3418 47.0242C65.7781 48.5983 67.0467 48.9928 67.752 48.993L69.1621 47.0242C69.4439 45.0563 68.1046 44.8924 67.3994 45.0564ZM56.3994 44.0564C55.8355 43.6635 55.4594 45.204 55.3418 46.0242C54.7781 47.5983 56.0467 47.9928 56.752 47.993L58.1621 46.0242C58.4439 44.0563 57.1046 43.8924 56.3994 44.0564ZM63.7715 44.5603C62.7042 42.8828 61.5799 43.63 61.1514 44.2137C60.4682 44.283 61.1853 45.6972 61.6299 46.3963C62.2268 47.9581 63.447 47.4315 63.9824 46.9724L63.7715 44.5603ZM51.3994 42.0564C50.8355 41.6635 50.4594 43.204 50.3418 44.0242C49.7781 45.5983 51.0467 45.9928 51.752 45.993L53.1621 44.0242C53.4439 42.0563 52.1046 41.8924 51.3994 42.0564ZM72.9189 41.0447C72.4781 40.5184 71.7099 41.9057 71.3809 42.6658C70.423 44.0363 71.5442 44.7507 72.2246 44.9363L74.1025 43.408C74.8923 41.5831 73.6425 41.0719 72.9189 41.0447ZM65.3994 38.0564C64.8355 37.6635 64.4594 39.204 64.3418 40.0242C63.7781 41.5983 65.0467 41.9928 65.752 41.993L67.1621 40.0242C67.4439 38.0563 66.1046 37.8924 65.3994 38.0564ZM58.3994 37.0564C57.8355 36.6635 57.4594 38.204 57.3418 39.0242C56.7781 40.5983 58.0467 40.9928 58.752 40.993L60.1621 39.0242C60.4439 37.0563 59.1046 36.8924 58.3994 37.0564ZM52.3994 36.0564C51.8355 35.6635 51.4594 37.204 51.3418 38.0242C50.7781 39.5983 52.0467 39.9928 52.752 39.993L54.1621 38.0242C54.4439 36.0563 53.1046 35.8924 52.3994 36.0564ZM70.3994 35.0564C69.8355 34.6635 69.4594 36.204 69.3418 37.0242C68.7781 38.5983 70.0467 38.9928 70.752 38.993L72.1621 37.0242C72.4439 35.0563 71.1046 34.8924 70.3994 35.0564ZM63.3994 31.0564C62.8355 30.6635 62.4594 32.204 62.3418 33.0242C61.7781 34.5983 63.0467 34.9928 63.752 34.993L65.1621 33.0242C65.4439 31.0563 64.1046 30.8924 63.3994 31.0564ZM56.3125 31.9617C55.9597 33.9177 57.2932 34.1312 58.0039 33.993C58.553 34.405 58.9846 32.8795 59.1318 32.0642C59.7526 30.5112 58.4988 30.0713 57.7939 30.0457L56.3125 31.9617ZM52.3467 29.1424C52.0341 28.5306 50.9772 29.7126 50.4873 30.3806C49.2489 31.5035 50.1816 32.4486 50.8037 32.781L52.9756 31.7097C54.1514 30.1062 53.0461 29.3299 52.3467 29.1424ZM60.3994 24.0564C59.8355 23.6635 59.4594 25.204 59.3418 26.0242C58.7781 27.5983 60.0467 27.9928 60.752 27.993L62.1621 26.0242C62.4439 24.0563 61.1046 23.8924 60.3994 24.0564ZM50.1719 10.8279C50.6816 9.70427 53.0089 9.65934 55.3701 10.7283L55.8037 10.9373C57.9125 12.018 59.2025 13.6479 58.7256 14.7019L58.6729 14.8035C58.0711 15.8272 55.8144 15.8366 53.5264 14.8006L53.0947 14.5916C50.9859 13.511 49.6954 11.8821 50.1719 10.8279ZM52.1055 11.4549C51.9022 11.4588 51.7575 11.4783 51.6572 11.4998C51.7071 11.5893 51.7877 11.7115 51.9189 11.867C52.3527 12.3804 53.1222 12.9699 54.1455 13.4334C55.1693 13.897 56.1209 14.0868 56.793 14.074C56.996 14.0701 57.1401 14.0496 57.2402 14.0281C57.1903 13.9387 57.1101 13.8166 56.9795 13.6619C56.5457 13.1484 55.7754 12.558 54.752 12.0945C53.7285 11.6311 52.7775 11.4421 52.1055 11.4549ZM62.4326 4.11209C63.6651 4.04651 64.776 6.09172 64.9141 8.68045L64.9277 9.16092C64.9392 11.5308 64.0871 13.4265 62.9316 13.4881H62.8174C61.6314 13.4257 60.5848 11.4261 60.4512 8.91776L60.4375 8.43826C60.4261 6.06882 61.2774 4.17406 62.4326 4.11209ZM62.5205 5.73904C62.464 5.82454 62.392 5.95241 62.3145 6.14041C62.0584 6.76178 61.8896 7.71702 61.9492 8.83865C62.009 9.96045 62.2789 10.8925 62.5996 11.4832C62.6963 11.6612 62.7806 11.7802 62.8457 11.8592C62.902 11.7737 62.9736 11.6467 63.0508 11.4597C63.3069 10.8384 63.4756 9.88235 63.416 8.76053C63.3562 7.63878 63.0873 6.70665 62.7666 6.116C62.6697 5.9377 62.5857 5.81807 62.5205 5.73904Z" fill="#EA465F"/>
</svg>
