<svg width="245" height="80" viewBox="0 0 245 80" fill="none" xmlns="http://www.w3.org/2000/svg">
<path d="M163.221 66.2856C163.785 66.2256 164.337 66.2433 164.877 66.3393C165.429 66.4353 165.939 66.6098 166.407 66.8618C166.887 67.1138 167.265 67.4497 167.541 67.8696C167.733 68.1816 167.883 68.5595 167.991 69.0034C168.099 69.4474 168.117 69.8737 168.045 70.2817C167.985 70.6416 167.859 70.8936 167.667 71.0376C167.475 71.1695 167.265 71.2236 167.037 71.1997C166.809 71.1637 166.587 71.0675 166.371 70.9116C166.167 70.7437 166.029 70.5336 165.957 70.2817C165.873 70.0059 165.771 69.7537 165.651 69.5259C165.531 69.2859 165.345 69.0871 165.093 68.9311C164.805 68.7512 164.499 68.6495 164.175 68.6255C163.863 68.6015 163.557 68.6379 163.257 68.7339C162.969 68.8299 162.693 68.9791 162.429 69.1831C162.177 69.3871 161.967 69.6213 161.799 69.8852C161.595 70.1852 161.439 70.5155 161.331 70.8755C161.223 71.2234 161.145 71.5892 161.097 71.9731C161.049 72.3451 161.031 72.7239 161.043 73.1079C161.067 73.4795 161.115 73.8393 161.187 74.187C161.319 74.7749 161.523 75.3273 161.799 75.8432C161.907 76.0352 162.051 76.2097 162.231 76.3657C162.423 76.5096 162.634 76.6291 162.861 76.7251C163.089 76.809 163.329 76.8632 163.581 76.8872C163.833 76.9112 164.073 76.8934 164.301 76.8335C164.625 76.7495 164.889 76.6412 165.093 76.5093C165.297 76.3653 165.459 76.1974 165.579 76.0054C165.699 75.8134 165.777 75.6034 165.813 75.3755C165.86 75.1476 165.885 74.9076 165.885 74.6557V74.6372H165.471C165.351 74.6252 165.261 74.6196 165.201 74.6196C164.937 74.6196 164.679 74.5711 164.427 74.4751C164.211 74.4031 164.049 74.2892 163.941 74.1333C163.822 74.0014 163.761 73.8397 163.761 73.6479V73.4497C163.773 73.3778 163.785 73.3057 163.797 73.2339C163.833 73.1379 163.911 73.0175 164.031 72.8735C164.103 72.8136 164.217 72.765 164.373 72.729C164.445 72.705 164.517 72.6873 164.589 72.6753C164.661 72.6513 164.745 72.6336 164.841 72.6216C164.913 72.6096 164.991 72.603 165.075 72.603H166.965C167.097 72.591 167.247 72.6097 167.415 72.6577C167.595 72.6937 167.733 72.7534 167.829 72.8374C167.865 72.8854 167.901 72.9339 167.937 72.9819C167.972 73.0298 168.003 73.0832 168.027 73.143C168.075 73.275 168.105 73.4075 168.117 73.5395C168.129 73.6115 168.135 73.69 168.135 73.7739C168.147 73.8456 168.153 73.9114 168.153 73.9712V74.7095C168.153 75.0694 168.135 75.4352 168.099 75.8071C168.063 76.1671 167.991 76.5216 167.883 76.8696C167.775 77.2054 167.613 77.5295 167.397 77.8413C167.181 78.1413 166.887 78.4053 166.515 78.6333C166.335 78.7532 166.119 78.856 165.867 78.9399C165.627 79.0119 165.369 79.0716 165.093 79.1196C164.829 79.1796 164.565 79.215 164.301 79.227C164.037 79.251 163.79 79.2576 163.563 79.2456C162.483 79.2095 161.606 78.9511 160.935 78.4712C160.275 77.9793 159.765 77.3735 159.405 76.6538C159.057 75.9338 158.829 75.153 158.721 74.313C158.625 73.4612 158.607 72.6511 158.667 71.8833C158.703 71.4274 158.781 70.9356 158.901 70.4077C159.033 69.8797 159.219 69.3694 159.459 68.8774C159.711 68.3854 160.017 67.9414 160.377 67.5454C160.749 67.1494 161.187 66.849 161.691 66.645C162.159 66.4532 162.669 66.3336 163.221 66.2856ZM134.935 66.3032C135.019 66.3032 135.097 66.3098 135.169 66.3218C135.253 66.3218 135.331 66.3273 135.403 66.3393C135.475 66.3513 135.541 66.3757 135.601 66.4116C135.673 66.4476 135.745 66.4952 135.817 66.5552C135.889 66.6392 135.955 66.7418 136.015 66.8618C136.063 66.9937 136.092 67.1254 136.105 67.2573C136.117 67.3413 136.129 67.4197 136.141 67.4917C136.153 67.5636 136.159 67.6356 136.159 67.7075C136.135 67.7795 136.123 67.8514 136.123 67.9233V68.4458L136.051 76.9233L139.615 76.9595H140.461C140.533 76.9595 140.611 76.965 140.695 76.977C140.779 76.977 140.863 76.9836 140.947 76.9956C141.043 77.0076 141.127 77.0197 141.199 77.0317C141.271 77.0437 141.343 77.0615 141.415 77.0854C141.547 77.1214 141.655 77.1811 141.739 77.2651C141.871 77.3851 141.955 77.5055 141.991 77.6255C142.015 77.6854 142.027 77.7753 142.027 77.895V78.1655C142.027 78.2614 142.009 78.3511 141.973 78.435C141.937 78.519 141.889 78.5974 141.829 78.6694C141.721 78.8134 141.565 78.9216 141.361 78.9936C141.073 79.0896 140.803 79.1372 140.551 79.1372C140.419 79.1492 140.281 79.1557 140.137 79.1557C139.993 79.1558 139.849 79.1679 139.705 79.1919H139.633C138.709 79.2039 137.754 79.2039 136.771 79.1919C136.531 79.1799 136.261 79.1799 135.961 79.1919C135.661 79.2159 135.367 79.2093 135.079 79.1733C134.791 79.1493 134.527 79.0831 134.287 78.9751C134.059 78.8551 133.897 78.6694 133.801 78.4175C133.777 78.3575 133.759 78.3033 133.747 78.2554C133.735 78.1954 133.729 78.1356 133.729 78.0757C133.681 77.6677 133.663 77.2656 133.675 76.8696C133.687 76.4737 133.693 76.0836 133.693 75.6997L133.729 73.0893V69.5259C133.741 69.1899 133.753 68.8176 133.765 68.4097V68.3198C133.777 68.1998 133.783 68.0795 133.783 67.9595C133.795 67.8395 133.801 67.7191 133.801 67.5991C133.825 67.3232 133.891 67.0889 133.999 66.897C134.071 66.7172 134.197 66.5732 134.377 66.4653C134.533 66.3574 134.719 66.3033 134.935 66.3032ZM84.3213 66.1958C84.8012 66.2318 85.251 66.3335 85.6709 66.5014C86.1029 66.6574 86.4695 66.8739 86.7695 67.1499C86.9614 67.3178 87.1595 67.5514 87.3633 67.8511C87.5792 68.1509 87.7351 68.4572 87.8311 68.769C87.9271 69.081 87.9271 69.3758 87.8311 69.6518C87.747 69.9156 87.5071 70.0959 87.1113 70.1919C86.9433 70.2399 86.7931 70.251 86.6611 70.227C86.5292 70.191 86.4088 70.1379 86.3008 70.0659C86.1929 69.982 86.0911 69.8857 85.9951 69.7778C85.8991 69.6698 85.8086 69.5616 85.7246 69.4536C85.4366 69.1057 85.1008 68.8714 84.7168 68.7514C84.333 68.6196 83.9493 68.5897 83.5654 68.6616C83.1934 68.7216 82.8389 68.8774 82.5029 69.1294C82.179 69.3694 81.9271 69.6819 81.7471 70.0659C81.5552 70.4738 81.3993 70.9237 81.2793 71.4155C81.1713 71.8954 81.1107 72.3872 81.0986 72.8911C81.0866 73.3831 81.1286 73.8635 81.2246 74.3315C81.3326 74.7995 81.5127 75.2137 81.7647 75.5737C81.9567 75.8617 82.1908 76.0959 82.4668 76.2759C82.7547 76.4558 83.0609 76.5818 83.3848 76.6538C83.7088 76.7258 84.0334 76.7379 84.3574 76.6899C84.6933 76.6419 85.0172 76.5336 85.3291 76.3657C85.425 76.3177 85.5268 76.2514 85.6348 76.1675C85.7548 76.0715 85.8751 75.9754 85.9951 75.8794C86.1151 75.7834 86.2355 75.6938 86.3555 75.6098C86.4874 75.5259 86.6256 75.4652 86.7695 75.4292C86.9853 75.3574 87.219 75.3639 87.4707 75.4477C87.7347 75.5317 87.9334 75.7052 88.0654 75.9692C88.2214 76.3172 88.227 76.6596 88.083 76.9956C87.9391 77.3194 87.7112 77.6191 87.3994 77.895C87.0874 78.171 86.7273 78.4117 86.3193 78.6157C85.9235 78.8196 85.5454 78.9633 85.1856 79.0473C84.7896 79.1313 84.3688 79.1677 83.9248 79.1557C83.493 79.1557 83.0551 79.1016 82.6113 78.9936C82.1793 78.8976 81.753 78.753 81.333 78.561C80.9252 78.3571 80.5471 78.1116 80.1992 77.8237C79.7792 77.4757 79.449 77.0615 79.209 76.5815C78.981 76.0895 78.8131 75.5671 78.7051 75.0151C78.5972 74.4634 78.5374 73.9116 78.5254 73.3598C78.5254 72.796 78.5431 72.2677 78.5791 71.7759C78.6151 71.3319 78.7046 70.8691 78.8486 70.3891C78.9926 69.9093 79.1914 69.4417 79.4434 68.9858C79.7073 68.518 80.019 68.0858 80.3789 67.6899C80.7509 67.2939 81.1828 66.9571 81.6748 66.6811C82.0468 66.4651 82.461 66.3215 82.917 66.2495C83.385 66.1655 83.8533 66.1478 84.3213 66.1958ZM114.013 66.0874C114.193 66.0514 114.373 66.0514 114.553 66.0874C114.733 66.1234 114.889 66.1953 115.021 66.3032C115.056 66.3392 115.093 66.3812 115.129 66.4292C115.165 66.4771 115.195 66.5313 115.219 66.5913C115.279 66.7473 115.315 66.8854 115.327 67.0054C115.363 67.1734 115.381 67.3235 115.381 67.4555V72.0454C115.393 73.6053 115.405 75.1353 115.417 76.6352C115.417 76.8031 115.423 76.9712 115.435 77.1391C115.447 77.2951 115.447 77.4575 115.435 77.6255C115.423 77.8295 115.393 78.0459 115.345 78.2739C115.309 78.5017 115.195 78.6876 115.003 78.8315C114.859 78.9515 114.697 79.0233 114.517 79.0473C114.337 79.0713 114.157 79.0592 113.977 79.0112C113.809 78.9752 113.647 78.9154 113.491 78.8315C113.335 78.7355 113.208 78.6217 113.112 78.4897C112.704 77.9858 112.326 77.4698 111.979 76.9419C111.643 76.402 111.301 75.8616 110.953 75.3218L109.44 73.0356C109.236 72.7117 109.021 72.3515 108.793 71.9555C108.565 71.5476 108.331 71.1697 108.091 70.8218L108.037 77.6977V77.8598C108.037 78.0516 108.001 78.2433 107.929 78.435C107.869 78.615 107.761 78.7718 107.605 78.9038C107.485 78.9996 107.329 79.0651 107.137 79.1011C106.837 79.1611 106.585 79.1433 106.381 79.0473C106.189 78.9514 106.033 78.8196 105.913 78.6518C105.805 78.4839 105.727 78.2916 105.679 78.0757C105.643 77.8477 105.637 77.6256 105.661 77.4097V77.103L105.697 75.6997L105.715 73.0893C105.727 72.7054 105.732 72.3154 105.732 71.9194V70.6772C105.72 70.1613 105.72 69.6154 105.732 69.0395C105.756 68.4635 105.781 67.9234 105.805 67.4194C105.829 67.1434 105.895 66.9093 106.003 66.7173C106.051 66.5494 106.177 66.4056 106.381 66.2856C106.513 66.2016 106.681 66.1475 106.885 66.1235C107.101 66.0995 107.286 66.1052 107.442 66.1411C107.502 66.1651 107.563 66.1959 107.623 66.2319C107.683 66.2559 107.743 66.2858 107.803 66.3218C107.863 66.3697 107.917 66.4174 107.965 66.4653C108.025 66.5133 108.079 66.5674 108.127 66.6274C108.187 66.6874 108.241 66.7537 108.289 66.8257C108.337 66.8855 108.385 66.9455 108.433 67.0054C108.469 67.0774 108.505 67.1436 108.541 67.2036C108.577 67.2635 108.619 67.3234 108.667 67.3833L108.865 67.6714L113.022 74.2231V73.0356C113.022 72.6517 113.017 72.2616 113.005 71.8657C113.005 71.4577 112.998 71.037 112.986 70.605V68.9858C112.998 68.4099 113.017 67.8696 113.041 67.3657C113.041 67.1617 113.101 66.9275 113.221 66.6636C113.281 66.5077 113.383 66.3816 113.526 66.2856C113.67 66.1896 113.833 66.1234 114.013 66.0874ZM100.452 66.1772C100.548 66.1772 100.632 66.1838 100.704 66.1958C100.788 66.1958 100.86 66.2014 100.92 66.2134C101.088 66.2374 101.226 66.3093 101.334 66.4292C101.43 66.4892 101.496 66.5853 101.532 66.7173C101.556 66.7891 101.574 66.8612 101.586 66.9331C101.61 66.9931 101.634 67.0593 101.658 67.1313C101.67 67.2153 101.676 67.2937 101.676 67.3657V68.3198L101.568 77.6616V77.8413C101.568 77.9133 101.55 78.0215 101.514 78.1655C101.502 78.2255 101.484 78.2918 101.46 78.3638C101.436 78.4236 101.412 78.4892 101.388 78.561C101.328 78.705 101.244 78.8132 101.136 78.8852C101.04 78.9812 100.884 79.0475 100.668 79.0835C100.332 79.1555 100.026 79.1256 99.75 78.9936C99.594 78.8976 99.4858 78.7773 99.4258 78.6333C99.4019 78.6094 99.3783 78.5735 99.3545 78.5259C99.3545 78.5019 99.3423 78.4654 99.3184 78.4175C99.2944 78.3575 99.2757 78.2977 99.2637 78.2378C99.2517 78.1658 99.2405 78.093 99.2285 78.021C99.2285 77.9611 99.2219 77.9011 99.21 77.8413C99.21 77.7814 99.2044 77.7215 99.1924 77.6616C99.1684 77.6016 99.1563 77.5531 99.1563 77.5171V77.355C99.1801 77.3068 99.1924 77.217 99.1924 77.0854L99.21 75.6636L99.2285 73.395H98.2559L94.6016 73.4136L94.5664 77.6616V77.8413C94.5664 77.9133 94.5477 78.0215 94.5117 78.1655C94.4997 78.2255 94.482 78.2918 94.458 78.3638C94.4341 78.4236 94.4097 78.4892 94.3858 78.561C94.3258 78.705 94.2418 78.8132 94.1338 78.8852C94.0378 78.9812 93.882 79.0475 93.666 79.0835C93.3301 79.1555 93.024 79.1256 92.7481 78.9936C92.6281 78.9216 92.5143 78.8013 92.4063 78.6333C92.3824 78.5856 92.3703 78.5499 92.3701 78.5259L92.3164 78.4175C92.2924 78.3575 92.2737 78.2977 92.2617 78.2378L92.2256 78.021C92.2256 77.9611 92.22 77.9011 92.208 77.8413C92.196 77.7814 92.1839 77.7215 92.1719 77.6616C92.1599 77.5656 92.1599 77.463 92.1719 77.355V77.0854L92.1904 75.6636L92.2256 73.0171C92.2376 72.6332 92.2441 72.2374 92.2441 71.8296V70.5698C92.2321 70.1378 92.2256 69.7535 92.2256 69.4175C92.2376 69.0815 92.2563 68.7036 92.2803 68.2837V68.2114C92.2923 68.0914 92.2979 67.971 92.2979 67.8511C92.2979 67.7192 92.3044 67.5874 92.3164 67.4555C92.3284 67.3357 92.3462 67.2217 92.3701 67.1138C92.4061 66.9938 92.4537 66.8734 92.5137 66.7534C92.5497 66.6574 92.5982 66.579 92.6582 66.519C92.7181 66.4472 92.7902 66.3816 92.874 66.3218C93.066 66.2258 93.2582 66.1772 93.4502 66.1772C93.5461 66.1772 93.6302 66.1838 93.7022 66.1958C93.7741 66.1958 93.846 66.2014 93.918 66.2134C94.0619 66.2254 94.2001 66.2973 94.332 66.4292C94.428 66.5132 94.4943 66.6093 94.5303 66.7173C94.5903 66.8732 94.6257 67.0114 94.6377 67.1313C94.6497 67.2153 94.6563 67.2937 94.6563 67.3657V68.3198L94.6201 71.2895H94.9443C95.0762 71.2895 95.2259 71.2829 95.3936 71.271C96.0176 71.271 96.6361 71.2775 97.2481 71.2895C97.872 71.3015 98.526 71.3071 99.21 71.3071H99.2285V69.7593C99.2405 69.2673 99.2582 68.7513 99.2822 68.2114V67.8511C99.2942 67.7192 99.3064 67.5874 99.3184 67.4555C99.3304 67.3357 99.3481 67.2217 99.3721 67.1138C99.4081 66.9938 99.4557 66.8734 99.5156 66.7534C99.5396 66.6574 99.5816 66.579 99.6416 66.519C99.7135 66.4471 99.7978 66.3817 99.8936 66.3218C100.062 66.2258 100.248 66.1772 100.452 66.1772ZM70.8604 66.2495C71.2923 66.2495 71.7365 66.2551 72.1924 66.2671H72.2647C72.3964 66.279 72.5341 66.2856 72.6777 66.2856C72.8216 66.2856 72.9599 66.2912 73.0918 66.3032C73.2238 66.3032 73.3563 66.3219 73.4883 66.3579C73.6201 66.3819 73.752 66.4174 73.8838 66.4653C74.0876 66.5252 74.2558 66.6272 74.3877 66.771C74.4957 66.939 74.5498 67.1079 74.5498 67.2759V67.4917C74.5498 67.5515 74.5386 67.6115 74.5147 67.6714C74.5027 67.7914 74.4299 67.9173 74.2979 68.0493C74.2499 68.0733 74.1957 68.1032 74.1358 68.1391C74.0878 68.1751 74.028 68.205 73.9561 68.229C73.8842 68.2529 73.8065 68.2717 73.7227 68.2837C73.6507 68.2837 73.5779 68.2893 73.5059 68.3013C73.41 68.3252 73.3202 68.3374 73.2363 68.3374H72.1738L68.5742 68.355V68.4097L68.5381 71.2358H69.2578C69.7498 71.2238 70.1883 71.2173 70.5723 71.2173C70.9562 71.2173 71.3826 71.2238 71.8506 71.2358H71.9404C72.0843 71.2358 72.2226 71.2414 72.3545 71.2534H72.7686C72.9124 71.2654 73.0507 71.2897 73.1826 71.3257C73.3145 71.3496 73.4463 71.3796 73.5781 71.4155C73.7821 71.4875 73.95 71.5957 74.082 71.7397C74.2019 71.8956 74.2617 72.0693 74.2617 72.2612V72.477C74.2617 72.5489 74.2505 72.6153 74.2266 72.6753C74.2026 72.8073 74.1242 72.9276 73.9922 73.0356C73.9322 73.1195 73.8182 73.1793 73.6504 73.2153C73.4946 73.2633 73.3385 73.2931 73.1826 73.3052C73.0146 73.3412 72.8457 73.3598 72.6777 73.3598H71.832L68.502 73.3774L68.4658 76.9057L72.0479 76.9419H73.1641C73.2481 76.9419 73.3264 76.9475 73.3984 76.9595C73.4943 76.9834 73.5785 77.0012 73.6504 77.0132C73.7342 77.0132 73.812 77.0254 73.8838 77.0493C74.0278 77.0973 74.1481 77.1635 74.2441 77.2475C74.3641 77.3675 74.4425 77.4935 74.4785 77.6255C74.4905 77.6854 74.4961 77.7517 74.4961 77.8237C74.508 77.8835 74.508 77.9492 74.4961 78.021C74.4961 78.2129 74.4364 78.3875 74.3164 78.5434C74.1725 78.7114 74.0044 78.8196 73.8125 78.8677C73.5606 78.9756 73.2843 79.0297 72.9844 79.0298C72.8524 79.0418 72.7143 79.0473 72.5703 79.0473C72.4263 79.0473 72.2882 79.0539 72.1563 79.0659H72.0479C71.112 79.0899 70.1397 79.0899 69.1318 79.0659C68.8923 79.0659 68.7005 79.0593 68.5566 79.0473H67.3506C67.0746 79.0713 66.846 79.0238 66.666 78.9038C66.534 78.8198 66.4324 78.705 66.3604 78.561C66.3245 78.5251 66.3067 78.4895 66.3066 78.4536C66.2948 78.4299 66.2824 78.4119 66.2705 78.3999C66.2585 78.3879 66.2464 78.3692 66.2344 78.3452C66.2104 78.2852 66.1917 78.2255 66.1797 78.1655C66.1677 78.0935 66.1621 78.0273 66.1621 77.9673C66.1501 77.9074 66.138 77.8475 66.126 77.7876C66.126 77.7277 66.1203 77.6677 66.1084 77.6079V77.1753C66.1203 77.1274 66.126 77.0796 66.126 77.0317V75.6274L66.1621 73.0356V69.4897C66.1741 69.1537 66.1863 68.7871 66.1983 68.3911V68.3013C66.2102 68.1695 66.2158 68.0497 66.2158 67.9419C66.2278 67.8219 66.2344 67.7015 66.2344 67.5815C66.2464 67.3415 66.3126 67.1074 66.4326 66.8794C66.4806 66.7835 66.5282 66.6994 66.5762 66.6274C66.6362 66.5554 66.7146 66.4957 66.8106 66.4477C66.9905 66.3398 67.1762 66.2856 67.3682 66.2856C67.464 66.2856 67.536 66.2912 67.584 66.3032V66.2856H68.8984C69.0424 66.2736 69.2403 66.2671 69.4922 66.2671C69.9722 66.2551 70.4284 66.2495 70.8604 66.2495ZM173.308 66.2134C173.44 66.2134 173.553 66.2377 173.649 66.2856C173.745 66.3336 173.842 66.3877 173.938 66.4477C174.046 66.5317 174.148 66.6213 174.244 66.7173C174.352 66.8132 174.447 66.916 174.531 67.0239C174.627 67.1439 174.718 67.2577 174.802 67.3657C174.886 67.4617 174.97 67.5756 175.054 67.7075L175.107 67.7798C175.395 68.1637 175.666 68.5351 175.918 68.895C176.17 69.243 176.434 69.6218 176.71 70.0298C176.734 70.0538 176.77 70.1017 176.817 70.1733C176.865 70.2453 176.92 70.3294 176.98 70.4253C177.027 70.3413 177.069 70.2694 177.105 70.2095C177.153 70.1376 177.19 70.09 177.214 70.0659C177.49 69.6579 177.754 69.2736 178.006 68.9136C178.258 68.5536 178.527 68.1813 178.815 67.7973L178.852 67.7251C178.947 67.6172 179.032 67.5097 179.104 67.4018C179.188 67.2818 179.278 67.1615 179.374 67.0415C179.53 66.8255 179.74 66.6398 180.004 66.4839C180.196 66.3519 180.394 66.2679 180.598 66.2319C180.826 66.2079 181.023 66.2556 181.191 66.3755C181.263 66.4235 181.33 66.4655 181.39 66.5014C181.462 66.5374 181.521 66.5795 181.569 66.6274C181.665 66.7354 181.744 66.8679 181.804 67.0239C181.816 67.0838 181.816 67.1437 181.804 67.2036C181.804 67.2636 181.786 67.3299 181.75 67.4018C181.702 67.5696 181.648 67.7192 181.588 67.8511C181.516 68.0191 181.425 68.1637 181.317 68.2837C181.269 68.3556 181.222 68.4276 181.174 68.4995C181.138 68.5595 181.101 68.6192 181.065 68.6792L180.832 68.9858L178.527 72.3159L178.113 72.8374V77.6255C178.089 77.6853 178.078 77.7453 178.078 77.8052C178.078 77.8652 178.072 77.9314 178.06 78.0034C178.036 78.0633 178.018 78.1232 178.006 78.1831C177.994 78.231 177.976 78.2853 177.952 78.3452C177.928 78.3932 177.916 78.4296 177.916 78.4536C177.904 78.4775 177.892 78.4953 177.88 78.5073C177.88 78.5193 177.873 78.5371 177.861 78.561C177.789 78.681 177.688 78.7892 177.556 78.8852C177.292 79.0172 176.991 79.0471 176.655 78.9751C176.464 78.951 176.32 78.8913 176.224 78.7954C176.164 78.7594 176.116 78.7173 176.08 78.6694C176.044 78.6214 176.008 78.5673 175.972 78.5073C175.948 78.4354 175.923 78.369 175.899 78.3091C175.876 78.2492 175.858 78.1892 175.846 78.1294C175.822 78.0694 175.81 78.0152 175.81 77.9673V72.8911L175.414 72.2798L173.074 68.9673L172.876 68.643C172.804 68.5351 172.713 68.409 172.605 68.2651C172.51 68.1332 172.425 67.9893 172.354 67.8335C172.306 67.7615 172.264 67.6896 172.228 67.6177C172.204 67.5337 172.179 67.4497 172.155 67.3657C172.119 67.2457 172.114 67.1254 172.138 67.0054C172.174 66.8495 172.246 66.7178 172.354 66.6098C172.473 66.502 172.6 66.4179 172.731 66.3579C172.899 66.2379 173.092 66.1894 173.308 66.2134ZM58.4658 66.2495C59.1618 66.2495 59.8522 66.2616 60.5361 66.2856C60.6919 66.2976 60.8416 66.3154 60.9854 66.3393C61.1294 66.3633 61.274 66.4053 61.418 66.4653C61.5259 66.5013 61.6277 66.5499 61.7236 66.6098C61.8196 66.6578 61.898 66.7232 61.958 66.8071C62.09 66.9631 62.1563 67.1254 62.1563 67.2934C62.1563 67.3654 62.1497 67.4438 62.1377 67.5278C62.1377 67.5995 62.132 67.6653 62.1201 67.7251C62.0841 67.857 62.0056 67.9831 61.8858 68.103C61.7898 68.1749 61.658 68.2291 61.4902 68.2651C61.4062 68.2891 61.3213 68.3078 61.2373 68.3198C61.1535 68.3318 61.0636 68.3496 60.9678 68.3735C60.8838 68.3855 60.7998 68.3911 60.7158 68.3911H59.5274C59.3115 68.4031 59.0957 68.4096 58.8799 68.4097H58.2676C58.2796 68.7816 58.2861 69.1838 58.2861 69.6157C58.2861 70.0356 58.2796 70.5275 58.2676 71.0913C58.2676 71.6552 58.262 72.3093 58.25 73.0532V77.0132C58.25 77.1332 58.2556 77.2237 58.2676 77.2837V77.4272C58.2676 77.4632 58.262 77.5118 58.25 77.5718C58.226 77.6797 58.2073 77.8058 58.1953 77.9497C58.1953 78.0096 58.1897 78.0695 58.1777 78.1294C58.1657 78.1774 58.148 78.2315 58.124 78.2915C58.076 78.3395 58.0518 78.3759 58.0518 78.3999L57.9981 78.5073C57.9381 78.6272 57.824 78.7412 57.6563 78.8491C57.3923 78.9811 57.0974 79.0119 56.7734 78.9399C56.5696 78.9159 56.4136 78.8617 56.3057 78.7778C56.1977 78.6698 56.1193 78.5616 56.0713 78.4536C55.9994 78.3217 55.9573 78.1956 55.9453 78.0757C55.9094 77.9678 55.8917 77.8537 55.8916 77.7339V68.4819H54.7041C54.4521 68.4699 54.2114 68.4578 53.9834 68.4458C53.7556 68.4338 53.5996 68.4216 53.5156 68.4097C53.4436 68.3976 53.3298 68.379 53.1738 68.355C53.0298 68.331 52.9095 68.3077 52.8135 68.2837C52.5617 68.2117 52.3637 68.0977 52.2197 67.9419C52.0877 67.7859 52.0215 67.6114 52.0215 67.4194V67.2036C52.0215 67.1316 52.0336 67.0654 52.0576 67.0054C52.0936 66.8614 52.1897 66.741 52.3457 66.645C52.3937 66.609 52.4657 66.567 52.5615 66.519C52.6695 66.459 52.7722 66.417 52.8682 66.393C53.0121 66.3451 53.1924 66.3096 53.4082 66.2856C53.5039 66.2737 53.5996 66.2671 53.6953 66.2671H55.1895C55.5734 66.2671 55.9756 66.2615 56.3955 66.2495C57.0915 66.2375 57.7818 66.2375 58.4658 66.2495ZM124.776 66.2856C125.436 66.3216 126.025 66.4895 126.541 66.7895C127.057 67.0775 127.495 67.4676 127.855 67.9595C128.227 68.4515 128.527 69.0037 128.755 69.6157C128.935 70.0716 129.073 70.5513 129.169 71.0552C129.265 71.5592 129.319 72.0639 129.331 72.5679C129.355 73.0597 129.336 73.546 129.276 74.0259C129.228 74.5057 129.144 74.95 129.024 75.3579C128.952 75.6337 128.868 75.8859 128.772 76.1138C128.677 76.3416 128.563 76.5695 128.431 76.7973C128.131 77.3133 127.741 77.7331 127.261 78.0571C126.793 78.3811 126.277 78.6097 125.713 78.7417C125.329 78.8377 124.932 78.8852 124.524 78.8852C124.117 78.8732 123.714 78.8191 123.318 78.7231C122.923 78.6152 122.539 78.4657 122.167 78.2739C121.807 78.0699 121.477 77.8171 121.177 77.5171C120.805 77.1572 120.499 76.7436 120.259 76.2759C120.019 75.796 119.833 75.2976 119.701 74.7817C119.569 74.2538 119.485 73.7256 119.449 73.1977C119.413 72.6697 119.413 72.165 119.449 71.685C119.485 71.2412 119.569 70.767 119.701 70.2632C119.845 69.7593 120.049 69.273 120.313 68.8052C120.576 68.3372 120.895 67.9174 121.267 67.5454C121.651 67.1614 122.095 66.8731 122.599 66.6811C123.402 66.3812 124.128 66.2497 124.776 66.2856ZM150.084 66.2856C150.744 66.3216 151.333 66.4895 151.849 66.7895C152.364 67.0775 152.802 67.4676 153.162 67.9595C153.534 68.4515 153.835 69.0037 154.063 69.6157C154.242 70.0716 154.381 70.5513 154.477 71.0552C154.573 71.5592 154.627 72.0639 154.639 72.5679C154.663 73.0597 154.644 73.546 154.584 74.0259C154.536 74.5057 154.452 74.95 154.332 75.3579C154.26 75.6337 154.176 75.8859 154.08 76.1138C153.984 76.3416 153.87 76.5695 153.738 76.7973C153.438 77.3133 153.048 77.7331 152.568 78.0571C152.1 78.3811 151.584 78.6097 151.021 78.7417C150.637 78.8377 150.24 78.8852 149.832 78.8852C149.424 78.8732 149.022 78.8191 148.626 78.7231C148.23 78.6152 147.846 78.4657 147.475 78.2739C147.115 78.0699 146.784 77.8171 146.484 77.5171C146.113 77.1572 145.806 76.7436 145.566 76.2759C145.326 75.796 145.141 75.2976 145.009 74.7817C144.877 74.2538 144.793 73.7256 144.757 73.1977C144.721 72.6697 144.721 72.165 144.757 71.685C144.793 71.2412 144.877 70.767 145.009 70.2632C145.153 69.7593 145.356 69.273 145.62 68.8052C145.884 68.3372 146.202 67.9174 146.574 67.5454C146.958 67.1614 147.402 66.8731 147.906 66.6811C148.71 66.3812 149.436 66.2497 150.084 66.2856ZM13.124 18.6518C17.6655 16.7317 22.7377 16.4705 27.4522 17.9145C32.1664 19.3586 36.2222 22.4153 38.9092 26.5493C41.596 30.6835 42.7432 35.6322 42.1484 40.5268C41.5536 45.4211 39.2557 49.9505 35.6572 53.3208C32.0585 56.6911 27.3878 58.6883 22.4649 58.9614C18.7902 59.1652 15.149 58.3992 11.8965 56.77L11.252 56.4321C9.79799 55.6396 9.53423 53.7391 10.5254 52.4126C11.5169 51.0864 13.388 50.8469 14.8848 51.5552C17.1306 52.6178 19.6209 53.1124 22.1328 52.9731C25.6498 52.778 28.9866 51.3516 31.5576 48.9438C34.1285 46.536 35.7704 43.2998 36.1953 39.8032C36.6202 36.3064 35.8004 32.7714 33.8809 29.8179C31.9612 26.8643 29.0634 24.6806 25.6953 23.6489C22.3272 22.6173 18.7034 22.8035 15.459 24.1753C12.2147 25.5471 9.55661 28.017 7.9502 31.1518L7.74122 31.5737C6.73472 33.6997 6.24729 36.0224 6.30274 38.3511C6.31061 38.6832 6.27511 39.0135 6.20411 39.3325L6.29005 74.979L6.28614 75.1333C6.20936 76.7184 4.90181 77.983 3.29688 77.9868C1.69202 77.9905 0.378299 76.7326 0.293953 75.1479L0.290047 74.9936L0.20118 37.9936C0.200504 37.7012 0.242901 37.4183 0.32032 37.1509C0.441737 34.1292 1.21343 31.1465 2.61231 28.4165C4.86092 24.0284 8.58265 20.572 13.124 18.6518ZM124.507 68.5532C124.147 68.5532 123.745 68.6614 123.301 68.8774C123.037 69.0094 122.809 69.1896 122.617 69.4175C122.437 69.6455 122.287 69.9039 122.167 70.1919C122.059 70.4798 121.968 70.7794 121.896 71.0913C121.836 71.4033 121.801 71.7037 121.789 71.9917C121.765 72.3036 121.759 72.634 121.771 72.9819C121.783 73.3177 121.819 73.6595 121.879 74.0073C121.951 74.3432 122.047 74.6671 122.167 74.979C122.287 75.2789 122.448 75.5496 122.652 75.7895C122.964 76.1494 123.325 76.4014 123.732 76.5454C124.152 76.6774 124.567 76.6951 124.975 76.5991C125.635 76.4551 126.138 76.0174 126.486 75.2856C126.63 75.0216 126.739 74.7212 126.811 74.3852C126.955 73.8213 127.015 73.185 126.991 72.477C126.967 71.7692 126.852 71.1029 126.648 70.479C126.516 70.0952 126.348 69.759 126.145 69.4712C125.953 69.1713 125.718 68.9435 125.442 68.7876C125.178 68.6317 124.867 68.5532 124.507 68.5532ZM149.814 68.5532C149.454 68.5532 149.052 68.6614 148.608 68.8774C148.344 69.0094 148.117 69.1896 147.925 69.4175C147.745 69.6455 147.595 69.9039 147.475 70.1919C147.367 70.4798 147.276 70.7794 147.204 71.0913C147.144 71.4033 147.109 71.7037 147.097 71.9917C147.073 72.3036 147.066 72.634 147.078 72.9819C147.09 73.3177 147.127 73.6595 147.187 74.0073C147.259 74.3432 147.355 74.6671 147.475 74.979C147.595 75.2789 147.756 75.5496 147.96 75.7895C148.272 76.1494 148.632 76.4014 149.04 76.5454C149.46 76.6774 149.874 76.6951 150.282 76.5991C150.942 76.4551 151.446 76.0174 151.794 75.2856C151.938 75.0216 152.046 74.7212 152.118 74.3852C152.262 73.8213 152.323 73.185 152.299 72.477C152.275 71.7692 152.16 71.1029 151.956 70.479C151.824 70.0952 151.656 69.759 151.452 69.4712C151.26 69.1713 151.026 68.9435 150.75 68.7876C150.486 68.6317 150.174 68.5532 149.814 68.5532ZM67.3018 15.9927C79.4518 15.9927 89.3013 25.8428 89.3018 37.9927C89.3017 50.1429 79.452 59.9927 67.3018 59.9927C55.1515 59.9927 45.3018 50.1429 45.3018 37.9927C45.3022 25.8428 55.1518 15.9927 67.3018 15.9927ZM175.801 8.02586C178.853 1.25743 183.692 -0.624845 185.268 0.15965C180.941 4.04077 181.662 9.4582 182.563 11.6821C186.458 7.80151 190.678 10.0649 192.301 11.6821C189.756 11.1786 185.171 11.93 183.937 17.7534C191.794 21.1101 197.302 28.9079 197.302 37.9927C197.302 50.1428 187.452 59.9927 175.302 59.9927C163.152 59.9927 153.302 50.1428 153.302 37.9927C153.302 28.5591 159.24 20.5128 167.582 17.3862C166.236 11.8985 161.792 11.1894 159.302 11.6821C160.925 10.0649 165.144 7.80141 169.039 11.6821C169.941 9.45808 170.661 4.04074 166.334 0.15965C167.91 -0.625146 172.748 1.2573 175.801 8.02586ZM223.302 16.9936C234.9 16.9936 244.302 26.3957 244.302 37.9936C244.302 49.5915 234.9 58.9936 223.302 58.9936C211.704 58.9936 202.302 49.5915 202.302 37.9936C202.302 26.3957 211.704 16.9936 223.302 16.9936ZM132.802 16.9936C140.81 16.9936 147.302 23.4855 147.302 31.4936V54.9936C147.302 56.6504 145.959 57.9936 144.302 57.9936C142.645 57.9936 141.302 56.6504 141.302 54.9936V31.4936C141.302 26.7992 137.496 22.9936 132.802 22.9936C128.107 22.9936 124.302 26.7992 124.302 31.4936V54.9936C124.302 56.6504 122.959 57.9936 121.302 57.9936C119.645 57.9936 118.302 56.6504 118.302 54.9936V31.4936C118.302 26.7992 114.496 22.9936 109.802 22.9936C105.107 22.9936 101.302 26.7992 101.302 31.4936V54.9936C101.302 56.6504 99.9586 57.9936 98.3018 57.9936C96.645 57.9936 95.3019 56.6504 95.3018 54.9936V31.4936C95.3018 23.4855 101.794 16.9936 109.802 16.9936C114.486 16.9936 118.651 19.2151 121.302 22.6616C123.953 19.2151 128.118 16.9936 132.802 16.9936ZM68.3565 53.7739C67.8237 55.6894 69.1311 56.0245 69.8516 55.9526C70.3604 56.4155 70.9312 54.9355 71.1533 54.1372C71.9154 52.6481 70.7072 52.0941 70.0078 52.0034L68.3565 53.7739ZM184.884 20.1479C184.54 19.9871 184.122 20.11 183.923 20.4429C183.724 20.7761 183.813 21.2021 184.118 21.4292L184.182 21.4712L184.678 21.7788C187.132 23.3494 189.201 25.4587 190.724 27.9487C192.348 30.6047 193.304 33.6156 193.51 36.7222C193.702 39.6346 193.23 42.5507 192.132 45.2495L191.903 45.7866C190.643 48.6335 188.71 51.1328 186.271 53.0688C185.948 53.3264 185.894 53.7983 186.151 54.1225C186.409 54.4465 186.881 54.5001 187.205 54.2427C189.833 52.1557 191.917 49.4626 193.275 46.394L193.521 45.8149C194.704 42.9059 195.214 39.7629 195.007 36.6235C194.785 33.2747 193.754 30.0285 192.003 27.1655C190.361 24.4815 188.132 22.2081 185.486 20.5151L184.952 20.1841L184.884 20.1479ZM63.5 50.0571C62.9359 49.6638 62.56 51.2047 62.4424 52.0249C61.8784 53.5993 63.1473 53.9935 63.8525 53.9936L65.2627 52.0249C65.5447 50.0566 64.2052 49.8931 63.5 50.0571ZM223.302 22.9936C215.017 22.9936 208.302 29.7094 208.302 37.9936C208.302 46.2778 215.018 52.9936 223.302 52.9936C231.586 52.9936 238.302 46.2778 238.302 37.9936C238.302 29.7094 231.586 22.9936 223.302 22.9936ZM80.6045 49.2055C80.3461 48.5681 79.1902 49.6554 78.6445 50.2788C77.3136 51.291 78.1628 52.3131 78.7539 52.6977L81.0098 51.8169C82.3193 50.3206 81.2851 49.4525 80.6045 49.2055ZM74.9629 46.0395C74.5069 45.5258 73.7794 46.9361 73.4727 47.7055C72.5552 49.1034 73.6964 49.7841 74.3818 49.9497L76.2149 48.3677C76.9511 46.5205 75.6869 46.0456 74.9629 46.0395ZM67.5 45.0571C66.9359 44.6638 66.56 46.2047 66.4424 47.0249C65.8784 48.5993 67.1473 48.9935 67.8525 48.9936L69.2627 47.0249C69.5447 45.0566 68.2052 44.8931 67.5 45.0571ZM56.5 44.0571C55.9359 43.6638 55.56 45.2047 55.4424 46.0249C54.8784 47.5993 56.1473 47.9935 56.8525 47.9936L58.2627 46.0249C58.5447 44.0566 57.2052 43.8931 56.5 44.0571ZM63.8721 44.561C62.8047 42.8834 61.6805 43.6307 61.252 44.2143C60.5687 44.2836 61.2859 45.698 61.7305 46.397C62.3273 47.9593 63.5476 47.4322 64.083 46.9731L63.8721 44.561ZM51.5 42.0571C50.9359 41.6638 50.56 43.2047 50.4424 44.0249C49.8784 45.5993 51.1473 45.9935 51.8525 45.9936L53.2627 44.0249C53.5447 42.0566 52.2052 41.8931 51.5 42.0571ZM73.0195 41.0454C72.5787 40.5183 71.8105 41.9063 71.4815 42.6665C70.5234 44.0371 71.6448 44.7515 72.3252 44.937L74.2031 43.4087C74.9929 41.5837 73.7431 41.0726 73.0195 41.0454ZM65.5 38.0571C64.9359 37.6638 64.56 39.2047 64.4424 40.0249C63.8784 41.5993 65.1473 41.9935 65.8525 41.9936L67.2627 40.0249C67.5447 38.0566 66.2052 37.8931 65.5 38.0571ZM58.5 37.0571C57.9359 36.6638 57.56 38.2047 57.4424 39.0249C56.8784 40.5993 58.1473 40.9935 58.8525 40.9936L60.2627 39.0249C60.5447 37.0566 59.2052 36.8931 58.5 37.0571ZM52.5 36.0571C51.9359 35.6638 51.56 37.2047 51.4424 38.0249C50.8784 39.5993 52.1473 39.9935 52.8525 39.9936L54.2627 38.0249C54.5447 36.0566 53.2052 35.8931 52.5 36.0571ZM70.5 35.0571C69.9359 34.6638 69.56 36.2047 69.4424 37.0249C68.8784 38.5993 70.1473 38.9935 70.8525 38.9936L72.2627 37.0249C72.5447 35.0566 71.2052 34.8931 70.5 35.0571ZM63.5 31.0571C62.9359 30.6638 62.56 32.2047 62.4424 33.0249C61.8784 34.5993 63.1473 34.9935 63.8525 34.9936L65.2627 33.0249C65.5447 31.0566 64.2052 30.8931 63.5 31.0571ZM56.4131 31.9624C56.0603 33.9186 57.3938 34.1309 58.1045 33.9927C58.654 34.4064 59.0853 32.8793 59.2324 32.0639C59.8532 30.5109 58.5993 30.072 57.8945 30.0464L56.4131 31.9624ZM52.4473 29.143C52.1349 28.5304 51.0778 29.7132 50.5879 30.3813C49.3491 31.5044 50.2822 32.4493 50.9043 32.7817L53.0762 31.7095C54.2518 30.106 53.1466 29.3305 52.4473 29.143ZM60.5 24.0571C59.9359 23.6638 59.56 25.2047 59.4424 26.0249C58.8784 27.5993 60.1473 27.9935 60.8525 27.9936L62.2627 26.0249C62.5447 24.0566 61.2052 23.8931 60.5 24.0571ZM50.2725 10.8286C50.7819 9.70461 53.1093 9.65984 55.4707 10.729L55.9043 10.938C58.0129 12.0186 59.3026 13.6476 58.8262 14.7016L58.7734 14.8032C58.1721 15.8274 55.9153 15.8365 53.627 14.8003L53.1953 14.5923C51.0863 13.5116 49.7956 11.8827 50.2725 10.8286ZM52.2061 11.4555C52.0028 11.4594 51.8581 11.4789 51.7578 11.5005C51.8077 11.59 51.8883 11.7122 52.0195 11.8677C52.4533 12.3811 53.2228 12.9706 54.2461 13.4341C55.2699 13.8977 56.2214 14.0875 56.8936 14.0747C57.0966 14.0708 57.2407 14.0503 57.3408 14.0288C57.2909 13.9394 57.2107 13.8174 57.0801 13.6626C56.6463 13.149 55.8761 12.5587 54.8525 12.0952C53.8291 11.6318 52.8781 11.4428 52.2061 11.4555ZM62.5332 4.1118C63.7657 4.04622 64.8766 6.09237 65.0147 8.68113L65.0283 9.1616C65.0397 11.5314 64.1877 13.4272 63.0322 13.4888H62.918C61.7319 13.4264 60.6853 11.4269 60.5518 8.91844L60.5381 8.43895C60.5266 6.06928 61.3779 4.17372 62.5332 4.1118ZM62.6211 5.73973C62.5646 5.82518 62.4926 5.95213 62.415 6.14012C62.1588 6.76142 61.9902 7.71651 62.0498 8.83836C62.1096 9.96048 62.3795 10.8931 62.7002 11.4839C62.797 11.6621 62.8811 11.7809 62.9463 11.8598C63.0027 11.7743 63.0741 11.6468 63.1514 11.4595C63.4076 10.838 63.5763 9.88227 63.5166 8.76024C63.4568 7.63858 63.1878 6.70728 62.8672 6.11668C62.7703 5.93835 62.6863 5.81876 62.6211 5.73973Z" fill="#345B77"/>
</svg>
