<svg width="245" height="80" viewBox="0 0 245 80" fill="none" xmlns="http://www.w3.org/2000/svg">
<path d="M163.422 66.2857C163.986 66.2257 164.538 66.2434 165.078 66.3394C165.63 66.4354 166.14 66.6089 166.608 66.8609C167.088 67.1129 167.466 67.4497 167.742 67.8697C167.934 68.1816 168.084 68.5596 168.192 69.0035C168.3 69.4472 168.318 69.873 168.246 70.2808C168.186 70.6408 168.06 70.8937 167.868 71.0377C167.676 71.1695 167.466 71.2228 167.238 71.1988C167.01 71.1628 166.788 71.0676 166.572 70.9117C166.368 70.7437 166.23 70.5328 166.158 70.2808C166.074 70.005 165.972 69.7529 165.853 69.525C165.733 69.285 165.546 69.0872 165.294 68.9312C165.006 68.7513 164.7 68.6495 164.376 68.6255C164.064 68.6016 163.758 68.637 163.458 68.733C163.17 68.829 162.894 68.9792 162.63 69.1832C162.378 69.3871 162.168 69.6214 162 69.8853C161.796 70.1853 161.64 70.5156 161.532 70.8755C161.424 71.2235 161.346 71.5893 161.298 71.9732C161.25 72.3451 161.232 72.7231 161.244 73.107C161.268 73.4789 161.316 73.8391 161.388 74.1871C161.52 74.7751 161.724 75.3273 162 75.8433C162.108 76.0353 162.253 76.2088 162.433 76.3648C162.625 76.5088 162.835 76.6292 163.063 76.7252C163.29 76.8091 163.53 76.8633 163.782 76.8873C164.034 76.9112 164.274 76.8935 164.502 76.8335C164.826 76.7496 165.09 76.6413 165.294 76.5093C165.498 76.3654 165.66 76.1974 165.78 76.0054C165.9 75.8135 165.979 75.6034 166.015 75.3755C166.063 75.1475 166.086 74.9068 166.086 74.6548V74.6373H165.672C165.552 74.6253 165.462 74.6197 165.402 74.6197C165.138 74.6197 164.88 74.5712 164.628 74.4752C164.412 74.4032 164.251 74.2892 164.143 74.1334C164.023 74.0014 163.962 73.839 163.962 73.647V73.4488C163.974 73.3769 163.986 73.3048 163.998 73.233C164.034 73.137 164.113 73.0175 164.232 72.8736C164.304 72.8136 164.418 72.7651 164.574 72.7291C164.646 72.7051 164.718 72.6873 164.79 72.6753C164.862 72.6514 164.946 72.6336 165.042 72.6216C165.114 72.6096 165.192 72.6031 165.276 72.6031H167.166C167.298 72.5911 167.448 72.6088 167.616 72.6568C167.796 72.6928 167.934 72.7535 168.03 72.8375C168.066 72.8853 168.102 72.9332 168.138 72.981C168.174 73.029 168.205 73.0831 168.229 73.1431C168.277 73.2751 168.306 73.4076 168.318 73.5396C168.33 73.6114 168.336 73.6892 168.336 73.773C168.348 73.845 168.354 73.9112 168.354 73.9712V74.7095C168.354 75.0694 168.336 75.4353 168.3 75.8072C168.264 76.1672 168.192 76.5217 168.084 76.8697C167.976 77.2055 167.814 77.5295 167.599 77.8414C167.383 78.1414 167.088 78.4054 166.716 78.6334C166.536 78.7532 166.32 78.8551 166.068 78.939C165.828 79.011 165.57 79.0717 165.294 79.1197C165.03 79.1796 164.766 79.2151 164.502 79.2271C164.238 79.2511 163.992 79.2576 163.765 79.2457C162.685 79.2097 161.808 78.9512 161.136 78.4712C160.476 77.9793 159.966 77.3728 159.606 76.6529C159.258 75.9329 159.03 75.153 158.922 74.313C158.826 73.4612 158.808 72.6513 158.868 71.8834C158.904 71.4274 158.983 70.9348 159.103 70.4068C159.235 69.879 159.42 69.3693 159.66 68.8775C159.912 68.3856 160.218 67.9414 160.578 67.5455C160.95 67.1495 161.389 66.8491 161.893 66.6451C162.36 66.4532 162.87 66.3337 163.422 66.2857ZM135.136 66.3033C135.22 66.3033 135.298 66.3089 135.37 66.3209C135.454 66.3209 135.532 66.3274 135.604 66.3394C135.676 66.3514 135.742 66.3758 135.802 66.4117C135.874 66.4477 135.947 66.4952 136.019 66.5552C136.09 66.6391 136.156 66.7412 136.216 66.8609C136.264 66.9929 136.294 67.1254 136.306 67.2574C136.318 67.3412 136.33 67.4189 136.342 67.4908C136.354 67.5628 136.36 67.6356 136.36 67.7076C136.336 67.7795 136.324 67.8515 136.324 67.9234V68.4449L136.252 76.9234L139.816 76.9595H140.662C140.734 76.9595 140.812 76.9651 140.896 76.9771C140.98 76.9771 141.065 76.9837 141.148 76.9957C141.244 77.0076 141.328 77.0188 141.4 77.0308C141.472 77.0428 141.544 77.0615 141.616 77.0855C141.748 77.1215 141.856 77.1812 141.94 77.2652C142.072 77.3851 142.156 77.5056 142.192 77.6255C142.216 77.6855 142.229 77.7754 142.229 77.8951V78.1656C142.228 78.2614 142.21 78.3512 142.174 78.4351C142.138 78.5191 142.09 78.5975 142.03 78.6695C141.922 78.8134 141.766 78.9217 141.563 78.9937C141.275 79.0897 141.004 79.1373 140.752 79.1373C140.62 79.1492 140.482 79.1548 140.338 79.1548C140.194 79.1549 140.05 79.167 139.906 79.191H139.834C138.91 79.203 137.956 79.203 136.972 79.191C136.732 79.179 136.462 79.179 136.162 79.191C135.862 79.215 135.568 79.2094 135.28 79.1734C134.992 79.1494 134.728 79.0831 134.488 78.9752C134.26 78.8552 134.098 78.6694 134.002 78.4175C133.978 78.3576 133.96 78.3034 133.948 78.2554C133.936 78.1954 133.93 78.1348 133.93 78.0748C133.882 77.6671 133.864 77.2654 133.876 76.8697C133.888 76.4737 133.895 76.0828 133.895 75.6988L133.93 73.0894V69.525C133.942 69.189 133.954 68.8166 133.966 68.4087V68.3189C133.978 68.1991 133.984 68.0793 133.984 67.9595C133.996 67.8395 134.002 67.7192 134.002 67.5992C134.026 67.3232 134.092 67.089 134.2 66.897C134.272 66.7171 134.398 66.5733 134.578 66.4654C134.734 66.3575 134.92 66.3033 135.136 66.3033ZM84.5225 66.1949C85.0024 66.2309 85.4521 66.3336 85.8721 66.5015C86.3041 66.6575 86.6707 66.873 86.9707 67.149C87.1627 67.317 87.3605 67.5512 87.5645 67.8511C87.7804 68.1511 87.9362 68.4571 88.0322 68.7691C88.1282 69.081 88.1281 69.375 88.0322 69.6509C87.9483 69.9149 87.7083 70.095 87.3125 70.191C87.1445 70.239 86.9943 70.2511 86.8623 70.2271C86.7303 70.1911 86.61 70.137 86.502 70.065C86.3941 69.981 86.2922 69.8848 86.1963 69.7769C86.1004 69.669 86.0097 69.5616 85.9258 69.4537C85.6378 69.1057 85.302 68.8715 84.918 68.7515C84.5341 68.6196 84.1505 68.5897 83.7666 68.6617C83.3946 68.7217 83.0401 68.8774 82.7041 69.1294C82.3803 69.3694 82.1282 69.6812 81.9482 70.065C81.7562 70.473 81.6005 70.9236 81.4805 71.4156C81.3725 71.8955 81.3118 72.3873 81.2998 72.8912C81.2878 73.3832 81.3298 73.8636 81.4258 74.3316C81.5337 74.7993 81.714 75.213 81.9658 75.5728C82.1578 75.8607 82.3921 76.095 82.668 76.275C82.9559 76.4549 83.2621 76.5809 83.5859 76.6529C83.9099 76.7249 84.2346 76.737 84.5586 76.689C84.8945 76.641 85.2184 76.5327 85.5303 76.3648C85.6261 76.3169 85.7281 76.2514 85.8359 76.1675C85.9559 76.0716 86.0763 75.9754 86.1963 75.8794C86.3163 75.7834 86.4366 75.6929 86.5566 75.6089C86.6885 75.5251 86.8269 75.4652 86.9707 75.4293C87.1865 75.3574 87.4202 75.363 87.6719 75.4468C87.9359 75.5308 88.1346 75.7053 88.2666 75.9693C88.4225 76.3172 88.4282 76.6597 88.2842 76.9957C88.1402 77.3194 87.9123 77.6192 87.6006 77.8951C87.2887 78.171 86.9284 78.4108 86.5205 78.6148C86.1247 78.8187 85.7466 78.9634 85.3867 79.0474C84.9907 79.1314 84.57 79.1668 84.126 79.1548C83.6942 79.1548 83.2563 79.1016 82.8125 78.9937C82.3805 78.8977 81.9542 78.7531 81.5342 78.5611C81.1262 78.3571 80.7484 78.1108 80.4004 77.8228C79.9805 77.4749 79.6501 77.0614 79.4102 76.5816C79.1822 76.0896 79.0143 75.5672 78.9063 75.0152C78.7983 74.4632 78.7386 73.9109 78.7266 73.3589C78.7266 72.795 78.7443 72.2669 78.7803 71.775C78.8163 71.3311 78.9059 70.8691 79.0498 70.3892C79.1938 69.9092 79.3925 69.4409 79.6445 68.9849C79.9085 68.517 80.2202 68.0849 80.5801 67.689C80.952 67.2931 81.3841 66.9572 81.876 66.6812C82.2479 66.4652 82.6622 66.3216 83.1182 66.2496C83.5862 66.1656 84.0545 66.1469 84.5225 66.1949ZM114.214 66.0875C114.394 66.0515 114.574 66.0515 114.754 66.0875C114.934 66.1234 115.09 66.1953 115.222 66.3033C115.258 66.3393 115.294 66.3813 115.33 66.4293C115.366 66.4772 115.396 66.5314 115.42 66.5914C115.48 66.7473 115.516 66.8855 115.528 67.0054C115.564 67.1733 115.582 67.3237 115.582 67.4556V72.0455C115.594 73.6054 115.606 75.1354 115.618 76.6353C115.618 76.8033 115.624 76.9712 115.636 77.1392C115.648 77.2952 115.648 77.4575 115.636 77.6255C115.624 77.8294 115.594 78.0452 115.546 78.273C115.51 78.501 115.396 78.6876 115.204 78.8316C115.06 78.9515 114.898 79.0234 114.718 79.0474C114.538 79.0714 114.358 79.0593 114.178 79.0113C114.01 78.9753 113.848 78.9154 113.692 78.8316C113.536 78.7356 113.409 78.6208 113.313 78.4888C112.906 77.985 112.528 77.4688 112.18 76.941C111.844 76.4011 111.502 75.8608 111.154 75.3209L109.642 73.0357C109.438 72.7118 109.222 72.3515 108.994 71.9556C108.766 71.5476 108.532 71.1689 108.292 70.8209L108.238 77.6968V77.8589C108.238 78.0509 108.202 78.2431 108.13 78.4351C108.07 78.6151 107.962 78.7709 107.806 78.9029C107.686 78.9989 107.53 79.0651 107.338 79.1011C107.038 79.1611 106.786 79.1434 106.582 79.0474C106.39 78.9514 106.234 78.8189 106.114 78.6509C106.006 78.4829 105.928 78.2907 105.88 78.0748C105.844 77.8469 105.838 77.6246 105.862 77.4087V77.1031L105.898 75.6988L105.916 73.0894C105.928 72.7055 105.934 72.3154 105.934 71.9195V70.6773C105.922 70.1614 105.922 69.6155 105.934 69.0396C105.958 68.4637 105.982 67.9234 106.006 67.4195C106.03 67.1435 106.096 66.9093 106.204 66.7173C106.252 66.5494 106.378 66.4057 106.582 66.2857C106.714 66.2017 106.882 66.1476 107.086 66.1236C107.302 66.0996 107.488 66.1052 107.644 66.1412C107.704 66.1652 107.764 66.195 107.824 66.231C107.884 66.255 107.944 66.2849 108.004 66.3209C108.064 66.3689 108.118 66.4174 108.166 66.4654C108.226 66.5134 108.28 66.5675 108.328 66.6275C108.388 66.6874 108.442 66.7529 108.49 66.8248C108.538 66.8848 108.586 66.9454 108.634 67.0054C108.67 67.0774 108.706 67.1437 108.742 67.2037C108.778 67.2635 108.82 67.3235 108.868 67.3834L109.066 67.6714L113.224 74.2232V73.0357C113.224 72.6517 113.218 72.2608 113.206 71.8648C113.206 71.4569 113.2 71.0369 113.188 70.605V68.9849C113.2 68.409 113.218 67.8687 113.242 67.3648C113.242 67.161 113.302 66.9273 113.422 66.6636C113.482 66.5078 113.584 66.3817 113.728 66.2857C113.872 66.1897 114.034 66.1235 114.214 66.0875ZM100.653 66.1773C100.749 66.1773 100.833 66.1829 100.905 66.1949C100.989 66.1949 101.061 66.2014 101.121 66.2134C101.289 66.2374 101.427 66.3093 101.535 66.4293C101.631 66.4893 101.697 66.5853 101.733 66.7173C101.757 66.7893 101.775 66.8612 101.787 66.9332C101.811 66.9932 101.835 67.0594 101.859 67.1314C101.871 67.2152 101.877 67.293 101.877 67.3648V68.3189L101.77 77.6617V77.8414C101.77 77.9134 101.751 78.0217 101.715 78.1656C101.703 78.2254 101.685 78.2911 101.661 78.3628C101.637 78.4228 101.613 78.4891 101.589 78.5611C101.529 78.7051 101.445 78.8133 101.337 78.8853C101.241 78.9812 101.085 79.0476 100.869 79.0835C100.533 79.1555 100.227 79.1256 99.9512 78.9937C99.7952 78.8977 99.687 78.7773 99.627 78.6334C99.603 78.6094 99.5797 78.5729 99.5557 78.525C99.5556 78.501 99.5433 78.4652 99.5195 78.4175C99.4955 78.3575 99.4769 78.2969 99.4649 78.2369C99.4529 78.165 99.4417 78.0929 99.4297 78.021C99.4297 77.9611 99.4231 77.9013 99.4111 77.8414C99.4111 77.7815 99.4055 77.7215 99.3936 77.6617C99.3696 77.6017 99.3574 77.5531 99.3574 77.5171V77.355C99.3813 77.307 99.3935 77.2171 99.3936 77.0855L99.4111 75.6636L99.4297 73.3951H98.457L94.8027 73.4136L94.7676 77.6617V77.8414C94.7676 77.9134 94.7489 78.0217 94.7129 78.1656C94.7009 78.2254 94.6831 78.2911 94.6592 78.3628C94.6352 78.4228 94.6109 78.4891 94.5869 78.5611C94.5269 78.7051 94.443 78.8133 94.335 78.8853C94.239 78.9812 94.0831 79.0476 93.8672 79.0835C93.5313 79.1555 93.2252 79.1256 92.9492 78.9937C92.8293 78.9217 92.7154 78.8013 92.6074 78.6334C92.5834 78.5854 92.5713 78.549 92.5713 78.525L92.5176 78.4175C92.4936 78.3575 92.4749 78.2969 92.4629 78.2369C92.4509 78.165 92.4387 78.0929 92.4268 78.021C92.4268 77.9611 92.4212 77.9013 92.4092 77.8414C92.3972 77.7815 92.385 77.7215 92.3731 77.6617C92.3611 77.5657 92.3611 77.463 92.3731 77.355V77.0855L92.3916 75.6636L92.4268 73.0171C92.4388 72.6333 92.4453 72.2375 92.4453 71.8296V70.5689C92.4333 70.1372 92.4268 69.7534 92.4268 69.4175C92.4388 69.0815 92.4575 68.7028 92.4815 68.2828V68.2115C92.4935 68.0915 92.499 67.9711 92.499 67.8511C92.499 67.7193 92.5056 67.5875 92.5176 67.4556C92.5296 67.3356 92.5473 67.2208 92.5713 67.1128C92.6072 66.9931 92.655 66.8732 92.7149 66.7535C92.7509 66.6575 92.7994 66.5791 92.8594 66.5191C92.9194 66.4472 92.9913 66.3808 93.0752 66.3209C93.2672 66.2249 93.4594 66.1773 93.6514 66.1773C93.7473 66.1773 93.8314 66.1829 93.9033 66.1949C93.9753 66.1949 94.0472 66.2014 94.1191 66.2134C94.2631 66.2254 94.4012 66.2973 94.5332 66.4293C94.6292 66.5132 94.6955 66.6093 94.7315 66.7173C94.7914 66.8733 94.8269 67.0114 94.8389 67.1314C94.8508 67.2152 94.8574 67.293 94.8574 67.3648V68.3189L94.8213 71.2896H95.1455C95.2773 71.2896 95.427 71.283 95.5947 71.271C96.2187 71.271 96.8372 71.2776 97.4492 71.2896C98.0732 71.3016 98.7272 71.3072 99.4111 71.3072H99.4297V69.7593C99.4417 69.2674 99.4594 68.7514 99.4834 68.2115V67.8511C99.4954 67.7193 99.5076 67.5875 99.5195 67.4556C99.5315 67.3356 99.5492 67.2208 99.5732 67.1128C99.6092 66.9931 99.6569 66.8732 99.7168 66.7535C99.7408 66.6576 99.7829 66.5791 99.8428 66.5191C99.9147 66.4471 99.9988 66.3808 100.095 66.3209C100.263 66.2249 100.449 66.1773 100.653 66.1773ZM71.0615 66.2496C71.4935 66.2496 71.9376 66.2551 72.3936 66.2671H72.4658C72.5976 66.2791 72.7352 66.2857 72.8789 66.2857C73.0228 66.2857 73.1611 66.2913 73.293 66.3033C73.425 66.3033 73.5575 66.321 73.6895 66.357C73.8213 66.381 73.9531 66.4174 74.085 66.4654C74.2888 66.5253 74.4569 66.6272 74.5889 66.771C74.6968 66.939 74.7509 67.107 74.751 67.275V67.4908C74.751 67.5508 74.7398 67.6114 74.7158 67.6714C74.7038 67.7914 74.631 67.9174 74.499 68.0494C74.4511 68.0733 74.3968 68.1033 74.3369 68.1392C74.289 68.1751 74.2291 68.2051 74.1572 68.2291C74.0854 68.253 74.0076 68.2708 73.9238 68.2828C73.8518 68.2828 73.779 68.2893 73.707 68.3013C73.6112 68.3253 73.5214 68.3374 73.4375 68.3375H72.375L68.7754 68.355V68.4087L68.7393 71.2349H69.459C69.951 71.2229 70.3894 71.2173 70.7734 71.2173C71.1574 71.2173 71.5838 71.2229 72.0518 71.2349H72.1416C72.2855 71.2349 72.4237 71.2415 72.5557 71.2535H72.9697C73.1136 71.2655 73.2519 71.2888 73.3838 71.3248C73.5157 71.3487 73.6474 71.3796 73.7793 71.4156C73.9831 71.4875 74.1513 71.595 74.2832 71.7388C74.4032 71.8948 74.4629 72.0693 74.4629 72.2613V72.4771C74.4629 72.5491 74.4517 72.6154 74.4277 72.6753C74.4037 72.8073 74.3253 72.9277 74.1934 73.0357C74.1333 73.1195 74.0193 73.1794 73.8516 73.2154C73.6957 73.2633 73.5397 73.2932 73.3838 73.3052C73.2158 73.3412 73.0469 73.3589 72.8789 73.3589H72.0332L68.7031 73.3775L68.667 76.9048L72.249 76.941H73.3652C73.4492 76.941 73.5276 76.9475 73.5996 76.9595C73.6955 76.9835 73.7796 77.0012 73.8516 77.0132C73.9354 77.0133 74.0131 77.0255 74.085 77.0494C74.229 77.0974 74.3493 77.1636 74.4453 77.2476C74.5652 77.3676 74.6437 77.4936 74.6797 77.6255C74.6916 77.6853 74.6972 77.7511 74.6973 77.8228C74.7093 77.8828 74.7092 77.9491 74.6973 78.021C74.6973 78.213 74.6376 78.3875 74.5176 78.5435C74.3737 78.7114 74.2055 78.8187 74.0137 78.8668C73.7617 78.9747 73.4855 79.0288 73.1856 79.0289C73.0536 79.0409 72.9154 79.0474 72.7715 79.0474C72.6275 79.0474 72.4894 79.053 72.3574 79.065H72.249C71.3131 79.089 70.3409 79.089 69.333 79.065C69.0934 79.065 68.9017 79.0594 68.7578 79.0474H67.5518C67.2758 79.0714 67.0472 79.0229 66.8672 78.9029C66.7353 78.8189 66.6335 78.705 66.5615 78.5611C66.5257 78.5252 66.508 78.4895 66.5078 78.4537C66.4958 78.4297 66.4837 78.411 66.4717 78.399C66.4597 78.387 66.4475 78.3692 66.4356 78.3453C66.4116 78.2854 66.3938 78.2254 66.3818 78.1656C66.3699 78.0936 66.3633 78.0273 66.3633 77.9673C66.3513 77.9075 66.3391 77.8475 66.3272 77.7877C66.3272 77.7276 66.3216 77.667 66.3096 77.607V77.1753C66.3216 77.1273 66.3272 77.0788 66.3272 77.0308V75.6275L66.3633 73.0357V69.4888C66.3753 69.1529 66.3874 68.787 66.3994 68.3912V68.3013C66.4114 68.1693 66.417 68.049 66.417 67.941C66.429 67.8212 66.4355 67.7014 66.4356 67.5816C66.4476 67.3416 66.5138 67.1074 66.6338 66.8794C66.6818 66.7835 66.7294 66.6995 66.7774 66.6275C66.8374 66.5555 66.9157 66.4948 67.0117 66.4468C67.1916 66.339 67.3775 66.2857 67.5693 66.2857C67.6652 66.2857 67.7372 66.2913 67.7852 66.3033V66.2857H69.0996C69.2436 66.2737 69.4415 66.2671 69.6934 66.2671C70.1734 66.2551 70.6295 66.2496 71.0615 66.2496ZM173.509 66.2134C173.641 66.2134 173.755 66.2377 173.851 66.2857C173.946 66.3336 174.043 66.3869 174.139 66.4468C174.247 66.5308 174.349 66.6213 174.445 66.7173C174.553 66.8133 174.649 66.9151 174.733 67.023C174.829 67.1429 174.919 67.2569 175.003 67.3648C175.087 67.4608 175.171 67.5756 175.255 67.7076L175.309 67.7789C175.597 68.1629 175.867 68.5351 176.119 68.8951C176.371 69.243 176.635 69.6209 176.911 70.0289C176.935 70.0529 176.971 70.1014 177.019 70.1734C177.067 70.2454 177.121 70.3294 177.181 70.4253C177.229 70.3415 177.271 70.2695 177.307 70.2095C177.355 70.1375 177.391 70.089 177.415 70.065C177.691 69.6572 177.955 69.2735 178.207 68.9136C178.459 68.5537 178.729 68.1813 179.017 67.7974L179.053 67.7252C179.149 67.6171 179.233 67.5089 179.305 67.4009C179.389 67.281 179.479 67.1615 179.575 67.0416C179.731 66.8256 179.941 66.639 180.205 66.483C180.397 66.3511 180.595 66.267 180.799 66.231C181.027 66.207 181.225 66.2556 181.393 66.3755C181.465 66.4235 181.531 66.4655 181.591 66.5015C181.663 66.5375 181.723 66.5795 181.771 66.6275C181.866 66.7354 181.945 66.8671 182.005 67.023C182.017 67.083 182.017 67.1437 182.005 67.2037C182.005 67.2635 181.987 67.3292 181.951 67.4009C181.903 67.5689 181.849 67.7192 181.789 67.8511C181.717 68.0191 181.627 68.1628 181.519 68.2828C181.471 68.3548 181.423 68.4276 181.375 68.4996C181.339 68.5595 181.303 68.6193 181.267 68.6793L181.033 68.9849L178.729 72.315L178.314 72.8375V77.6255C178.291 77.6854 178.279 77.7454 178.279 77.8052C178.279 77.8652 178.273 77.9315 178.261 78.0035C178.237 78.0634 178.219 78.1233 178.207 78.1832C178.195 78.2311 178.177 78.2853 178.153 78.3453C178.129 78.3933 178.117 78.4297 178.117 78.4537C178.105 78.4775 178.093 78.4954 178.081 78.5074C178.081 78.5194 178.074 78.5372 178.063 78.5611C177.991 78.6811 177.889 78.7893 177.757 78.8853C177.493 79.0173 177.192 79.0471 176.856 78.9752C176.665 78.9511 176.521 78.8913 176.425 78.7955C176.365 78.7595 176.317 78.7173 176.281 78.6695C176.245 78.6215 176.209 78.5673 176.173 78.5074C176.149 78.4354 176.125 78.3691 176.101 78.3091C176.077 78.2493 176.059 78.1893 176.047 78.1294C176.023 78.0695 176.011 78.0153 176.011 77.9673V72.8912L175.615 72.2789L173.275 68.9673L173.077 68.6431C173.005 68.5351 172.915 68.4092 172.807 68.2652C172.711 68.1333 172.627 67.9894 172.555 67.8335C172.507 67.7615 172.465 67.6888 172.429 67.6168C172.405 67.5329 172.38 67.4486 172.356 67.3648C172.321 67.245 172.315 67.1252 172.339 67.0054C172.375 66.8494 172.447 66.7169 172.555 66.6089C172.675 66.501 172.801 66.417 172.933 66.357C173.101 66.237 173.293 66.1895 173.509 66.2134ZM58.667 66.2496C59.363 66.2496 60.0533 66.2617 60.7373 66.2857C60.893 66.2977 61.0428 66.3155 61.1865 66.3394C61.3305 66.3634 61.4751 66.4054 61.6191 66.4654C61.727 66.5013 61.8289 66.549 61.9248 66.6089C62.0208 66.6569 62.0992 66.7232 62.1592 66.8072C62.2911 66.9632 62.3574 67.1255 62.3574 67.2935C62.3574 67.3653 62.3508 67.4431 62.3389 67.5269C62.3389 67.5989 62.3333 67.6652 62.3213 67.7252C62.2853 67.8571 62.2069 67.9831 62.0869 68.1031C61.991 68.175 61.8592 68.2292 61.6914 68.2652C61.6074 68.2892 61.5225 68.3069 61.4385 68.3189C61.3546 68.3309 61.2648 68.3496 61.169 68.3736C61.085 68.3856 61.001 68.3912 60.917 68.3912H59.7285C59.5127 68.4031 59.2969 68.4087 59.0811 68.4087H58.4688C58.4808 68.7806 58.4873 69.183 58.4873 69.6148C58.4873 70.0348 58.4808 70.5274 58.4688 71.0914C58.4688 71.6553 58.4632 72.3093 58.4512 73.0533V77.0132C58.4512 77.1329 58.4568 77.2228 58.4688 77.2828V77.4273C58.4687 77.4632 58.4631 77.5111 58.4512 77.5709C58.4272 77.6788 58.4085 77.8049 58.3965 77.9488C58.3965 78.0088 58.3909 78.0694 58.3789 78.1294C58.3669 78.1774 58.3492 78.2316 58.3252 78.2916C58.2774 78.3394 58.2531 78.375 58.2529 78.399L58.1992 78.5074C58.1393 78.6273 58.0252 78.7412 57.8574 78.8492C57.5934 78.9812 57.2986 79.011 56.9746 78.939C56.7708 78.915 56.6148 78.8609 56.5068 78.7769C56.399 78.669 56.3204 78.5615 56.2725 78.4537C56.2005 78.3217 56.1585 78.1948 56.1465 78.0748C56.1106 77.9669 56.0928 77.8528 56.0928 77.733V68.481H54.9053C54.6533 68.469 54.4126 68.4569 54.1846 68.4449C53.9568 68.4329 53.8008 68.4207 53.7168 68.4087C53.6448 68.3967 53.5308 68.379 53.375 68.355C53.231 68.331 53.1107 68.3068 53.0147 68.2828C52.7628 68.2108 52.5648 68.0969 52.4209 67.941C52.2891 67.7851 52.2227 67.6113 52.2227 67.4195V67.2037C52.2227 67.1318 52.2349 67.0654 52.2588 67.0054C52.2948 66.8614 52.3909 66.7411 52.5469 66.6451C52.5949 66.6091 52.6668 66.5671 52.7627 66.5191C52.8707 66.4591 52.9733 66.4171 53.0693 66.3931C53.2133 66.3452 53.3936 66.3097 53.6094 66.2857C53.7051 66.2737 53.8008 66.2672 53.8965 66.2671H55.3906C55.7745 66.2671 56.1768 66.2616 56.5967 66.2496C57.2927 66.2376 57.983 66.2376 58.667 66.2496ZM124.978 66.2857C125.638 66.3217 126.226 66.4896 126.742 66.7896C127.258 67.0776 127.696 67.4676 128.056 67.9595C128.428 68.4514 128.728 69.003 128.956 69.6148C129.136 70.0708 129.274 70.5512 129.37 71.0552C129.466 71.5591 129.52 72.063 129.532 72.5669C129.556 73.0589 129.538 73.545 129.478 74.025C129.43 74.5049 129.346 74.949 129.226 75.357C129.154 75.6329 129.07 75.8849 128.974 76.1128C128.878 76.3408 128.764 76.5694 128.632 76.7974C128.332 77.3133 127.942 77.7332 127.462 78.0572C126.994 78.3811 126.478 78.6088 125.914 78.7408C125.53 78.8368 125.134 78.8853 124.726 78.8853C124.318 78.8733 123.915 78.8192 123.52 78.7232C123.124 78.6152 122.74 78.4649 122.368 78.273C122.008 78.069 121.678 77.8171 121.378 77.5171C121.006 77.1572 120.7 76.7429 120.46 76.275C120.22 75.795 120.034 75.2967 119.902 74.7808C119.77 74.2529 119.686 73.7247 119.65 73.1968C119.614 72.669 119.614 72.165 119.65 71.6851C119.686 71.2412 119.77 70.7672 119.902 70.2632C120.046 69.7593 120.25 69.2732 120.514 68.8052C120.778 68.3373 121.096 67.9174 121.468 67.5455C121.852 67.1615 122.296 66.8732 122.8 66.6812C123.604 66.3813 124.33 66.2498 124.978 66.2857ZM150.285 66.2857C150.945 66.3217 151.534 66.4896 152.05 66.7896C152.566 67.0776 153.003 67.4676 153.363 67.9595C153.735 68.4514 154.036 69.003 154.264 69.6148C154.444 70.0708 154.582 70.5512 154.678 71.0552C154.774 71.5591 154.828 72.0631 154.84 72.5669C154.864 73.0589 154.845 73.545 154.785 74.025C154.737 74.5049 154.653 74.949 154.533 75.357C154.461 75.6329 154.377 75.8849 154.281 76.1128C154.185 76.3408 154.071 76.5694 153.939 76.7974C153.639 77.3133 153.249 77.7332 152.77 78.0572C152.302 78.3811 151.786 78.6088 151.222 78.7408C150.838 78.8368 150.441 78.8853 150.033 78.8853C149.625 78.8733 149.223 78.8192 148.827 78.7232C148.431 78.6152 148.048 78.4649 147.676 78.273C147.316 78.069 146.986 77.8171 146.686 77.5171C146.314 77.1572 146.008 76.7429 145.768 76.275C145.528 75.795 145.342 75.2967 145.21 74.7808C145.078 74.2529 144.994 73.7247 144.958 73.1968C144.922 72.669 144.922 72.165 144.958 71.6851C144.994 71.2412 145.078 70.7672 145.21 70.2632C145.354 69.7593 145.557 69.2732 145.821 68.8052C146.085 68.3373 146.403 67.9174 146.775 67.5455C147.159 67.1615 147.603 66.8732 148.107 66.6812C148.911 66.3813 149.637 66.2498 150.285 66.2857ZM13.3252 18.6509C17.8666 16.7309 22.9389 16.4696 27.6533 17.9136C32.3675 19.3576 36.4234 22.4145 39.1104 26.5484C41.7973 30.6826 42.9443 35.6313 42.3496 40.5259C41.7549 45.4203 39.4568 49.9495 35.8584 53.3199C32.2596 56.6903 27.5891 58.6874 22.666 58.9605C18.9913 59.1643 15.3503 58.3983 12.0977 56.7691L11.4531 56.4312C9.99921 55.6386 9.73523 53.7381 10.7266 52.4117C11.7181 51.0857 13.5892 50.8461 15.0859 51.5543C17.3318 52.6169 19.822 53.1115 22.334 52.9722C25.8511 52.7771 29.1878 51.3508 31.7588 48.9429C34.3297 46.535 35.9716 43.299 36.3965 39.8023C36.8213 36.3055 36.0016 32.7704 34.082 29.8169C32.1624 26.8635 29.2645 24.6796 25.8965 23.648C22.5285 22.6165 18.9045 22.8027 15.6602 24.1744C12.4159 25.5462 9.75782 28.0162 8.15137 31.1509L7.94239 31.5728C6.93584 33.6988 6.44851 36.0215 6.50391 38.3502C6.51181 38.6823 6.47626 39.0126 6.40528 39.3316L6.49122 74.9781L6.48731 75.1324C6.41071 76.7176 5.1031 77.9821 3.49805 77.9859C1.89308 77.9896 0.579294 76.7318 0.495124 75.147L0.491218 74.9927L0.402351 37.9927C0.401707 37.7003 0.44404 37.4174 0.521492 37.15C0.642955 34.1283 1.41456 31.1455 2.81348 28.4156C5.06213 24.0276 8.78384 20.571 13.3252 18.6509ZM124.708 68.5533C124.348 68.5533 123.946 68.6615 123.502 68.8775C123.238 69.0095 123.01 69.1896 122.818 69.4175C122.638 69.6455 122.488 69.9031 122.368 70.191C122.26 70.479 122.17 70.7794 122.098 71.0914C122.038 71.4031 122.002 71.703 121.99 71.9908C121.966 72.3027 121.96 72.6331 121.972 72.981C121.984 73.317 122.02 73.6594 122.08 74.0074C122.152 74.3433 122.248 74.6671 122.368 74.9791C122.488 75.2791 122.65 75.5496 122.854 75.7896C123.165 76.1495 123.526 76.4014 123.934 76.5455C124.354 76.6774 124.768 76.6951 125.176 76.5992C125.836 76.4552 126.34 76.0174 126.688 75.2857C126.831 75.0217 126.94 74.7213 127.012 74.3853C127.156 73.8213 127.216 73.1851 127.192 72.4771C127.168 71.7691 127.054 71.103 126.85 70.4791C126.718 70.0952 126.55 69.7592 126.346 69.4712C126.154 69.1713 125.92 68.9436 125.644 68.7877C125.38 68.6317 125.068 68.5533 124.708 68.5533ZM150.016 68.5533C149.656 68.5533 149.254 68.6615 148.81 68.8775C148.546 69.0095 148.318 69.1896 148.126 69.4175C147.946 69.6455 147.796 69.9031 147.676 70.191C147.568 70.479 147.477 70.7794 147.405 71.0914C147.345 71.4031 147.31 71.703 147.298 71.9908C147.274 72.3027 147.267 72.6331 147.279 72.981C147.291 73.317 147.328 73.6594 147.388 74.0074C147.46 74.3433 147.556 74.6671 147.676 74.9791C147.796 75.2791 147.957 75.5496 148.161 75.7896C148.473 76.1495 148.833 76.4015 149.241 76.5455C149.661 76.6774 150.075 76.6951 150.483 76.5992C151.143 76.4552 151.647 76.0174 151.995 75.2857C152.139 75.0217 152.247 74.7213 152.319 74.3853C152.463 73.8213 152.524 73.1851 152.5 72.4771C152.476 71.7691 152.361 71.103 152.157 70.4791C152.025 70.0952 151.857 69.7592 151.653 69.4712C151.461 69.1713 151.227 68.9436 150.951 68.7877C150.687 68.6317 150.376 68.5533 150.016 68.5533ZM67.5029 15.9937C79.6531 15.9937 89.5027 25.8436 89.5029 37.9937C89.5025 50.1436 79.6529 59.9937 67.5029 59.9937C55.353 59.9937 45.5034 50.1436 45.5029 37.9937C45.5032 25.8436 55.3528 15.9937 67.5029 15.9937ZM176.002 8.02593C179.055 1.25714 183.893 -0.624928 185.469 0.15972C181.142 4.04099 181.863 9.45842 182.765 11.6822C186.659 7.80126 190.879 10.065 192.502 11.6822C189.957 11.1786 185.372 11.9298 184.138 17.7535C191.995 21.1102 197.503 28.9079 197.503 37.9927C197.503 50.1429 187.653 59.9927 175.503 59.9927C163.353 59.9927 153.503 50.1429 153.503 37.9927C153.503 28.5591 159.441 20.5129 167.783 17.3863C166.437 11.8982 161.994 11.1894 159.503 11.6822C161.126 10.065 165.345 7.80117 169.24 11.6822C170.142 9.45831 170.863 4.04096 166.535 0.15972C168.111 -0.625243 172.949 1.257 176.002 8.02593ZM223.503 16.9937C235.101 16.9937 244.503 26.3957 244.503 37.9937C244.503 49.5915 235.101 58.9937 223.503 58.9937C211.905 58.9937 202.503 49.5915 202.503 37.9937C202.503 26.3957 211.905 16.9937 223.503 16.9937ZM133.003 16.9937C141.011 16.9937 147.503 23.4856 147.503 31.4937V54.9937C147.503 56.6503 146.16 57.9937 144.503 57.9937C142.846 57.9937 141.503 56.6503 141.503 54.9937V31.4937C141.503 26.7993 137.697 22.9937 133.003 22.9937C128.309 22.9937 124.503 26.7993 124.503 31.4937V54.9937C124.503 56.6503 123.16 57.9937 121.503 57.9937C119.846 57.9937 118.503 56.6503 118.503 54.9937V31.4937C118.503 26.7993 114.697 22.9937 110.003 22.9937C105.309 22.9937 101.503 26.7993 101.503 31.4937V54.9937C101.503 56.6503 100.16 57.9937 98.5029 57.9937C96.8463 57.9937 95.5032 56.6503 95.5029 54.9937V31.4937C95.5029 23.4856 101.995 16.9937 110.003 16.9937C114.687 16.9937 118.852 19.2152 121.503 22.6617C124.154 19.2152 128.319 16.9937 133.003 16.9937ZM68.5576 53.775C68.0255 55.6896 69.3323 56.0255 70.0527 55.9537C70.5614 56.4155 71.1334 54.9354 71.3555 54.1373C72.1173 52.6484 70.9083 52.0942 70.209 52.0035L68.5576 53.775ZM185.085 20.148C184.741 19.9871 184.323 20.1099 184.124 20.4429C183.925 20.7762 184.014 21.2022 184.319 21.4293L184.383 21.4712L184.879 21.7789C187.333 23.3495 189.402 25.4587 190.925 27.9488C192.549 30.6048 193.505 33.6156 193.711 36.7222C193.904 39.6348 193.431 42.5507 192.333 45.2496L192.104 45.7867C190.844 48.6336 188.911 51.1328 186.473 53.0689C186.149 53.3265 186.095 53.7984 186.353 54.1226C186.61 54.4466 187.082 54.5002 187.406 54.2427C190.034 52.1558 192.118 49.4627 193.477 46.3941L193.722 45.815C194.906 42.9059 195.416 39.763 195.208 36.6236C194.986 33.2747 193.955 30.0287 192.204 27.1656C190.562 24.4815 188.333 22.2082 185.688 20.5152L185.153 20.1841L185.085 20.148ZM63.7012 50.0572C63.1371 49.6636 62.7612 51.2047 62.6436 52.025C62.08 53.599 63.3485 53.9936 64.0537 53.9937L65.4649 52.025C65.7466 50.057 64.4064 49.8932 63.7012 50.0572ZM223.503 22.9937C215.219 22.9937 208.503 29.7094 208.503 37.9937C208.503 46.2777 215.219 52.9937 223.503 52.9937C231.787 52.9937 238.503 46.2778 238.503 37.9937C238.503 29.7094 231.787 22.9937 223.503 22.9937ZM80.8057 49.2056C80.5471 48.5686 79.3913 49.6555 78.8457 50.2789C77.5151 51.291 78.364 52.3132 78.9551 52.6978L81.2109 51.8169C82.5203 50.3208 81.4863 49.4527 80.8057 49.2056ZM75.1641 46.0406C74.7081 45.5256 73.9806 46.936 73.6738 47.7056C72.7566 49.1034 73.8976 49.7842 74.583 49.9498L76.416 48.3677C77.1523 46.5206 75.8881 46.0467 75.1641 46.0406ZM67.7012 45.0572C67.1371 44.6636 66.7612 46.2047 66.6436 47.025C66.08 48.599 67.3485 48.9936 68.0537 48.9937L69.4649 47.025C69.7466 45.057 68.4064 44.8932 67.7012 45.0572ZM56.7012 44.0572C56.1371 43.6636 55.7612 45.2047 55.6436 46.025C55.08 47.599 56.3485 47.9936 57.0537 47.9937L58.4649 46.025C58.7466 44.057 57.4064 43.8932 56.7012 44.0572ZM64.0732 44.5611C63.0061 42.8837 61.8828 43.6308 61.4541 44.2144C60.7699 44.2831 61.4879 45.698 61.9326 46.397C62.5295 47.9586 63.7487 47.4322 64.2842 46.9732L64.0732 44.5611ZM51.7012 42.0572C51.1371 41.6636 50.7612 43.2047 50.6436 44.025C50.08 45.599 51.3485 45.9936 52.0537 45.9937L53.4649 44.025C53.7466 42.057 52.4064 41.8932 51.7012 42.0572ZM73.2217 41.0455C72.7809 40.5174 72.0117 41.9062 71.6826 42.6666C70.7248 44.0372 71.846 44.7516 72.5264 44.9371L74.4043 43.4087C75.194 41.5841 73.9453 41.0728 73.2217 41.0455ZM65.7012 38.0572C65.1371 37.6636 64.7612 39.2047 64.6436 40.025C64.08 41.599 65.3485 41.9936 66.0537 41.9937L67.4649 40.025C67.7466 38.057 66.4064 37.8932 65.7012 38.0572ZM58.7012 37.0572C58.1371 36.6636 57.7612 38.2047 57.6436 39.025C57.08 40.599 58.3485 40.9936 59.0537 40.9937L60.4649 39.025C60.7466 37.057 59.4064 36.8932 58.7012 37.0572ZM52.7012 36.0572C52.1371 35.6636 51.7612 37.2047 51.6436 38.025C51.08 39.599 52.3485 39.9936 53.0537 39.9937L54.4649 38.025C54.7466 36.057 53.4064 35.8932 52.7012 36.0572ZM70.7012 35.0572C70.1371 34.6636 69.7612 36.2047 69.6436 37.025C69.08 38.599 70.3485 38.9936 71.0537 38.9937L72.4649 37.025C72.7466 35.057 71.4064 34.8932 70.7012 35.0572ZM63.7012 31.0572C63.1371 30.6636 62.7612 32.2047 62.6436 33.025C62.08 34.599 63.3485 34.9936 64.0537 34.9937L65.4649 33.025C65.7466 31.057 64.4064 30.8932 63.7012 31.0572ZM56.6152 31.9625C56.2625 33.9185 57.595 34.132 58.3057 33.9937C58.8547 34.406 59.2863 32.8804 59.4336 32.065C60.0545 30.5117 58.8005 30.072 58.0957 30.0464L56.6152 31.9625ZM52.6494 29.1431C52.3371 28.5302 51.2791 29.7132 50.7891 30.3814C49.5503 31.5047 50.4844 32.4497 51.1065 32.7818L53.2774 31.7105C54.453 30.1073 53.3488 29.3308 52.6494 29.1431ZM60.7012 24.0572C60.1371 23.6636 59.7612 25.2047 59.6436 26.025C59.08 27.599 60.3485 27.9936 61.0537 27.9937L62.4649 26.025C62.7466 24.057 61.4064 23.8932 60.7012 24.0572ZM50.4736 10.8287C50.9832 9.70478 53.3105 9.65997 55.6719 10.7291L56.1055 10.938C58.2142 12.0188 59.5042 13.6486 59.0274 14.7027L58.9746 14.8043C58.3727 15.8278 56.116 15.8363 53.8281 14.8003L53.3965 14.5923C51.2877 13.5118 49.9972 11.8828 50.4736 10.8287ZM52.4072 11.4556C52.204 11.4595 52.0592 11.479 51.959 11.5005C52.0089 11.5901 52.0896 11.7124 52.2207 11.8677C52.6545 12.3811 53.4241 12.9707 54.4473 13.4341C55.471 13.8977 56.4226 14.0876 57.0947 14.0748C57.2978 14.0708 57.4418 14.0504 57.542 14.0289C57.4921 13.9395 57.4118 13.8173 57.2813 13.6627C56.8475 13.1491 56.0772 12.5588 55.0537 12.0953C54.0302 11.6319 53.0792 11.4428 52.4072 11.4556ZM62.7344 4.11187C63.9669 4.04629 65.0778 6.09243 65.2158 8.6812L65.2295 9.16167C65.2408 11.5314 64.3888 13.4273 63.2334 13.4888H63.1191C61.9331 13.4265 60.8866 11.4268 60.7529 8.91851L60.7393 8.43902C60.7278 6.06942 61.5791 4.17381 62.7344 4.11187ZM62.8223 5.7398C62.7658 5.82529 62.6938 5.95317 62.6162 6.14117C62.3602 6.76246 62.1915 7.71712 62.251 8.83843C62.3108 9.96036 62.5807 10.8932 62.9014 11.4839C62.9981 11.6619 63.0823 11.781 63.1475 11.8599C63.2038 11.7744 63.2753 11.6467 63.3525 11.4595C63.6087 10.8381 63.7774 9.88208 63.7178 8.76031C63.6579 7.63886 63.3889 6.70734 63.0684 6.11675C62.9716 5.93855 62.8875 5.81883 62.8223 5.7398Z" fill="white"/>
</svg>
